%TF.GenerationSoftware,KiCad,Pcbnew,7.0.11-7.0.11~ubuntu22.04.1*%
%TF.CreationDate,2024-06-13T22:21:10+02:00*%
%TF.ProjectId,schneggi_sensor_kicad7,7363686e-6567-4676-995f-73656e736f72,rev?*%
%TF.SameCoordinates,Original*%
%TF.FileFunction,Copper,L2,Bot*%
%TF.FilePolarity,Positive*%
%FSLAX46Y46*%
G04 Gerber Fmt 4.6, Leading zero omitted, Abs format (unit mm)*
G04 Created by KiCad (PCBNEW 7.0.11-7.0.11~ubuntu22.04.1) date 2024-06-13 22:21:10*
%MOMM*%
%LPD*%
G01*
G04 APERTURE LIST*
%TA.AperFunction,ViaPad*%
%ADD10C,0.800000*%
%TD*%
%TA.AperFunction,Conductor*%
%ADD11C,0.250000*%
%TD*%
G04 APERTURE END LIST*
D10*
%TO.N,GND*%
X19400000Y-16800000D03*
X12200000Y-5400000D03*
X19800000Y-9000000D03*
X19400000Y-13100000D03*
X11400000Y-1400000D03*
X8300000Y-1500000D03*
X17500000Y-15000000D03*
X15700000Y-13100000D03*
X15700000Y-16700000D03*
X21200000Y-20475000D03*
%TO.N,SCL*%
X13600000Y-8900000D03*
X11000000Y-8900000D03*
%TO.N,nRF_VDD*%
X9000000Y-8100000D03*
X12635000Y-8100000D03*
%TD*%
D11*
%TO.N,SCL*%
X13600000Y-8900000D02*
X11000000Y-8900000D01*
%TO.N,nRF_VDD*%
X12635000Y-8100000D02*
X9000000Y-8100000D01*
%TD*%
%TA.AperFunction,Conductor*%
%TO.N,GND*%
G36*
X34005474Y-979D02*
G01*
X34013300Y-1663D01*
X34044887Y-4427D01*
X34046124Y-4542D01*
X34171603Y-16901D01*
X34191847Y-20584D01*
X34256419Y-37886D01*
X34260252Y-38981D01*
X34351432Y-66640D01*
X34368092Y-73014D01*
X34404035Y-89775D01*
X34433794Y-103652D01*
X34439939Y-106724D01*
X34518940Y-148951D01*
X34531815Y-156860D01*
X34592829Y-199583D01*
X34600491Y-205396D01*
X34668383Y-261113D01*
X34677545Y-269418D01*
X34730580Y-322453D01*
X34738885Y-331615D01*
X34794602Y-399507D01*
X34800415Y-407169D01*
X34843138Y-468183D01*
X34851047Y-481058D01*
X34893274Y-560059D01*
X34896346Y-566204D01*
X34926982Y-631902D01*
X34933362Y-648577D01*
X34960996Y-739674D01*
X34962129Y-743640D01*
X34979412Y-808144D01*
X34983098Y-828404D01*
X34995456Y-953874D01*
X34995583Y-955239D01*
X34999020Y-994513D01*
X34999500Y-1005498D01*
X34999500Y-28994499D01*
X34999020Y-29005484D01*
X34995582Y-29044767D01*
X34995455Y-29046132D01*
X34983098Y-29171594D01*
X34979412Y-29191854D01*
X34962129Y-29256358D01*
X34960996Y-29260324D01*
X34933362Y-29351421D01*
X34926982Y-29368096D01*
X34896346Y-29433794D01*
X34893274Y-29439939D01*
X34851047Y-29518940D01*
X34843138Y-29531815D01*
X34800415Y-29592829D01*
X34794602Y-29600491D01*
X34738885Y-29668383D01*
X34730580Y-29677545D01*
X34677545Y-29730580D01*
X34668383Y-29738885D01*
X34600491Y-29794602D01*
X34592829Y-29800415D01*
X34531815Y-29843138D01*
X34518940Y-29851047D01*
X34439939Y-29893274D01*
X34433794Y-29896346D01*
X34368096Y-29926982D01*
X34351421Y-29933362D01*
X34260324Y-29960996D01*
X34256358Y-29962129D01*
X34191854Y-29979412D01*
X34171594Y-29983098D01*
X34046132Y-29995455D01*
X34044768Y-29995582D01*
X34005486Y-29999020D01*
X33994500Y-29999500D01*
X1005499Y-29999500D01*
X994515Y-29999020D01*
X955240Y-29995583D01*
X953874Y-29995456D01*
X828404Y-29983098D01*
X808144Y-29979412D01*
X743640Y-29962129D01*
X739674Y-29960996D01*
X648577Y-29933362D01*
X631902Y-29926982D01*
X566204Y-29896346D01*
X560059Y-29893274D01*
X481058Y-29851047D01*
X468183Y-29843138D01*
X407169Y-29800415D01*
X399507Y-29794602D01*
X331615Y-29738885D01*
X322453Y-29730580D01*
X269418Y-29677545D01*
X261113Y-29668383D01*
X205396Y-29600491D01*
X199583Y-29592829D01*
X156860Y-29531815D01*
X148951Y-29518940D01*
X106724Y-29439939D01*
X103652Y-29433794D01*
X73016Y-29368096D01*
X66640Y-29351432D01*
X38981Y-29260252D01*
X37886Y-29256419D01*
X20584Y-29191847D01*
X16901Y-29171603D01*
X4543Y-29046125D01*
X4422Y-29044830D01*
X4416Y-29044767D01*
X979Y-29005472D01*
X500Y-28994492D01*
X500Y-27800000D01*
X844341Y-27800000D01*
X864937Y-28035411D01*
X926096Y-28263661D01*
X926098Y-28263665D01*
X1025966Y-28477832D01*
X1161498Y-28671392D01*
X1161502Y-28671397D01*
X1161505Y-28671401D01*
X1328599Y-28838495D01*
X1328603Y-28838498D01*
X1328607Y-28838501D01*
X1522167Y-28974033D01*
X1522166Y-28974033D01*
X1566041Y-28994492D01*
X1736337Y-29073903D01*
X1964592Y-29135063D01*
X2141034Y-29150500D01*
X2141041Y-29150500D01*
X2258959Y-29150500D01*
X2258966Y-29150500D01*
X2435408Y-29135063D01*
X2663663Y-29073903D01*
X2877829Y-28974035D01*
X3071401Y-28838495D01*
X3238495Y-28671401D01*
X3374035Y-28477830D01*
X3473903Y-28263663D01*
X3535063Y-28035408D01*
X3555659Y-27800000D01*
X31444341Y-27800000D01*
X31464937Y-28035411D01*
X31526096Y-28263661D01*
X31526098Y-28263665D01*
X31625966Y-28477832D01*
X31761498Y-28671392D01*
X31761502Y-28671397D01*
X31761505Y-28671401D01*
X31928599Y-28838495D01*
X31928603Y-28838498D01*
X31928607Y-28838501D01*
X32122167Y-28974033D01*
X32122166Y-28974033D01*
X32166041Y-28994492D01*
X32336337Y-29073903D01*
X32564592Y-29135063D01*
X32741034Y-29150500D01*
X32741041Y-29150500D01*
X32858959Y-29150500D01*
X32858966Y-29150500D01*
X33035408Y-29135063D01*
X33263663Y-29073903D01*
X33477829Y-28974035D01*
X33671401Y-28838495D01*
X33838495Y-28671401D01*
X33974035Y-28477830D01*
X34073903Y-28263663D01*
X34135063Y-28035408D01*
X34155659Y-27800000D01*
X34135063Y-27564592D01*
X34073903Y-27336337D01*
X33974035Y-27122171D01*
X33974034Y-27122169D01*
X33974033Y-27122167D01*
X33838501Y-26928607D01*
X33838497Y-26928602D01*
X33838495Y-26928599D01*
X33671401Y-26761505D01*
X33671397Y-26761502D01*
X33671392Y-26761498D01*
X33477832Y-26625966D01*
X33477833Y-26625966D01*
X33263665Y-26526098D01*
X33263661Y-26526096D01*
X33035411Y-26464937D01*
X32982475Y-26460305D01*
X32858966Y-26449500D01*
X32741034Y-26449500D01*
X32628752Y-26459323D01*
X32564588Y-26464937D01*
X32336338Y-26526096D01*
X32336334Y-26526098D01*
X32122167Y-26625966D01*
X31928607Y-26761498D01*
X31928596Y-26761507D01*
X31761507Y-26928596D01*
X31761502Y-26928602D01*
X31625965Y-27122169D01*
X31526098Y-27336334D01*
X31526096Y-27336338D01*
X31464937Y-27564588D01*
X31444341Y-27800000D01*
X3555659Y-27800000D01*
X3535063Y-27564592D01*
X3473903Y-27336337D01*
X3374035Y-27122171D01*
X3374034Y-27122169D01*
X3374033Y-27122167D01*
X3238501Y-26928607D01*
X3238497Y-26928602D01*
X3238495Y-26928599D01*
X3071401Y-26761505D01*
X3071397Y-26761502D01*
X3071392Y-26761498D01*
X2877832Y-26625966D01*
X2877833Y-26625966D01*
X2663665Y-26526098D01*
X2663661Y-26526096D01*
X2435411Y-26464937D01*
X2382475Y-26460305D01*
X2258966Y-26449500D01*
X2141034Y-26449500D01*
X2028752Y-26459323D01*
X1964588Y-26464937D01*
X1736338Y-26526096D01*
X1736334Y-26526098D01*
X1522167Y-26625966D01*
X1328607Y-26761498D01*
X1328596Y-26761507D01*
X1161507Y-26928596D01*
X1161502Y-26928602D01*
X1025965Y-27122169D01*
X926098Y-27336334D01*
X926096Y-27336338D01*
X864937Y-27564588D01*
X844341Y-27800000D01*
X500Y-27800000D01*
X500Y-8100000D01*
X8086496Y-8100000D01*
X8106457Y-8289927D01*
X8136526Y-8382470D01*
X8165473Y-8471556D01*
X8165476Y-8471561D01*
X8260958Y-8636941D01*
X8260965Y-8636951D01*
X8388744Y-8778864D01*
X8388747Y-8778866D01*
X8543248Y-8891118D01*
X8717712Y-8968794D01*
X8904513Y-9008500D01*
X9095487Y-9008500D01*
X9282288Y-8968794D01*
X9456752Y-8891118D01*
X9611253Y-8778866D01*
X9614563Y-8775190D01*
X9675009Y-8737950D01*
X9708200Y-8733500D01*
X9964059Y-8733500D01*
X10032180Y-8753502D01*
X10078673Y-8807158D01*
X10089368Y-8872669D01*
X10087430Y-8891117D01*
X10086496Y-8900000D01*
X10106457Y-9089927D01*
X10136526Y-9182470D01*
X10165473Y-9271556D01*
X10165476Y-9271561D01*
X10260958Y-9436941D01*
X10260965Y-9436951D01*
X10388744Y-9578864D01*
X10388747Y-9578866D01*
X10543248Y-9691118D01*
X10717712Y-9768794D01*
X10904513Y-9808500D01*
X11095487Y-9808500D01*
X11282288Y-9768794D01*
X11456752Y-9691118D01*
X11611253Y-9578866D01*
X11614563Y-9575190D01*
X11675009Y-9537950D01*
X11708200Y-9533500D01*
X12891800Y-9533500D01*
X12959921Y-9553502D01*
X12985437Y-9575190D01*
X12988747Y-9578866D01*
X13143248Y-9691118D01*
X13317712Y-9768794D01*
X13504513Y-9808500D01*
X13695487Y-9808500D01*
X13882288Y-9768794D01*
X14056752Y-9691118D01*
X14211253Y-9578866D01*
X14339040Y-9436944D01*
X14434527Y-9271556D01*
X14493542Y-9089928D01*
X14513504Y-8900000D01*
X14493542Y-8710072D01*
X14434527Y-8528444D01*
X14339040Y-8363056D01*
X14339038Y-8363054D01*
X14339034Y-8363048D01*
X14211255Y-8221135D01*
X14056752Y-8108882D01*
X13882288Y-8031206D01*
X13695487Y-7991500D01*
X13646544Y-7991500D01*
X13578423Y-7971498D01*
X13531930Y-7917842D01*
X13526711Y-7904437D01*
X13469527Y-7728444D01*
X13374040Y-7563056D01*
X13374038Y-7563054D01*
X13374034Y-7563048D01*
X13246255Y-7421135D01*
X13091752Y-7308882D01*
X12917288Y-7231206D01*
X12730487Y-7191500D01*
X12539513Y-7191500D01*
X12352711Y-7231206D01*
X12178247Y-7308882D01*
X12023747Y-7421133D01*
X12020437Y-7424810D01*
X11959991Y-7462050D01*
X11926800Y-7466500D01*
X9708200Y-7466500D01*
X9640079Y-7446498D01*
X9614563Y-7424810D01*
X9611252Y-7421133D01*
X9456752Y-7308882D01*
X9282288Y-7231206D01*
X9095487Y-7191500D01*
X8904513Y-7191500D01*
X8717711Y-7231206D01*
X8543247Y-7308882D01*
X8388744Y-7421135D01*
X8260965Y-7563048D01*
X8260958Y-7563058D01*
X8165476Y-7728438D01*
X8165473Y-7728445D01*
X8106457Y-7910072D01*
X8086496Y-8100000D01*
X500Y-8100000D01*
X500Y-2200000D01*
X844341Y-2200000D01*
X864937Y-2435411D01*
X926096Y-2663661D01*
X926098Y-2663665D01*
X1025966Y-2877832D01*
X1161498Y-3071392D01*
X1161502Y-3071397D01*
X1161505Y-3071401D01*
X1328599Y-3238495D01*
X1328603Y-3238498D01*
X1328607Y-3238501D01*
X1522167Y-3374033D01*
X1522166Y-3374033D01*
X1598304Y-3409537D01*
X1736337Y-3473903D01*
X1964592Y-3535063D01*
X2141034Y-3550500D01*
X2141041Y-3550500D01*
X2258959Y-3550500D01*
X2258966Y-3550500D01*
X2435408Y-3535063D01*
X2663663Y-3473903D01*
X2877829Y-3374035D01*
X3071401Y-3238495D01*
X3238495Y-3071401D01*
X3374035Y-2877830D01*
X3473903Y-2663663D01*
X3535063Y-2435408D01*
X3555659Y-2200000D01*
X31444341Y-2200000D01*
X31464937Y-2435411D01*
X31526096Y-2663661D01*
X31526098Y-2663665D01*
X31625966Y-2877832D01*
X31761498Y-3071392D01*
X31761502Y-3071397D01*
X31761505Y-3071401D01*
X31928599Y-3238495D01*
X31928603Y-3238498D01*
X31928607Y-3238501D01*
X32122167Y-3374033D01*
X32122166Y-3374033D01*
X32198304Y-3409537D01*
X32336337Y-3473903D01*
X32564592Y-3535063D01*
X32741034Y-3550500D01*
X32741041Y-3550500D01*
X32858959Y-3550500D01*
X32858966Y-3550500D01*
X33035408Y-3535063D01*
X33263663Y-3473903D01*
X33477829Y-3374035D01*
X33671401Y-3238495D01*
X33838495Y-3071401D01*
X33974035Y-2877830D01*
X34073903Y-2663663D01*
X34135063Y-2435408D01*
X34155659Y-2200000D01*
X34135063Y-1964592D01*
X34073903Y-1736337D01*
X33974035Y-1522171D01*
X33974034Y-1522169D01*
X33974033Y-1522167D01*
X33838501Y-1328607D01*
X33838497Y-1328602D01*
X33838495Y-1328599D01*
X33671401Y-1161505D01*
X33671397Y-1161502D01*
X33671392Y-1161498D01*
X33477832Y-1025966D01*
X33477833Y-1025966D01*
X33263665Y-926098D01*
X33263661Y-926096D01*
X33035411Y-864937D01*
X32982475Y-860305D01*
X32858966Y-849500D01*
X32741034Y-849500D01*
X32628752Y-859323D01*
X32564588Y-864937D01*
X32336338Y-926096D01*
X32336334Y-926098D01*
X32122167Y-1025966D01*
X31928607Y-1161498D01*
X31928596Y-1161507D01*
X31761507Y-1328596D01*
X31761502Y-1328602D01*
X31625965Y-1522169D01*
X31526098Y-1736334D01*
X31526096Y-1736338D01*
X31464937Y-1964588D01*
X31444341Y-2200000D01*
X3555659Y-2200000D01*
X3535063Y-1964592D01*
X3473903Y-1736337D01*
X3374035Y-1522171D01*
X3374034Y-1522169D01*
X3374033Y-1522167D01*
X3238501Y-1328607D01*
X3238497Y-1328602D01*
X3238495Y-1328599D01*
X3071401Y-1161505D01*
X3071397Y-1161502D01*
X3071392Y-1161498D01*
X2877832Y-1025966D01*
X2877833Y-1025966D01*
X2663665Y-926098D01*
X2663661Y-926096D01*
X2435411Y-864937D01*
X2382475Y-860305D01*
X2258966Y-849500D01*
X2141034Y-849500D01*
X2028752Y-859323D01*
X1964588Y-864937D01*
X1736338Y-926096D01*
X1736334Y-926098D01*
X1522167Y-1025966D01*
X1328607Y-1161498D01*
X1328596Y-1161507D01*
X1161507Y-1328596D01*
X1161502Y-1328602D01*
X1025965Y-1522169D01*
X926098Y-1736334D01*
X926096Y-1736338D01*
X864937Y-1964588D01*
X844341Y-2200000D01*
X500Y-2200000D01*
X500Y-1005506D01*
X979Y-994526D01*
X4422Y-955167D01*
X4543Y-953874D01*
X16902Y-828391D01*
X20583Y-808156D01*
X37895Y-743548D01*
X38971Y-739780D01*
X66643Y-648558D01*
X73010Y-631916D01*
X103665Y-566176D01*
X106709Y-560088D01*
X148958Y-481046D01*
X156848Y-468201D01*
X199597Y-407149D01*
X205380Y-399527D01*
X261131Y-331594D01*
X269398Y-322474D01*
X322474Y-269398D01*
X331594Y-261131D01*
X399527Y-205380D01*
X407149Y-199597D01*
X468201Y-156848D01*
X481046Y-148958D01*
X560088Y-106709D01*
X566176Y-103665D01*
X631916Y-73010D01*
X648558Y-66643D01*
X739780Y-38971D01*
X743548Y-37895D01*
X808156Y-20583D01*
X828391Y-16902D01*
X953929Y-4537D01*
X955078Y-4430D01*
X984529Y-1853D01*
X994527Y-979D01*
X1005507Y-500D01*
X33994493Y-500D01*
X34005474Y-979D01*
G37*
%TD.AperFunction*%
%TD*%
M02*
