%TF.GenerationSoftware,KiCad,Pcbnew,7.0.11-7.0.11~ubuntu22.04.1*%
%TF.CreationDate,2024-06-13T22:21:10+02:00*%
%TF.ProjectId,schneggi_sensor_kicad7,7363686e-6567-4676-995f-73656e736f72,rev?*%
%TF.SameCoordinates,Original*%
%TF.FileFunction,Legend,Bot*%
%TF.FilePolarity,Positive*%
%FSLAX46Y46*%
G04 Gerber Fmt 4.6, Leading zero omitted, Abs format (unit mm)*
G04 Created by KiCad (PCBNEW 7.0.11-7.0.11~ubuntu22.04.1) date 2024-06-13 22:21:10*
%MOMM*%
%LPD*%
G01*
G04 APERTURE LIST*
%ADD10C,0.150000*%
%ADD11C,2.200000*%
G04 APERTURE END LIST*
D10*
X7998683Y-24878152D02*
X7760588Y-25544819D01*
X7760588Y-25544819D02*
X7522493Y-24878152D01*
X6617731Y-25544819D02*
X7189159Y-25544819D01*
X6903445Y-25544819D02*
X6903445Y-24544819D01*
X6903445Y-24544819D02*
X6998683Y-24687676D01*
X6998683Y-24687676D02*
X7093921Y-24782914D01*
X7093921Y-24782914D02*
X7189159Y-24830533D01*
X6189159Y-25449580D02*
X6141540Y-25497200D01*
X6141540Y-25497200D02*
X6189159Y-25544819D01*
X6189159Y-25544819D02*
X6236778Y-25497200D01*
X6236778Y-25497200D02*
X6189159Y-25449580D01*
X6189159Y-25449580D02*
X6189159Y-25544819D01*
X5522493Y-24544819D02*
X5427255Y-24544819D01*
X5427255Y-24544819D02*
X5332017Y-24592438D01*
X5332017Y-24592438D02*
X5284398Y-24640057D01*
X5284398Y-24640057D02*
X5236779Y-24735295D01*
X5236779Y-24735295D02*
X5189160Y-24925771D01*
X5189160Y-24925771D02*
X5189160Y-25163866D01*
X5189160Y-25163866D02*
X5236779Y-25354342D01*
X5236779Y-25354342D02*
X5284398Y-25449580D01*
X5284398Y-25449580D02*
X5332017Y-25497200D01*
X5332017Y-25497200D02*
X5427255Y-25544819D01*
X5427255Y-25544819D02*
X5522493Y-25544819D01*
X5522493Y-25544819D02*
X5617731Y-25497200D01*
X5617731Y-25497200D02*
X5665350Y-25449580D01*
X5665350Y-25449580D02*
X5712969Y-25354342D01*
X5712969Y-25354342D02*
X5760588Y-25163866D01*
X5760588Y-25163866D02*
X5760588Y-24925771D01*
X5760588Y-24925771D02*
X5712969Y-24735295D01*
X5712969Y-24735295D02*
X5665350Y-24640057D01*
X5665350Y-24640057D02*
X5617731Y-24592438D01*
X5617731Y-24592438D02*
X5522493Y-24544819D01*
X11332017Y-26154819D02*
X11236779Y-26154819D01*
X11236779Y-26154819D02*
X11141541Y-26202438D01*
X11141541Y-26202438D02*
X11093922Y-26250057D01*
X11093922Y-26250057D02*
X11046303Y-26345295D01*
X11046303Y-26345295D02*
X10998684Y-26535771D01*
X10998684Y-26535771D02*
X10998684Y-26773866D01*
X10998684Y-26773866D02*
X11046303Y-26964342D01*
X11046303Y-26964342D02*
X11093922Y-27059580D01*
X11093922Y-27059580D02*
X11141541Y-27107200D01*
X11141541Y-27107200D02*
X11236779Y-27154819D01*
X11236779Y-27154819D02*
X11332017Y-27154819D01*
X11332017Y-27154819D02*
X11427255Y-27107200D01*
X11427255Y-27107200D02*
X11474874Y-27059580D01*
X11474874Y-27059580D02*
X11522493Y-26964342D01*
X11522493Y-26964342D02*
X11570112Y-26773866D01*
X11570112Y-26773866D02*
X11570112Y-26535771D01*
X11570112Y-26535771D02*
X11522493Y-26345295D01*
X11522493Y-26345295D02*
X11474874Y-26250057D01*
X11474874Y-26250057D02*
X11427255Y-26202438D01*
X11427255Y-26202438D02*
X11332017Y-26154819D01*
X10141541Y-26154819D02*
X10332017Y-26154819D01*
X10332017Y-26154819D02*
X10427255Y-26202438D01*
X10427255Y-26202438D02*
X10474874Y-26250057D01*
X10474874Y-26250057D02*
X10570112Y-26392914D01*
X10570112Y-26392914D02*
X10617731Y-26583390D01*
X10617731Y-26583390D02*
X10617731Y-26964342D01*
X10617731Y-26964342D02*
X10570112Y-27059580D01*
X10570112Y-27059580D02*
X10522493Y-27107200D01*
X10522493Y-27107200D02*
X10427255Y-27154819D01*
X10427255Y-27154819D02*
X10236779Y-27154819D01*
X10236779Y-27154819D02*
X10141541Y-27107200D01*
X10141541Y-27107200D02*
X10093922Y-27059580D01*
X10093922Y-27059580D02*
X10046303Y-26964342D01*
X10046303Y-26964342D02*
X10046303Y-26726247D01*
X10046303Y-26726247D02*
X10093922Y-26631009D01*
X10093922Y-26631009D02*
X10141541Y-26583390D01*
X10141541Y-26583390D02*
X10236779Y-26535771D01*
X10236779Y-26535771D02*
X10427255Y-26535771D01*
X10427255Y-26535771D02*
X10522493Y-26583390D01*
X10522493Y-26583390D02*
X10570112Y-26631009D01*
X10570112Y-26631009D02*
X10617731Y-26726247D01*
X8903446Y-26107200D02*
X9760588Y-27392914D01*
X8617731Y-26250057D02*
X8570112Y-26202438D01*
X8570112Y-26202438D02*
X8474874Y-26154819D01*
X8474874Y-26154819D02*
X8236779Y-26154819D01*
X8236779Y-26154819D02*
X8141541Y-26202438D01*
X8141541Y-26202438D02*
X8093922Y-26250057D01*
X8093922Y-26250057D02*
X8046303Y-26345295D01*
X8046303Y-26345295D02*
X8046303Y-26440533D01*
X8046303Y-26440533D02*
X8093922Y-26583390D01*
X8093922Y-26583390D02*
X8665350Y-27154819D01*
X8665350Y-27154819D02*
X8046303Y-27154819D01*
X7427255Y-26154819D02*
X7332017Y-26154819D01*
X7332017Y-26154819D02*
X7236779Y-26202438D01*
X7236779Y-26202438D02*
X7189160Y-26250057D01*
X7189160Y-26250057D02*
X7141541Y-26345295D01*
X7141541Y-26345295D02*
X7093922Y-26535771D01*
X7093922Y-26535771D02*
X7093922Y-26773866D01*
X7093922Y-26773866D02*
X7141541Y-26964342D01*
X7141541Y-26964342D02*
X7189160Y-27059580D01*
X7189160Y-27059580D02*
X7236779Y-27107200D01*
X7236779Y-27107200D02*
X7332017Y-27154819D01*
X7332017Y-27154819D02*
X7427255Y-27154819D01*
X7427255Y-27154819D02*
X7522493Y-27107200D01*
X7522493Y-27107200D02*
X7570112Y-27059580D01*
X7570112Y-27059580D02*
X7617731Y-26964342D01*
X7617731Y-26964342D02*
X7665350Y-26773866D01*
X7665350Y-26773866D02*
X7665350Y-26535771D01*
X7665350Y-26535771D02*
X7617731Y-26345295D01*
X7617731Y-26345295D02*
X7570112Y-26250057D01*
X7570112Y-26250057D02*
X7522493Y-26202438D01*
X7522493Y-26202438D02*
X7427255Y-26154819D01*
X6712969Y-26250057D02*
X6665350Y-26202438D01*
X6665350Y-26202438D02*
X6570112Y-26154819D01*
X6570112Y-26154819D02*
X6332017Y-26154819D01*
X6332017Y-26154819D02*
X6236779Y-26202438D01*
X6236779Y-26202438D02*
X6189160Y-26250057D01*
X6189160Y-26250057D02*
X6141541Y-26345295D01*
X6141541Y-26345295D02*
X6141541Y-26440533D01*
X6141541Y-26440533D02*
X6189160Y-26583390D01*
X6189160Y-26583390D02*
X6760588Y-27154819D01*
X6760588Y-27154819D02*
X6141541Y-27154819D01*
X5284398Y-26488152D02*
X5284398Y-27154819D01*
X5522493Y-26107200D02*
X5760588Y-26821485D01*
X5760588Y-26821485D02*
X5141541Y-26821485D01*
X16379637Y-28764819D02*
X16379637Y-27764819D01*
X16379637Y-27764819D02*
X16046304Y-28479104D01*
X16046304Y-28479104D02*
X15712971Y-27764819D01*
X15712971Y-27764819D02*
X15712971Y-28764819D01*
X15236780Y-28764819D02*
X15236780Y-28098152D01*
X15236780Y-27764819D02*
X15284399Y-27812438D01*
X15284399Y-27812438D02*
X15236780Y-27860057D01*
X15236780Y-27860057D02*
X15189161Y-27812438D01*
X15189161Y-27812438D02*
X15236780Y-27764819D01*
X15236780Y-27764819D02*
X15236780Y-27860057D01*
X14332019Y-28717200D02*
X14427257Y-28764819D01*
X14427257Y-28764819D02*
X14617733Y-28764819D01*
X14617733Y-28764819D02*
X14712971Y-28717200D01*
X14712971Y-28717200D02*
X14760590Y-28669580D01*
X14760590Y-28669580D02*
X14808209Y-28574342D01*
X14808209Y-28574342D02*
X14808209Y-28288628D01*
X14808209Y-28288628D02*
X14760590Y-28193390D01*
X14760590Y-28193390D02*
X14712971Y-28145771D01*
X14712971Y-28145771D02*
X14617733Y-28098152D01*
X14617733Y-28098152D02*
X14427257Y-28098152D01*
X14427257Y-28098152D02*
X14332019Y-28145771D01*
X13903447Y-28764819D02*
X13903447Y-27764819D01*
X13474876Y-28764819D02*
X13474876Y-28241009D01*
X13474876Y-28241009D02*
X13522495Y-28145771D01*
X13522495Y-28145771D02*
X13617733Y-28098152D01*
X13617733Y-28098152D02*
X13760590Y-28098152D01*
X13760590Y-28098152D02*
X13855828Y-28145771D01*
X13855828Y-28145771D02*
X13903447Y-28193390D01*
X12570114Y-28764819D02*
X12570114Y-28241009D01*
X12570114Y-28241009D02*
X12617733Y-28145771D01*
X12617733Y-28145771D02*
X12712971Y-28098152D01*
X12712971Y-28098152D02*
X12903447Y-28098152D01*
X12903447Y-28098152D02*
X12998685Y-28145771D01*
X12570114Y-28717200D02*
X12665352Y-28764819D01*
X12665352Y-28764819D02*
X12903447Y-28764819D01*
X12903447Y-28764819D02*
X12998685Y-28717200D01*
X12998685Y-28717200D02*
X13046304Y-28621961D01*
X13046304Y-28621961D02*
X13046304Y-28526723D01*
X13046304Y-28526723D02*
X12998685Y-28431485D01*
X12998685Y-28431485D02*
X12903447Y-28383866D01*
X12903447Y-28383866D02*
X12665352Y-28383866D01*
X12665352Y-28383866D02*
X12570114Y-28336247D01*
X11712971Y-28717200D02*
X11808209Y-28764819D01*
X11808209Y-28764819D02*
X11998685Y-28764819D01*
X11998685Y-28764819D02*
X12093923Y-28717200D01*
X12093923Y-28717200D02*
X12141542Y-28621961D01*
X12141542Y-28621961D02*
X12141542Y-28241009D01*
X12141542Y-28241009D02*
X12093923Y-28145771D01*
X12093923Y-28145771D02*
X11998685Y-28098152D01*
X11998685Y-28098152D02*
X11808209Y-28098152D01*
X11808209Y-28098152D02*
X11712971Y-28145771D01*
X11712971Y-28145771D02*
X11665352Y-28241009D01*
X11665352Y-28241009D02*
X11665352Y-28336247D01*
X11665352Y-28336247D02*
X12141542Y-28431485D01*
X11093923Y-28764819D02*
X11189161Y-28717200D01*
X11189161Y-28717200D02*
X11236780Y-28621961D01*
X11236780Y-28621961D02*
X11236780Y-27764819D01*
X9379637Y-28764819D02*
X9712970Y-28288628D01*
X9951065Y-28764819D02*
X9951065Y-27764819D01*
X9951065Y-27764819D02*
X9570113Y-27764819D01*
X9570113Y-27764819D02*
X9474875Y-27812438D01*
X9474875Y-27812438D02*
X9427256Y-27860057D01*
X9427256Y-27860057D02*
X9379637Y-27955295D01*
X9379637Y-27955295D02*
X9379637Y-28098152D01*
X9379637Y-28098152D02*
X9427256Y-28193390D01*
X9427256Y-28193390D02*
X9474875Y-28241009D01*
X9474875Y-28241009D02*
X9570113Y-28288628D01*
X9570113Y-28288628D02*
X9951065Y-28288628D01*
X8808208Y-28764819D02*
X8903446Y-28717200D01*
X8903446Y-28717200D02*
X8951065Y-28669580D01*
X8951065Y-28669580D02*
X8998684Y-28574342D01*
X8998684Y-28574342D02*
X8998684Y-28288628D01*
X8998684Y-28288628D02*
X8951065Y-28193390D01*
X8951065Y-28193390D02*
X8903446Y-28145771D01*
X8903446Y-28145771D02*
X8808208Y-28098152D01*
X8808208Y-28098152D02*
X8665351Y-28098152D01*
X8665351Y-28098152D02*
X8570113Y-28145771D01*
X8570113Y-28145771D02*
X8522494Y-28193390D01*
X8522494Y-28193390D02*
X8474875Y-28288628D01*
X8474875Y-28288628D02*
X8474875Y-28574342D01*
X8474875Y-28574342D02*
X8522494Y-28669580D01*
X8522494Y-28669580D02*
X8570113Y-28717200D01*
X8570113Y-28717200D02*
X8665351Y-28764819D01*
X8665351Y-28764819D02*
X8808208Y-28764819D01*
X7617732Y-28098152D02*
X7617732Y-28907676D01*
X7617732Y-28907676D02*
X7665351Y-29002914D01*
X7665351Y-29002914D02*
X7712970Y-29050533D01*
X7712970Y-29050533D02*
X7808208Y-29098152D01*
X7808208Y-29098152D02*
X7951065Y-29098152D01*
X7951065Y-29098152D02*
X8046303Y-29050533D01*
X7617732Y-28717200D02*
X7712970Y-28764819D01*
X7712970Y-28764819D02*
X7903446Y-28764819D01*
X7903446Y-28764819D02*
X7998684Y-28717200D01*
X7998684Y-28717200D02*
X8046303Y-28669580D01*
X8046303Y-28669580D02*
X8093922Y-28574342D01*
X8093922Y-28574342D02*
X8093922Y-28288628D01*
X8093922Y-28288628D02*
X8046303Y-28193390D01*
X8046303Y-28193390D02*
X7998684Y-28145771D01*
X7998684Y-28145771D02*
X7903446Y-28098152D01*
X7903446Y-28098152D02*
X7712970Y-28098152D01*
X7712970Y-28098152D02*
X7617732Y-28145771D01*
X6712970Y-28098152D02*
X6712970Y-28907676D01*
X6712970Y-28907676D02*
X6760589Y-29002914D01*
X6760589Y-29002914D02*
X6808208Y-29050533D01*
X6808208Y-29050533D02*
X6903446Y-29098152D01*
X6903446Y-29098152D02*
X7046303Y-29098152D01*
X7046303Y-29098152D02*
X7141541Y-29050533D01*
X6712970Y-28717200D02*
X6808208Y-28764819D01*
X6808208Y-28764819D02*
X6998684Y-28764819D01*
X6998684Y-28764819D02*
X7093922Y-28717200D01*
X7093922Y-28717200D02*
X7141541Y-28669580D01*
X7141541Y-28669580D02*
X7189160Y-28574342D01*
X7189160Y-28574342D02*
X7189160Y-28288628D01*
X7189160Y-28288628D02*
X7141541Y-28193390D01*
X7141541Y-28193390D02*
X7093922Y-28145771D01*
X7093922Y-28145771D02*
X6998684Y-28098152D01*
X6998684Y-28098152D02*
X6808208Y-28098152D01*
X6808208Y-28098152D02*
X6712970Y-28145771D01*
X5855827Y-28717200D02*
X5951065Y-28764819D01*
X5951065Y-28764819D02*
X6141541Y-28764819D01*
X6141541Y-28764819D02*
X6236779Y-28717200D01*
X6236779Y-28717200D02*
X6284398Y-28621961D01*
X6284398Y-28621961D02*
X6284398Y-28241009D01*
X6284398Y-28241009D02*
X6236779Y-28145771D01*
X6236779Y-28145771D02*
X6141541Y-28098152D01*
X6141541Y-28098152D02*
X5951065Y-28098152D01*
X5951065Y-28098152D02*
X5855827Y-28145771D01*
X5855827Y-28145771D02*
X5808208Y-28241009D01*
X5808208Y-28241009D02*
X5808208Y-28336247D01*
X5808208Y-28336247D02*
X6284398Y-28431485D01*
X5379636Y-28764819D02*
X5379636Y-28098152D01*
X5379636Y-28288628D02*
X5332017Y-28193390D01*
X5332017Y-28193390D02*
X5284398Y-28145771D01*
X5284398Y-28145771D02*
X5189160Y-28098152D01*
X5189160Y-28098152D02*
X5093922Y-28098152D01*
%LPC*%
D11*
%TO.C,H1*%
X2200000Y-2200000D03*
%TD*%
%TO.C,H4*%
X2200000Y-27800000D03*
%TD*%
%TO.C,H2*%
X32800000Y-2200000D03*
%TD*%
%TO.C,H3*%
X32800000Y-27800000D03*
%TD*%
%LPD*%
M02*
