%TF.GenerationSoftware,KiCad,Pcbnew,7.0.11-7.0.11~ubuntu22.04.1*%
%TF.CreationDate,2024-06-13T22:21:10+02:00*%
%TF.ProjectId,schneggi_sensor_kicad7,7363686e-6567-4676-995f-73656e736f72,rev?*%
%TF.SameCoordinates,Original*%
%TF.FileFunction,Legend,Top*%
%TF.FilePolarity,Positive*%
%FSLAX46Y46*%
G04 Gerber Fmt 4.6, Leading zero omitted, Abs format (unit mm)*
G04 Created by KiCad (PCBNEW 7.0.11-7.0.11~ubuntu22.04.1) date 2024-06-13 22:21:10*
%MOMM*%
%LPD*%
G01*
G04 APERTURE LIST*
G04 Aperture macros list*
%AMRoundRect*
0 Rectangle with rounded corners*
0 $1 Rounding radius*
0 $2 $3 $4 $5 $6 $7 $8 $9 X,Y pos of 4 corners*
0 Add a 4 corners polygon primitive as box body*
4,1,4,$2,$3,$4,$5,$6,$7,$8,$9,$2,$3,0*
0 Add four circle primitives for the rounded corners*
1,1,$1+$1,$2,$3*
1,1,$1+$1,$4,$5*
1,1,$1+$1,$6,$7*
1,1,$1+$1,$8,$9*
0 Add four rect primitives between the rounded corners*
20,1,$1+$1,$2,$3,$4,$5,0*
20,1,$1+$1,$4,$5,$6,$7,0*
20,1,$1+$1,$6,$7,$8,$9,0*
20,1,$1+$1,$8,$9,$2,$3,0*%
%AMFreePoly0*
4,1,6,1.000000,0.000000,0.500000,-0.750000,-0.500000,-0.750000,-0.500000,0.750000,0.500000,0.750000,1.000000,0.000000,1.000000,0.000000,$1*%
%AMFreePoly1*
4,1,6,0.500000,-0.750000,-0.650000,-0.750000,-0.150000,0.000000,-0.650000,0.750000,0.500000,0.750000,0.500000,-0.750000,0.500000,-0.750000,$1*%
G04 Aperture macros list end*
%ADD10C,0.150000*%
%ADD11C,0.120000*%
%ADD12C,0.250000*%
%ADD13C,0.400000*%
%ADD14RoundRect,0.200000X0.200000X0.275000X-0.200000X0.275000X-0.200000X-0.275000X0.200000X-0.275000X0*%
%ADD15C,2.200000*%
%ADD16FreePoly0,180.000000*%
%ADD17FreePoly1,180.000000*%
%ADD18R,2.200000X0.800000*%
%ADD19R,0.800000X2.200000*%
%ADD20R,4.800000X4.800000*%
%ADD21R,0.600000X1.550000*%
%ADD22R,1.200000X1.800000*%
G04 APERTURE END LIST*
D10*
X6154819Y-3676189D02*
X5154819Y-3676189D01*
X5250057Y-3247618D02*
X5202438Y-3199999D01*
X5202438Y-3199999D02*
X5154819Y-3104761D01*
X5154819Y-3104761D02*
X5154819Y-2866666D01*
X5154819Y-2866666D02*
X5202438Y-2771428D01*
X5202438Y-2771428D02*
X5250057Y-2723809D01*
X5250057Y-2723809D02*
X5345295Y-2676190D01*
X5345295Y-2676190D02*
X5440533Y-2676190D01*
X5440533Y-2676190D02*
X5583390Y-2723809D01*
X5583390Y-2723809D02*
X6154819Y-3295237D01*
X6154819Y-3295237D02*
X6154819Y-2676190D01*
X6059580Y-1676190D02*
X6107200Y-1723809D01*
X6107200Y-1723809D02*
X6154819Y-1866666D01*
X6154819Y-1866666D02*
X6154819Y-1961904D01*
X6154819Y-1961904D02*
X6107200Y-2104761D01*
X6107200Y-2104761D02*
X6011961Y-2199999D01*
X6011961Y-2199999D02*
X5916723Y-2247618D01*
X5916723Y-2247618D02*
X5726247Y-2295237D01*
X5726247Y-2295237D02*
X5583390Y-2295237D01*
X5583390Y-2295237D02*
X5392914Y-2247618D01*
X5392914Y-2247618D02*
X5297676Y-2199999D01*
X5297676Y-2199999D02*
X5202438Y-2104761D01*
X5202438Y-2104761D02*
X5154819Y-1961904D01*
X5154819Y-1961904D02*
X5154819Y-1866666D01*
X5154819Y-1866666D02*
X5202438Y-1723809D01*
X5202438Y-1723809D02*
X5250057Y-1676190D01*
X3433333Y-15384819D02*
X3100000Y-14908628D01*
X2861905Y-15384819D02*
X2861905Y-14384819D01*
X2861905Y-14384819D02*
X3242857Y-14384819D01*
X3242857Y-14384819D02*
X3338095Y-14432438D01*
X3338095Y-14432438D02*
X3385714Y-14480057D01*
X3385714Y-14480057D02*
X3433333Y-14575295D01*
X3433333Y-14575295D02*
X3433333Y-14718152D01*
X3433333Y-14718152D02*
X3385714Y-14813390D01*
X3385714Y-14813390D02*
X3338095Y-14861009D01*
X3338095Y-14861009D02*
X3242857Y-14908628D01*
X3242857Y-14908628D02*
X2861905Y-14908628D01*
X3814286Y-14480057D02*
X3861905Y-14432438D01*
X3861905Y-14432438D02*
X3957143Y-14384819D01*
X3957143Y-14384819D02*
X4195238Y-14384819D01*
X4195238Y-14384819D02*
X4290476Y-14432438D01*
X4290476Y-14432438D02*
X4338095Y-14480057D01*
X4338095Y-14480057D02*
X4385714Y-14575295D01*
X4385714Y-14575295D02*
X4385714Y-14670533D01*
X4385714Y-14670533D02*
X4338095Y-14813390D01*
X4338095Y-14813390D02*
X3766667Y-15384819D01*
X3766667Y-15384819D02*
X4385714Y-15384819D01*
X3433333Y-12284819D02*
X3100000Y-11808628D01*
X2861905Y-12284819D02*
X2861905Y-11284819D01*
X2861905Y-11284819D02*
X3242857Y-11284819D01*
X3242857Y-11284819D02*
X3338095Y-11332438D01*
X3338095Y-11332438D02*
X3385714Y-11380057D01*
X3385714Y-11380057D02*
X3433333Y-11475295D01*
X3433333Y-11475295D02*
X3433333Y-11618152D01*
X3433333Y-11618152D02*
X3385714Y-11713390D01*
X3385714Y-11713390D02*
X3338095Y-11761009D01*
X3338095Y-11761009D02*
X3242857Y-11808628D01*
X3242857Y-11808628D02*
X2861905Y-11808628D01*
X4385714Y-12284819D02*
X3814286Y-12284819D01*
X4100000Y-12284819D02*
X4100000Y-11284819D01*
X4100000Y-11284819D02*
X4004762Y-11427676D01*
X4004762Y-11427676D02*
X3909524Y-11522914D01*
X3909524Y-11522914D02*
X3814286Y-11570533D01*
X6366666Y-15054819D02*
X6366666Y-15769104D01*
X6366666Y-15769104D02*
X6319047Y-15911961D01*
X6319047Y-15911961D02*
X6223809Y-16007200D01*
X6223809Y-16007200D02*
X6080952Y-16054819D01*
X6080952Y-16054819D02*
X5985714Y-16054819D01*
X6842857Y-16054819D02*
X6842857Y-15054819D01*
X6842857Y-15054819D02*
X7223809Y-15054819D01*
X7223809Y-15054819D02*
X7319047Y-15102438D01*
X7319047Y-15102438D02*
X7366666Y-15150057D01*
X7366666Y-15150057D02*
X7414285Y-15245295D01*
X7414285Y-15245295D02*
X7414285Y-15388152D01*
X7414285Y-15388152D02*
X7366666Y-15483390D01*
X7366666Y-15483390D02*
X7319047Y-15531009D01*
X7319047Y-15531009D02*
X7223809Y-15578628D01*
X7223809Y-15578628D02*
X6842857Y-15578628D01*
X7795238Y-15150057D02*
X7842857Y-15102438D01*
X7842857Y-15102438D02*
X7938095Y-15054819D01*
X7938095Y-15054819D02*
X8176190Y-15054819D01*
X8176190Y-15054819D02*
X8271428Y-15102438D01*
X8271428Y-15102438D02*
X8319047Y-15150057D01*
X8319047Y-15150057D02*
X8366666Y-15245295D01*
X8366666Y-15245295D02*
X8366666Y-15340533D01*
X8366666Y-15340533D02*
X8319047Y-15483390D01*
X8319047Y-15483390D02*
X7747619Y-16054819D01*
X7747619Y-16054819D02*
X8366666Y-16054819D01*
X9109523Y-2759580D02*
X9061904Y-2807200D01*
X9061904Y-2807200D02*
X8919047Y-2854819D01*
X8919047Y-2854819D02*
X8823809Y-2854819D01*
X8823809Y-2854819D02*
X8680952Y-2807200D01*
X8680952Y-2807200D02*
X8585714Y-2711961D01*
X8585714Y-2711961D02*
X8538095Y-2616723D01*
X8538095Y-2616723D02*
X8490476Y-2426247D01*
X8490476Y-2426247D02*
X8490476Y-2283390D01*
X8490476Y-2283390D02*
X8538095Y-2092914D01*
X8538095Y-2092914D02*
X8585714Y-1997676D01*
X8585714Y-1997676D02*
X8680952Y-1902438D01*
X8680952Y-1902438D02*
X8823809Y-1854819D01*
X8823809Y-1854819D02*
X8919047Y-1854819D01*
X8919047Y-1854819D02*
X9061904Y-1902438D01*
X9061904Y-1902438D02*
X9109523Y-1950057D01*
X9538095Y-2854819D02*
X9538095Y-1854819D01*
X9538095Y-1854819D02*
X10109523Y-2854819D01*
X10109523Y-2854819D02*
X10109523Y-1854819D01*
X10538095Y-1950057D02*
X10585714Y-1902438D01*
X10585714Y-1902438D02*
X10680952Y-1854819D01*
X10680952Y-1854819D02*
X10919047Y-1854819D01*
X10919047Y-1854819D02*
X11014285Y-1902438D01*
X11014285Y-1902438D02*
X11061904Y-1950057D01*
X11061904Y-1950057D02*
X11109523Y-2045295D01*
X11109523Y-2045295D02*
X11109523Y-2140533D01*
X11109523Y-2140533D02*
X11061904Y-2283390D01*
X11061904Y-2283390D02*
X10490476Y-2854819D01*
X10490476Y-2854819D02*
X11109523Y-2854819D01*
X6366666Y-7854819D02*
X6366666Y-8569104D01*
X6366666Y-8569104D02*
X6319047Y-8711961D01*
X6319047Y-8711961D02*
X6223809Y-8807200D01*
X6223809Y-8807200D02*
X6080952Y-8854819D01*
X6080952Y-8854819D02*
X5985714Y-8854819D01*
X6842857Y-8854819D02*
X6842857Y-7854819D01*
X6842857Y-7854819D02*
X7223809Y-7854819D01*
X7223809Y-7854819D02*
X7319047Y-7902438D01*
X7319047Y-7902438D02*
X7366666Y-7950057D01*
X7366666Y-7950057D02*
X7414285Y-8045295D01*
X7414285Y-8045295D02*
X7414285Y-8188152D01*
X7414285Y-8188152D02*
X7366666Y-8283390D01*
X7366666Y-8283390D02*
X7319047Y-8331009D01*
X7319047Y-8331009D02*
X7223809Y-8378628D01*
X7223809Y-8378628D02*
X6842857Y-8378628D01*
X8366666Y-8854819D02*
X7795238Y-8854819D01*
X8080952Y-8854819D02*
X8080952Y-7854819D01*
X8080952Y-7854819D02*
X7985714Y-7997676D01*
X7985714Y-7997676D02*
X7890476Y-8092914D01*
X7890476Y-8092914D02*
X7795238Y-8140533D01*
D11*
%TO.C,R2*%
X3837258Y-12977500D02*
X3362742Y-12977500D01*
X3837258Y-14022500D02*
X3362742Y-14022500D01*
%TO.C,R1*%
X3837258Y-9877500D02*
X3362742Y-9877500D01*
X3837258Y-10922500D02*
X3362742Y-10922500D01*
%TO.C,JP2*%
X8625000Y-14500000D02*
X5825000Y-14500000D01*
X8625000Y-12500000D02*
X8625000Y-14500000D01*
X5825000Y-14500000D02*
X5825000Y-12500000D01*
X5825000Y-12500000D02*
X8625000Y-12500000D01*
D12*
%TO.C,U1*%
X22500000Y-20000000D02*
X20630000Y-20000000D01*
X22500000Y-18130000D02*
X22500000Y-20000000D01*
X22500000Y-10000000D02*
X22500000Y-11870000D01*
X20630000Y-10000000D02*
X22500000Y-10000000D01*
X14370000Y-20000000D02*
X12500000Y-20000000D01*
X12500000Y-20000000D02*
X12500000Y-18130000D01*
X12500000Y-11870000D02*
X12500000Y-10000000D01*
X12500000Y-10000000D02*
X14370000Y-10000000D01*
D13*
X23490000Y-18690000D02*
G75*
G03*
X23090000Y-18690000I-200000J0D01*
G01*
X23090000Y-18690000D02*
G75*
G03*
X23490000Y-18690000I200000J0D01*
G01*
D12*
%TO.C,CN2*%
X12820000Y-4900000D02*
X12820000Y-2300000D01*
X11820000Y-640000D02*
X7920000Y-640000D01*
X11740000Y-4900000D02*
X12820000Y-4900000D01*
X7760000Y-4900000D02*
X6840000Y-4900000D01*
X6840000Y-4900000D02*
X6840000Y-2290000D01*
X12420000Y-4410000D02*
G75*
G03*
X12180000Y-4410000I-120000J0D01*
G01*
X12180000Y-4410000D02*
G75*
G03*
X12420000Y-4410000I120000J0D01*
G01*
D11*
%TO.C,JP1*%
X8600000Y-11400000D02*
X5800000Y-11400000D01*
X8600000Y-9400000D02*
X8600000Y-11400000D01*
X5800000Y-11400000D02*
X5800000Y-9400000D01*
X5800000Y-9400000D02*
X8600000Y-9400000D01*
%TO.C,G\u002A\u002A\u002A*%
G36*
X29343972Y-24181899D02*
G01*
X29392320Y-24226028D01*
X29420663Y-24284570D01*
X29423846Y-24311000D01*
X29407570Y-24371959D01*
X29366384Y-24423761D01*
X29311745Y-24454128D01*
X29287077Y-24457538D01*
X29248813Y-24445990D01*
X29203145Y-24418101D01*
X29201788Y-24417043D01*
X29158834Y-24361815D01*
X29149104Y-24297491D01*
X29172599Y-24235543D01*
X29201788Y-24204956D01*
X29247340Y-24176708D01*
X29286176Y-24164475D01*
X29287077Y-24164461D01*
X29343972Y-24181899D01*
G37*
G36*
X30524165Y-21863583D02*
G01*
X30612952Y-21913100D01*
X30685770Y-21989637D01*
X30734077Y-22087114D01*
X30750104Y-22192691D01*
X30731974Y-22294838D01*
X30684498Y-22387173D01*
X30612485Y-22463315D01*
X30520743Y-22516881D01*
X30414083Y-22541490D01*
X30391000Y-22542378D01*
X30344392Y-22545747D01*
X30310967Y-22560558D01*
X30278621Y-22594884D01*
X30248216Y-22637674D01*
X30153220Y-22810776D01*
X30089975Y-23001598D01*
X30060428Y-23202584D01*
X30061905Y-23359993D01*
X30065065Y-23445094D01*
X30057839Y-23499196D01*
X30045989Y-23522604D01*
X29992462Y-23560399D01*
X29927645Y-23564389D01*
X29897229Y-23554080D01*
X29867904Y-23533548D01*
X29847425Y-23500508D01*
X29834446Y-23448798D01*
X29827622Y-23372256D01*
X29825606Y-23264718D01*
X29825731Y-23226615D01*
X29844934Y-23003892D01*
X29898888Y-22795284D01*
X29986618Y-22603828D01*
X30063609Y-22486921D01*
X30093830Y-22443407D01*
X30102185Y-22412455D01*
X30091047Y-22375975D01*
X30080993Y-22354373D01*
X30058195Y-22278385D01*
X30050154Y-22188147D01*
X30057109Y-22100895D01*
X30076640Y-22038683D01*
X30144152Y-21945650D01*
X30229402Y-21882120D01*
X30325649Y-21847596D01*
X30426150Y-21841583D01*
X30524165Y-21863583D01*
G37*
G36*
X24967929Y-22868433D02*
G01*
X25115955Y-22876164D01*
X25249445Y-22891545D01*
X25380539Y-22916122D01*
X25521373Y-22951442D01*
X25574069Y-22966299D01*
X25821936Y-23057894D01*
X26055957Y-23185354D01*
X26274956Y-23347578D01*
X26477757Y-23543466D01*
X26663184Y-23771918D01*
X26830061Y-24031833D01*
X26942609Y-24247319D01*
X27066034Y-24539514D01*
X27160511Y-24835783D01*
X27224900Y-25130572D01*
X27258061Y-25418329D01*
X27258858Y-25693503D01*
X27253520Y-25763400D01*
X27240767Y-25886685D01*
X27226173Y-25979875D01*
X27205352Y-26051868D01*
X27173921Y-26111565D01*
X27127492Y-26167862D01*
X27061681Y-26229661D01*
X26996139Y-26285667D01*
X26693292Y-26516479D01*
X26360390Y-26725151D01*
X26000799Y-26909789D01*
X25617888Y-27068496D01*
X25580056Y-27082288D01*
X25438804Y-27133177D01*
X25563593Y-26984276D01*
X25722120Y-26768606D01*
X25844995Y-26544159D01*
X25932093Y-26313637D01*
X25983293Y-26079740D01*
X25998470Y-25845171D01*
X25977501Y-25612630D01*
X25920263Y-25384820D01*
X25826633Y-25164440D01*
X25696488Y-24954193D01*
X25658520Y-24903899D01*
X25511446Y-24745601D01*
X25336158Y-24606476D01*
X25140967Y-24491815D01*
X24934188Y-24406909D01*
X24832307Y-24378047D01*
X24721101Y-24360685D01*
X24588126Y-24354212D01*
X24449062Y-24358357D01*
X24319589Y-24372849D01*
X24246154Y-24388176D01*
X24049974Y-24458022D01*
X23871578Y-24556690D01*
X23713534Y-24680246D01*
X23578413Y-24824757D01*
X23468783Y-24986288D01*
X23387213Y-25160906D01*
X23336273Y-25344678D01*
X23318533Y-25533669D01*
X23336560Y-25723947D01*
X23345828Y-25766615D01*
X23407739Y-25944503D01*
X23501805Y-26107413D01*
X23623326Y-26250885D01*
X23767600Y-26370456D01*
X23929925Y-26461664D01*
X24105601Y-26520047D01*
X24148635Y-26528577D01*
X24316862Y-26538511D01*
X24483360Y-26512720D01*
X24642096Y-26454318D01*
X24787034Y-26366419D01*
X24912140Y-26252138D01*
X25011380Y-26114588D01*
X25034028Y-26071678D01*
X25090198Y-25915666D01*
X25110171Y-25757921D01*
X25095648Y-25603555D01*
X25048328Y-25457678D01*
X24969910Y-25325401D01*
X24862095Y-25211835D01*
X24726581Y-25122090D01*
X24716553Y-25117054D01*
X24637170Y-25090558D01*
X24536993Y-25074949D01*
X24428977Y-25070444D01*
X24326076Y-25077261D01*
X24241246Y-25095617D01*
X24210794Y-25108567D01*
X24110537Y-25177334D01*
X24020611Y-25265480D01*
X23953367Y-25360400D01*
X23941784Y-25383198D01*
X23913288Y-25464651D01*
X23915149Y-25523981D01*
X23948010Y-25564445D01*
X23980669Y-25580249D01*
X24031890Y-25588662D01*
X24075557Y-25570203D01*
X24118360Y-25520627D01*
X24145641Y-25475558D01*
X24217339Y-25382441D01*
X24307072Y-25320942D01*
X24409093Y-25291670D01*
X24517654Y-25295236D01*
X24627009Y-25332252D01*
X24731410Y-25403327D01*
X24741289Y-25412269D01*
X24820677Y-25510622D01*
X24867547Y-25623892D01*
X24882288Y-25745930D01*
X24865294Y-25870584D01*
X24816956Y-25991703D01*
X24737665Y-26103137D01*
X24694563Y-26146172D01*
X24590436Y-26226255D01*
X24484284Y-26275829D01*
X24363735Y-26299531D01*
X24275461Y-26303268D01*
X24186161Y-26300826D01*
X24118828Y-26291238D01*
X24056520Y-26270964D01*
X24001923Y-26246145D01*
X23860622Y-26157119D01*
X23740209Y-26040707D01*
X23644840Y-25903382D01*
X23578672Y-25751616D01*
X23545858Y-25591881D01*
X23543001Y-25531374D01*
X23561410Y-25364962D01*
X23614744Y-25203120D01*
X23698849Y-25050469D01*
X23809572Y-24911635D01*
X23942762Y-24791239D01*
X24094266Y-24693905D01*
X24259930Y-24624257D01*
X24385000Y-24593957D01*
X24579374Y-24580314D01*
X24771620Y-24603237D01*
X24957943Y-24660254D01*
X25134552Y-24748889D01*
X25297651Y-24866667D01*
X25443448Y-25011115D01*
X25568148Y-25179759D01*
X25667959Y-25370123D01*
X25700030Y-25451699D01*
X25725249Y-25525153D01*
X25742218Y-25585938D01*
X25752514Y-25645288D01*
X25757718Y-25714440D01*
X25759408Y-25804629D01*
X25759391Y-25874077D01*
X25758128Y-25985151D01*
X25754193Y-26068433D01*
X25746071Y-26135192D01*
X25732249Y-26196697D01*
X25711215Y-26264214D01*
X25704295Y-26284384D01*
X25607059Y-26509356D01*
X25479045Y-26717379D01*
X25324159Y-26904357D01*
X25146307Y-27066195D01*
X24949394Y-27198797D01*
X24737545Y-27297988D01*
X24504727Y-27367963D01*
X24267806Y-27407593D01*
X24036288Y-27415624D01*
X23916410Y-27406326D01*
X23831817Y-27391603D01*
X23728179Y-27367081D01*
X23622896Y-27337062D01*
X23581169Y-27323438D01*
X23323878Y-27215551D01*
X23087955Y-27077106D01*
X22875030Y-26911231D01*
X22686731Y-26721055D01*
X22524686Y-26509707D01*
X22390524Y-26280317D01*
X22285873Y-26036012D01*
X22212362Y-25779923D01*
X22171618Y-25515177D01*
X22165271Y-25244905D01*
X22194949Y-24972234D01*
X22245182Y-24756337D01*
X22344582Y-24471650D01*
X22472426Y-24209010D01*
X22631700Y-23963465D01*
X22825388Y-23730063D01*
X22926505Y-23625763D01*
X23167947Y-23414741D01*
X23431628Y-23235567D01*
X23716087Y-23089020D01*
X24019865Y-22975876D01*
X24266539Y-22911897D01*
X24364163Y-22893210D01*
X24459119Y-22880303D01*
X24562608Y-22872217D01*
X24685831Y-22867994D01*
X24793230Y-22866806D01*
X24967929Y-22868433D01*
G37*
G36*
X29249232Y-21596063D02*
G01*
X29343634Y-21631732D01*
X29423892Y-21692382D01*
X29483728Y-21775109D01*
X29516867Y-21877005D01*
X29521465Y-21935360D01*
X29504882Y-22053499D01*
X29454727Y-22151721D01*
X29370654Y-22230600D01*
X29329252Y-22255889D01*
X29231734Y-22308965D01*
X29218609Y-22450290D01*
X29215957Y-22608630D01*
X29233842Y-22788671D01*
X29270922Y-22979735D01*
X29298044Y-23082322D01*
X29326203Y-23185856D01*
X29340793Y-23259623D01*
X29341913Y-23310461D01*
X29329662Y-23345212D01*
X29304141Y-23370714D01*
X29302268Y-23372046D01*
X29274102Y-23393301D01*
X29277857Y-23401259D01*
X29317062Y-23402461D01*
X29318681Y-23402461D01*
X29390248Y-23409946D01*
X29484188Y-23429903D01*
X29587317Y-23458590D01*
X29686456Y-23492262D01*
X29768421Y-23527174D01*
X29781488Y-23533919D01*
X29931821Y-23635056D01*
X30069360Y-23766975D01*
X30188004Y-23921959D01*
X30281651Y-24092290D01*
X30334011Y-24232846D01*
X30368135Y-24416000D01*
X30365777Y-24601390D01*
X30328938Y-24784457D01*
X30259617Y-24960645D01*
X30159815Y-25125394D01*
X30031532Y-25274148D01*
X29876768Y-25402349D01*
X29798919Y-25452177D01*
X29704191Y-25501357D01*
X29598776Y-25545764D01*
X29494272Y-25581355D01*
X29402279Y-25604091D01*
X29345052Y-25610307D01*
X29306632Y-25615591D01*
X29274690Y-25634432D01*
X29247126Y-25671316D01*
X29221843Y-25730728D01*
X29196743Y-25817154D01*
X29169727Y-25935080D01*
X29151441Y-26024251D01*
X29105620Y-26239072D01*
X29059156Y-26423227D01*
X29009135Y-26585062D01*
X28952642Y-26732923D01*
X28886763Y-26875153D01*
X28808583Y-27020100D01*
X28796058Y-27041830D01*
X28601738Y-27338012D01*
X28376669Y-27611556D01*
X28123036Y-27860858D01*
X27843023Y-28084315D01*
X27538814Y-28280323D01*
X27212594Y-28447278D01*
X26866547Y-28583575D01*
X26580729Y-28668483D01*
X26468330Y-28696768D01*
X26366745Y-28720700D01*
X26271411Y-28740664D01*
X26177763Y-28757045D01*
X26081240Y-28770226D01*
X25977277Y-28780594D01*
X25861312Y-28788531D01*
X25728781Y-28794424D01*
X25575120Y-28798655D01*
X25395766Y-28801611D01*
X25186156Y-28803676D01*
X24959307Y-28805138D01*
X24749439Y-28805870D01*
X24533281Y-28805841D01*
X24317737Y-28805105D01*
X24109712Y-28803714D01*
X23916113Y-28801720D01*
X23743843Y-28799177D01*
X23599807Y-28796138D01*
X23533000Y-28794205D01*
X23256978Y-28783738D01*
X22994818Y-28771130D01*
X22748997Y-28756638D01*
X22521989Y-28740521D01*
X22316272Y-28723035D01*
X22134321Y-28704438D01*
X21978612Y-28684987D01*
X21851622Y-28664940D01*
X21755826Y-28644555D01*
X21693701Y-28624089D01*
X21667723Y-28603799D01*
X21667077Y-28600140D01*
X21684615Y-28571234D01*
X21734066Y-28531479D01*
X21810687Y-28483564D01*
X21909735Y-28430177D01*
X22026464Y-28374005D01*
X22156132Y-28317738D01*
X22188994Y-28304380D01*
X22272164Y-28271668D01*
X22355681Y-28240361D01*
X22444072Y-28209018D01*
X22541864Y-28176199D01*
X22653585Y-28140463D01*
X22783763Y-28100369D01*
X22936924Y-28054476D01*
X23117596Y-28001343D01*
X23330307Y-27939530D01*
X23386461Y-27923291D01*
X23552199Y-27875358D01*
X23710923Y-27829376D01*
X23857563Y-27786820D01*
X23987051Y-27749164D01*
X24094316Y-27717883D01*
X24174289Y-27694449D01*
X24221900Y-27680339D01*
X24222568Y-27680138D01*
X24279843Y-27664397D01*
X24367182Y-27642325D01*
X24476460Y-27615883D01*
X24599553Y-27587033D01*
X24728338Y-27557735D01*
X24745245Y-27553958D01*
X25193415Y-27441897D01*
X25607727Y-27312753D01*
X25989869Y-27165680D01*
X26341526Y-26999833D01*
X26664383Y-26814368D01*
X26960128Y-26608439D01*
X27230446Y-26381201D01*
X27383972Y-26231350D01*
X27583546Y-26007447D01*
X27750609Y-25779159D01*
X27890732Y-25537367D01*
X28009482Y-25272948D01*
X28070191Y-25107286D01*
X28099146Y-25020739D01*
X28118882Y-24953618D01*
X28131011Y-24894578D01*
X28137147Y-24832274D01*
X28138905Y-24755362D01*
X28137897Y-24652497D01*
X28137595Y-24633384D01*
X28138223Y-24481038D01*
X28146945Y-24356374D01*
X28152996Y-24321847D01*
X28921983Y-24321847D01*
X28940877Y-24432151D01*
X28979262Y-24512151D01*
X29059194Y-24601568D01*
X29157171Y-24656620D01*
X29271785Y-24676833D01*
X29401626Y-24661733D01*
X29414077Y-24658608D01*
X29484817Y-24624181D01*
X29554152Y-24563858D01*
X29609718Y-24489256D01*
X29623758Y-24461623D01*
X29653552Y-24348143D01*
X29646426Y-24232538D01*
X29603107Y-24123156D01*
X29592815Y-24106712D01*
X29517624Y-24025359D01*
X29424208Y-23973088D01*
X29320402Y-23949861D01*
X29214039Y-23955640D01*
X29112953Y-23990387D01*
X29024979Y-24054064D01*
X28979368Y-24109690D01*
X28934814Y-24210369D01*
X28921983Y-24321847D01*
X28152996Y-24321847D01*
X28165856Y-24248461D01*
X28197050Y-24146368D01*
X28242619Y-24039163D01*
X28257216Y-24008828D01*
X28331876Y-23887830D01*
X28433785Y-23766631D01*
X28552575Y-23655606D01*
X28677874Y-23565128D01*
X28730230Y-23535605D01*
X28824949Y-23492852D01*
X28930200Y-23454507D01*
X29033617Y-23424339D01*
X29122830Y-23406116D01*
X29167299Y-23402461D01*
X29211102Y-23402461D01*
X29162089Y-23358500D01*
X29122681Y-23304247D01*
X29085378Y-23217894D01*
X29051548Y-23106412D01*
X29022564Y-22976770D01*
X28999795Y-22835940D01*
X28984612Y-22690890D01*
X28978386Y-22548592D01*
X28981001Y-22437601D01*
X28985949Y-22349229D01*
X28986953Y-22291193D01*
X28982564Y-22254828D01*
X28971332Y-22231472D01*
X28951808Y-22212462D01*
X28942039Y-22204675D01*
X28889136Y-22144377D01*
X28846542Y-22062037D01*
X28822052Y-21974606D01*
X28819012Y-21937077D01*
X28832886Y-21851406D01*
X28869236Y-21763438D01*
X28920148Y-21690215D01*
X28943920Y-21667999D01*
X29043098Y-21611291D01*
X29146961Y-21588281D01*
X29249232Y-21596063D01*
G37*
%TD*%
%LPC*%
D14*
%TO.C,R2*%
X4425000Y-13500000D03*
X2775000Y-13500000D03*
%TD*%
%TO.C,R1*%
X4425000Y-10400000D03*
X2775000Y-10400000D03*
%TD*%
D15*
%TO.C,H1*%
X2200000Y-2200000D03*
%TD*%
%TO.C,H4*%
X2200000Y-27800000D03*
%TD*%
%TO.C,H2*%
X32800000Y-2200000D03*
%TD*%
D16*
%TO.C,JP2*%
X7950000Y-13500000D03*
D17*
X6500000Y-13500000D03*
%TD*%
D18*
%TO.C,U1*%
X21850000Y-17500000D03*
X21850000Y-16250000D03*
X21850000Y-15000000D03*
X21850000Y-13750000D03*
X21850000Y-12500000D03*
D19*
X20000000Y-10650000D03*
X18750000Y-10650000D03*
X17500000Y-10650000D03*
X16250000Y-10650000D03*
X15000000Y-10650000D03*
D18*
X13150000Y-12500000D03*
X13150000Y-13750000D03*
X13150000Y-15000000D03*
X13150000Y-16250000D03*
X13150000Y-17500000D03*
D19*
X15000000Y-19350000D03*
X16250000Y-19350000D03*
X17500000Y-19350000D03*
X18750000Y-19350000D03*
X20000000Y-19350000D03*
D20*
X17500000Y-15000000D03*
%TD*%
D15*
%TO.C,H3*%
X32800000Y-27800000D03*
%TD*%
D21*
%TO.C,CN2*%
X11300000Y-5040000D03*
X10300000Y-5040000D03*
X9300000Y-5040000D03*
X8300000Y-5040000D03*
D22*
X7000000Y-1160000D03*
X12600000Y-1160000D03*
%TD*%
D16*
%TO.C,JP1*%
X7925000Y-10400000D03*
D17*
X6475000Y-10400000D03*
%TD*%
%LPD*%
M02*
