%TF.GenerationSoftware,KiCad,Pcbnew,6.0.11-2627ca5db0~126~ubuntu22.04.1*%
%TF.CreationDate,2023-08-27T22:06:58+02:00*%
%TF.ProjectId,E73-2G4M08S1C-52840,4537332d-3247-4344-9d30-385331432d35,rev?*%
%TF.SameCoordinates,Original*%
%TF.FileFunction,Copper,L2,Bot*%
%TF.FilePolarity,Positive*%
%FSLAX46Y46*%
G04 Gerber Fmt 4.6, Leading zero omitted, Abs format (unit mm)*
G04 Created by KiCad (PCBNEW 6.0.11-2627ca5db0~126~ubuntu22.04.1) date 2023-08-27 22:06:58*
%MOMM*%
%LPD*%
G01*
G04 APERTURE LIST*
%TA.AperFunction,ComponentPad*%
%ADD10O,2.000000X1.200000*%
%TD*%
%TA.AperFunction,ComponentPad*%
%ADD11O,1.800000X1.200000*%
%TD*%
%TA.AperFunction,ViaPad*%
%ADD12C,0.800000*%
%TD*%
%TA.AperFunction,Conductor*%
%ADD13C,0.250000*%
%TD*%
%TA.AperFunction,Conductor*%
%ADD14C,0.200000*%
%TD*%
G04 APERTURE END LIST*
D10*
%TO.P,USBC1,0,SH*%
%TO.N,/USB_SH*%
X7062500Y-7970000D03*
%TO.P,USBC1,1*%
%TO.N,N/C*%
X7062500Y-16630000D03*
D11*
%TO.P,USBC1,2*%
X2882500Y-16630000D03*
%TO.P,USBC1,3*%
X2882500Y-7970000D03*
%TD*%
D12*
%TO.N,GND*%
X14122500Y-14500000D03*
X48500000Y-35250000D03*
X19817076Y-26266294D03*
X22055000Y-17485000D03*
X8778000Y-16000000D03*
X32250000Y-36750000D03*
X27000000Y-36750000D03*
X17500000Y-24750000D03*
X3750000Y-26000000D03*
X52500000Y-9750000D03*
X26750000Y-6500000D03*
X29750000Y-21000000D03*
X45750000Y-17000000D03*
X26000000Y-8500000D03*
X19305000Y-18985000D03*
X7750000Y-30500000D03*
X27000000Y-26500000D03*
X29725000Y-14750000D03*
X1500000Y-26000000D03*
X3750000Y-18750000D03*
X14122500Y-10250000D03*
X1500000Y-18750000D03*
X38750000Y-26500000D03*
X8872500Y-8750000D03*
X27250000Y-16500000D03*
X24500000Y-36750000D03*
X35250000Y-23750000D03*
X10872500Y-6000000D03*
%TO.N,VBUS*%
X7570000Y-20215000D03*
X40480000Y-30480000D03*
%TO.N,DATA-*%
X6400000Y-12749500D03*
X41975000Y-30456644D03*
X6200000Y-11000000D03*
X34750000Y-12825000D03*
%TO.N,DATA+*%
X43025000Y-30456644D03*
X34750000Y-11775000D03*
%TO.N,LED1*%
X44450000Y-30450000D03*
X40005000Y-11430000D03*
%TO.N,SWD*%
X38146771Y-31275500D03*
X46750000Y-30500000D03*
%TO.N,SWC*%
X37250000Y-32000000D03*
X48250000Y-30500000D03*
%TO.N,nRF_VDD*%
X29210000Y-7530500D03*
X42500000Y-7750000D03*
X22000000Y-36750000D03*
X23495000Y-9525000D03*
X23495000Y-13750000D03*
X30250000Y-22500000D03*
X35250000Y-22500000D03*
%TD*%
D13*
%TO.N,VBUS*%
X7570000Y-20215000D02*
X40215000Y-20215000D01*
X40480000Y-20480000D02*
X40480000Y-30480000D01*
X40215000Y-20215000D02*
X40480000Y-20480000D01*
D14*
%TO.N,DATA-*%
X6200000Y-11000000D02*
X6000000Y-11000000D01*
X42275000Y-21136397D02*
X42274999Y-30156645D01*
X35163603Y-12825000D02*
X42275000Y-19936397D01*
X42274999Y-30156645D02*
X41975000Y-30456644D01*
X5800000Y-12149500D02*
X6400000Y-12749500D01*
X41820424Y-20836397D02*
X41975000Y-20836397D01*
X5800000Y-11200000D02*
X5800000Y-12149500D01*
X34750000Y-12825000D02*
X35163603Y-12825000D01*
X6000000Y-11000000D02*
X5800000Y-11200000D01*
X41975000Y-20236397D02*
X41820424Y-20236397D01*
X41820424Y-20836376D02*
G75*
G02*
X41520424Y-20536397I-24J299976D01*
G01*
X41975000Y-20236400D02*
G75*
G03*
X42275000Y-19936397I0J300000D01*
G01*
X41520397Y-20536397D02*
G75*
G02*
X41820424Y-20236397I300003J-3D01*
G01*
X42275003Y-21136397D02*
G75*
G03*
X41975000Y-20836397I-300003J-3D01*
G01*
%TO.N,DATA+*%
X42725000Y-19750000D02*
X34750000Y-11775000D01*
X43025000Y-30456644D02*
X42725001Y-30156645D01*
X42725001Y-30156645D02*
X42725000Y-19750000D01*
D13*
%TO.N,LED1*%
X44450000Y-17145000D02*
X40005000Y-12700000D01*
X44450000Y-17145000D02*
X44450000Y-30450000D01*
X40005000Y-12700000D02*
X40005000Y-11430000D01*
%TO.N,SWD*%
X46000000Y-31250000D02*
X46750000Y-30500000D01*
X38172271Y-31250000D02*
X46000000Y-31250000D01*
X38146771Y-31275500D02*
X38172271Y-31250000D01*
%TO.N,SWC*%
X37250000Y-32000000D02*
X46275305Y-32000000D01*
X47775305Y-30500000D02*
X48250000Y-30500000D01*
X46275305Y-32000000D02*
X47775305Y-30500000D01*
%TO.N,nRF_VDD*%
X30250000Y-28500000D02*
X22000000Y-36750000D01*
X23495000Y-9525000D02*
X27215500Y-9525000D01*
X42280500Y-7530500D02*
X29210000Y-7530500D01*
X42500000Y-7750000D02*
X42280500Y-7530500D01*
X27215500Y-9525000D02*
X29210000Y-7530500D01*
X23495000Y-13750000D02*
X23495000Y-9525000D01*
X30250000Y-22500000D02*
X30250000Y-28500000D01*
X30250000Y-22500000D02*
X35250000Y-22500000D01*
%TD*%
%TA.AperFunction,Conductor*%
%TO.N,GND*%
G36*
X53970018Y-510000D02*
G01*
X53984852Y-512310D01*
X53984855Y-512310D01*
X53993724Y-513691D01*
X54002626Y-512527D01*
X54002750Y-512511D01*
X54033192Y-512240D01*
X54040621Y-513077D01*
X54095264Y-519234D01*
X54122771Y-525513D01*
X54199853Y-552485D01*
X54225274Y-564727D01*
X54294426Y-608178D01*
X54316485Y-625770D01*
X54374230Y-683515D01*
X54391822Y-705574D01*
X54435273Y-774726D01*
X54447515Y-800147D01*
X54474487Y-877228D01*
X54480766Y-904736D01*
X54487018Y-960226D01*
X54486923Y-975868D01*
X54487800Y-975879D01*
X54487690Y-984851D01*
X54486309Y-993724D01*
X54487473Y-1002626D01*
X54487473Y-1002628D01*
X54490436Y-1025283D01*
X54491500Y-1041621D01*
X54491500Y-15074000D01*
X54471498Y-15142121D01*
X54417842Y-15188614D01*
X54365500Y-15200000D01*
X51300000Y-15200000D01*
X51300000Y-28500000D01*
X54365500Y-28500000D01*
X54433621Y-28520002D01*
X54480114Y-28573658D01*
X54491500Y-28626000D01*
X54491500Y-43950633D01*
X54490000Y-43970018D01*
X54486309Y-43993724D01*
X54487473Y-44002626D01*
X54487489Y-44002750D01*
X54487760Y-44033192D01*
X54485430Y-44053870D01*
X54480766Y-44095264D01*
X54474487Y-44122771D01*
X54447515Y-44199853D01*
X54435273Y-44225274D01*
X54391822Y-44294426D01*
X54374230Y-44316485D01*
X54316485Y-44374230D01*
X54294426Y-44391822D01*
X54225274Y-44435273D01*
X54199853Y-44447515D01*
X54122772Y-44474487D01*
X54095264Y-44480766D01*
X54039774Y-44487018D01*
X54024132Y-44486923D01*
X54024121Y-44487800D01*
X54015149Y-44487690D01*
X54006276Y-44486309D01*
X53997374Y-44487473D01*
X53997372Y-44487473D01*
X53986385Y-44488910D01*
X53974714Y-44490436D01*
X53958379Y-44491500D01*
X1049367Y-44491500D01*
X1029982Y-44490000D01*
X1015148Y-44487690D01*
X1015145Y-44487690D01*
X1006276Y-44486309D01*
X997374Y-44487473D01*
X997250Y-44487489D01*
X966808Y-44487760D01*
X946130Y-44485430D01*
X904736Y-44480766D01*
X877229Y-44474487D01*
X800147Y-44447515D01*
X774726Y-44435273D01*
X705574Y-44391822D01*
X683515Y-44374230D01*
X625770Y-44316485D01*
X608178Y-44294426D01*
X564727Y-44225274D01*
X552485Y-44199853D01*
X525513Y-44122772D01*
X519234Y-44095266D01*
X513170Y-44041451D01*
X512888Y-44016640D01*
X513576Y-44012552D01*
X513729Y-44000000D01*
X509773Y-43972376D01*
X508500Y-43954514D01*
X508500Y-41932703D01*
X1090743Y-41932703D01*
X1128268Y-42217734D01*
X1204129Y-42495036D01*
X1316923Y-42759476D01*
X1464561Y-43006161D01*
X1644313Y-43230528D01*
X1852851Y-43428423D01*
X2086317Y-43596186D01*
X2090112Y-43598195D01*
X2090113Y-43598196D01*
X2111869Y-43609715D01*
X2340392Y-43730712D01*
X2610373Y-43829511D01*
X2891264Y-43890755D01*
X2919841Y-43893004D01*
X3114282Y-43908307D01*
X3114291Y-43908307D01*
X3116739Y-43908500D01*
X3272271Y-43908500D01*
X3274407Y-43908354D01*
X3274418Y-43908354D01*
X3482548Y-43894165D01*
X3482554Y-43894164D01*
X3486825Y-43893873D01*
X3491020Y-43893004D01*
X3491022Y-43893004D01*
X3627583Y-43864724D01*
X3768342Y-43835574D01*
X4039343Y-43739607D01*
X4294812Y-43607750D01*
X4298313Y-43605289D01*
X4298317Y-43605287D01*
X4412417Y-43525096D01*
X4530023Y-43442441D01*
X4740622Y-43246740D01*
X4922713Y-43024268D01*
X5072927Y-42779142D01*
X5188483Y-42515898D01*
X5267244Y-42239406D01*
X5307751Y-41954784D01*
X5307845Y-41936951D01*
X5307867Y-41932703D01*
X49690743Y-41932703D01*
X49728268Y-42217734D01*
X49804129Y-42495036D01*
X49916923Y-42759476D01*
X50064561Y-43006161D01*
X50244313Y-43230528D01*
X50452851Y-43428423D01*
X50686317Y-43596186D01*
X50690112Y-43598195D01*
X50690113Y-43598196D01*
X50711869Y-43609715D01*
X50940392Y-43730712D01*
X51210373Y-43829511D01*
X51491264Y-43890755D01*
X51519841Y-43893004D01*
X51714282Y-43908307D01*
X51714291Y-43908307D01*
X51716739Y-43908500D01*
X51872271Y-43908500D01*
X51874407Y-43908354D01*
X51874418Y-43908354D01*
X52082548Y-43894165D01*
X52082554Y-43894164D01*
X52086825Y-43893873D01*
X52091020Y-43893004D01*
X52091022Y-43893004D01*
X52227583Y-43864724D01*
X52368342Y-43835574D01*
X52639343Y-43739607D01*
X52894812Y-43607750D01*
X52898313Y-43605289D01*
X52898317Y-43605287D01*
X53012417Y-43525096D01*
X53130023Y-43442441D01*
X53340622Y-43246740D01*
X53522713Y-43024268D01*
X53672927Y-42779142D01*
X53788483Y-42515898D01*
X53867244Y-42239406D01*
X53907751Y-41954784D01*
X53907845Y-41936951D01*
X53909235Y-41671583D01*
X53909235Y-41671576D01*
X53909257Y-41667297D01*
X53871732Y-41382266D01*
X53795871Y-41104964D01*
X53683077Y-40840524D01*
X53535439Y-40593839D01*
X53355687Y-40369472D01*
X53147149Y-40171577D01*
X52913683Y-40003814D01*
X52891843Y-39992250D01*
X52868654Y-39979972D01*
X52659608Y-39869288D01*
X52389627Y-39770489D01*
X52108736Y-39709245D01*
X52077685Y-39706801D01*
X51885718Y-39691693D01*
X51885709Y-39691693D01*
X51883261Y-39691500D01*
X51727729Y-39691500D01*
X51725593Y-39691646D01*
X51725582Y-39691646D01*
X51517452Y-39705835D01*
X51517446Y-39705836D01*
X51513175Y-39706127D01*
X51508980Y-39706996D01*
X51508978Y-39706996D01*
X51372416Y-39735277D01*
X51231658Y-39764426D01*
X50960657Y-39860393D01*
X50705188Y-39992250D01*
X50701687Y-39994711D01*
X50701683Y-39994713D01*
X50691594Y-40001804D01*
X50469977Y-40157559D01*
X50259378Y-40353260D01*
X50077287Y-40575732D01*
X49927073Y-40820858D01*
X49811517Y-41084102D01*
X49732756Y-41360594D01*
X49692249Y-41645216D01*
X49692227Y-41649505D01*
X49692226Y-41649512D01*
X49690765Y-41928417D01*
X49690743Y-41932703D01*
X5307867Y-41932703D01*
X5309235Y-41671583D01*
X5309235Y-41671576D01*
X5309257Y-41667297D01*
X5271732Y-41382266D01*
X5195871Y-41104964D01*
X5083077Y-40840524D01*
X4935439Y-40593839D01*
X4755687Y-40369472D01*
X4547149Y-40171577D01*
X4313683Y-40003814D01*
X4291843Y-39992250D01*
X4268654Y-39979972D01*
X4059608Y-39869288D01*
X3789627Y-39770489D01*
X3508736Y-39709245D01*
X3477685Y-39706801D01*
X3285718Y-39691693D01*
X3285709Y-39691693D01*
X3283261Y-39691500D01*
X3127729Y-39691500D01*
X3125593Y-39691646D01*
X3125582Y-39691646D01*
X2917452Y-39705835D01*
X2917446Y-39705836D01*
X2913175Y-39706127D01*
X2908980Y-39706996D01*
X2908978Y-39706996D01*
X2772416Y-39735277D01*
X2631658Y-39764426D01*
X2360657Y-39860393D01*
X2105188Y-39992250D01*
X2101687Y-39994711D01*
X2101683Y-39994713D01*
X2091594Y-40001804D01*
X1869977Y-40157559D01*
X1659378Y-40353260D01*
X1477287Y-40575732D01*
X1327073Y-40820858D01*
X1211517Y-41084102D01*
X1132756Y-41360594D01*
X1092249Y-41645216D01*
X1092227Y-41649505D01*
X1092226Y-41649512D01*
X1090765Y-41928417D01*
X1090743Y-41932703D01*
X508500Y-41932703D01*
X508500Y-36750000D01*
X21086496Y-36750000D01*
X21106458Y-36939928D01*
X21165473Y-37121556D01*
X21260960Y-37286944D01*
X21388747Y-37428866D01*
X21543248Y-37541118D01*
X21549276Y-37543802D01*
X21549278Y-37543803D01*
X21711681Y-37616109D01*
X21717712Y-37618794D01*
X21811113Y-37638647D01*
X21898056Y-37657128D01*
X21898061Y-37657128D01*
X21904513Y-37658500D01*
X22095487Y-37658500D01*
X22101939Y-37657128D01*
X22101944Y-37657128D01*
X22188887Y-37638647D01*
X22282288Y-37618794D01*
X22288319Y-37616109D01*
X22450722Y-37543803D01*
X22450724Y-37543802D01*
X22456752Y-37541118D01*
X22611253Y-37428866D01*
X22739040Y-37286944D01*
X22834527Y-37121556D01*
X22893542Y-36939928D01*
X22910907Y-36774706D01*
X22937920Y-36709050D01*
X22947122Y-36698782D01*
X30642253Y-29003652D01*
X30650539Y-28996112D01*
X30657018Y-28992000D01*
X30703644Y-28942348D01*
X30706398Y-28939507D01*
X30726135Y-28919770D01*
X30728615Y-28916573D01*
X30736320Y-28907551D01*
X30761159Y-28881100D01*
X30766586Y-28875321D01*
X30770405Y-28868375D01*
X30770407Y-28868372D01*
X30776348Y-28857566D01*
X30787199Y-28841047D01*
X30794758Y-28831301D01*
X30799614Y-28825041D01*
X30802759Y-28817772D01*
X30802762Y-28817768D01*
X30817174Y-28784463D01*
X30822391Y-28773813D01*
X30843695Y-28735060D01*
X30848733Y-28715437D01*
X30855137Y-28696734D01*
X30860033Y-28685420D01*
X30860033Y-28685419D01*
X30863181Y-28678145D01*
X30864420Y-28670322D01*
X30864423Y-28670312D01*
X30870099Y-28634476D01*
X30872505Y-28622856D01*
X30881528Y-28587711D01*
X30881528Y-28587710D01*
X30883500Y-28580030D01*
X30883500Y-28559776D01*
X30885051Y-28540065D01*
X30886980Y-28527886D01*
X30888220Y-28520057D01*
X30884059Y-28476038D01*
X30883500Y-28464181D01*
X30883500Y-23259500D01*
X30903502Y-23191379D01*
X30957158Y-23144886D01*
X31009500Y-23133500D01*
X34541800Y-23133500D01*
X34609921Y-23153502D01*
X34629147Y-23169843D01*
X34629420Y-23169540D01*
X34634332Y-23173963D01*
X34638747Y-23178866D01*
X34793248Y-23291118D01*
X34799276Y-23293802D01*
X34799278Y-23293803D01*
X34961681Y-23366109D01*
X34967712Y-23368794D01*
X35061112Y-23388647D01*
X35148056Y-23407128D01*
X35148061Y-23407128D01*
X35154513Y-23408500D01*
X35345487Y-23408500D01*
X35351939Y-23407128D01*
X35351944Y-23407128D01*
X35438888Y-23388647D01*
X35532288Y-23368794D01*
X35538319Y-23366109D01*
X35700722Y-23293803D01*
X35700724Y-23293802D01*
X35706752Y-23291118D01*
X35861253Y-23178866D01*
X35865675Y-23173955D01*
X35984621Y-23041852D01*
X35984625Y-23041847D01*
X35989040Y-23036944D01*
X36084527Y-22871556D01*
X36143542Y-22689928D01*
X36163504Y-22500000D01*
X36143542Y-22310072D01*
X36084527Y-22128444D01*
X35989040Y-21963056D01*
X35938438Y-21906856D01*
X35865675Y-21826045D01*
X35865674Y-21826044D01*
X35861253Y-21821134D01*
X35706752Y-21708882D01*
X35700724Y-21706198D01*
X35700722Y-21706197D01*
X35538319Y-21633891D01*
X35538318Y-21633891D01*
X35532288Y-21631206D01*
X35438887Y-21611353D01*
X35351944Y-21592872D01*
X35351939Y-21592872D01*
X35345487Y-21591500D01*
X35154513Y-21591500D01*
X35148061Y-21592872D01*
X35148056Y-21592872D01*
X35061113Y-21611353D01*
X34967712Y-21631206D01*
X34961682Y-21633891D01*
X34961681Y-21633891D01*
X34799278Y-21706197D01*
X34799276Y-21706198D01*
X34793248Y-21708882D01*
X34638747Y-21821134D01*
X34634332Y-21826037D01*
X34629420Y-21830460D01*
X34628295Y-21829211D01*
X34574986Y-21862051D01*
X34541800Y-21866500D01*
X30958200Y-21866500D01*
X30890079Y-21846498D01*
X30870853Y-21830157D01*
X30870580Y-21830460D01*
X30865668Y-21826037D01*
X30861253Y-21821134D01*
X30706752Y-21708882D01*
X30700724Y-21706198D01*
X30700722Y-21706197D01*
X30538319Y-21633891D01*
X30538318Y-21633891D01*
X30532288Y-21631206D01*
X30438887Y-21611353D01*
X30351944Y-21592872D01*
X30351939Y-21592872D01*
X30345487Y-21591500D01*
X30154513Y-21591500D01*
X30148061Y-21592872D01*
X30148056Y-21592872D01*
X30061113Y-21611353D01*
X29967712Y-21631206D01*
X29961682Y-21633891D01*
X29961681Y-21633891D01*
X29799278Y-21706197D01*
X29799276Y-21706198D01*
X29793248Y-21708882D01*
X29638747Y-21821134D01*
X29634326Y-21826044D01*
X29634325Y-21826045D01*
X29561563Y-21906856D01*
X29510960Y-21963056D01*
X29415473Y-22128444D01*
X29356458Y-22310072D01*
X29336496Y-22500000D01*
X29356458Y-22689928D01*
X29415473Y-22871556D01*
X29510960Y-23036944D01*
X29584137Y-23118215D01*
X29614853Y-23182221D01*
X29616500Y-23202524D01*
X29616500Y-28185406D01*
X29596498Y-28253527D01*
X29579595Y-28274501D01*
X22049500Y-35804595D01*
X21987188Y-35838621D01*
X21960405Y-35841500D01*
X21904513Y-35841500D01*
X21898061Y-35842872D01*
X21898056Y-35842872D01*
X21811113Y-35861353D01*
X21717712Y-35881206D01*
X21711682Y-35883891D01*
X21711681Y-35883891D01*
X21549278Y-35956197D01*
X21549276Y-35956198D01*
X21543248Y-35958882D01*
X21388747Y-36071134D01*
X21260960Y-36213056D01*
X21165473Y-36378444D01*
X21106458Y-36560072D01*
X21086496Y-36750000D01*
X508500Y-36750000D01*
X508500Y-24352543D01*
X528502Y-24284422D01*
X582158Y-24237929D01*
X652432Y-24227825D01*
X717012Y-24257319D01*
X752750Y-24309035D01*
X781563Y-24387346D01*
X884174Y-24552840D01*
X1017966Y-24694322D01*
X1177475Y-24806011D01*
X1183338Y-24808548D01*
X1350325Y-24880810D01*
X1350329Y-24880811D01*
X1356184Y-24883345D01*
X1362431Y-24884650D01*
X1362434Y-24884651D01*
X1542057Y-24922176D01*
X1542062Y-24922177D01*
X1546793Y-24923165D01*
X1553185Y-24923500D01*
X1696163Y-24923500D01*
X1765451Y-24916462D01*
X1834878Y-24909410D01*
X1834879Y-24909410D01*
X1841227Y-24908765D01*
X1922343Y-24883345D01*
X2020951Y-24852444D01*
X2020956Y-24852442D01*
X2027041Y-24850535D01*
X2113975Y-24802346D01*
X2191771Y-24759223D01*
X2191774Y-24759221D01*
X2197350Y-24756130D01*
X2202191Y-24751981D01*
X2202195Y-24751978D01*
X2340355Y-24633560D01*
X2345198Y-24629409D01*
X2464546Y-24475547D01*
X2505279Y-24392768D01*
X2547700Y-24306556D01*
X2550518Y-24300829D01*
X2561852Y-24257319D01*
X2597992Y-24118575D01*
X2597992Y-24118572D01*
X2599602Y-24112393D01*
X2609793Y-23917936D01*
X2580675Y-23725401D01*
X2578472Y-23719415D01*
X2578471Y-23719409D01*
X2515640Y-23548640D01*
X2515638Y-23548635D01*
X2513437Y-23542654D01*
X2410826Y-23377160D01*
X2277034Y-23235678D01*
X2117525Y-23123989D01*
X2069513Y-23103212D01*
X1944675Y-23049190D01*
X1944671Y-23049189D01*
X1938816Y-23046655D01*
X1932569Y-23045350D01*
X1932566Y-23045349D01*
X1752943Y-23007824D01*
X1752938Y-23007823D01*
X1748207Y-23006835D01*
X1741815Y-23006500D01*
X1598837Y-23006500D01*
X1529549Y-23013538D01*
X1460122Y-23020590D01*
X1460121Y-23020590D01*
X1453773Y-23021235D01*
X1403645Y-23036944D01*
X1274049Y-23077556D01*
X1274044Y-23077558D01*
X1267959Y-23079465D01*
X1198057Y-23118213D01*
X1103229Y-23170777D01*
X1103226Y-23170779D01*
X1097650Y-23173870D01*
X1092809Y-23178019D01*
X1092805Y-23178022D01*
X965382Y-23287237D01*
X949802Y-23300591D01*
X830454Y-23454453D01*
X827638Y-23460176D01*
X827636Y-23460179D01*
X747555Y-23622926D01*
X699532Y-23675217D01*
X630862Y-23693243D01*
X563347Y-23671283D01*
X518423Y-23616307D01*
X508500Y-23567296D01*
X508500Y-21352543D01*
X528502Y-21284422D01*
X582158Y-21237929D01*
X652432Y-21227825D01*
X717012Y-21257319D01*
X752750Y-21309035D01*
X781563Y-21387346D01*
X884174Y-21552840D01*
X888555Y-21557473D01*
X888556Y-21557474D01*
X960507Y-21633560D01*
X1017966Y-21694322D01*
X1023196Y-21697984D01*
X1023197Y-21697985D01*
X1100308Y-21751978D01*
X1177475Y-21806011D01*
X1212422Y-21821134D01*
X1350325Y-21880810D01*
X1350329Y-21880811D01*
X1356184Y-21883345D01*
X1362431Y-21884650D01*
X1362434Y-21884651D01*
X1542057Y-21922176D01*
X1542062Y-21922177D01*
X1546793Y-21923165D01*
X1553185Y-21923500D01*
X1696163Y-21923500D01*
X1765451Y-21916462D01*
X1834878Y-21909410D01*
X1834879Y-21909410D01*
X1841227Y-21908765D01*
X1922343Y-21883345D01*
X2020951Y-21852444D01*
X2020956Y-21852442D01*
X2027041Y-21850535D01*
X2113975Y-21802346D01*
X2191771Y-21759223D01*
X2191774Y-21759221D01*
X2197350Y-21756130D01*
X2202191Y-21751981D01*
X2202195Y-21751978D01*
X2340355Y-21633560D01*
X2345198Y-21629409D01*
X2464546Y-21475547D01*
X2476698Y-21450852D01*
X2547700Y-21306556D01*
X2550518Y-21300829D01*
X2561852Y-21257319D01*
X2597992Y-21118575D01*
X2597992Y-21118572D01*
X2599602Y-21112393D01*
X2609793Y-20917936D01*
X2586299Y-20762587D01*
X2581630Y-20731715D01*
X2581630Y-20731714D01*
X2580675Y-20725401D01*
X2578472Y-20719415D01*
X2578471Y-20719409D01*
X2515640Y-20548640D01*
X2515638Y-20548635D01*
X2513437Y-20542654D01*
X2455621Y-20449406D01*
X2414188Y-20382582D01*
X2414187Y-20382581D01*
X2410826Y-20377160D01*
X2277034Y-20235678D01*
X2256879Y-20221565D01*
X2247503Y-20215000D01*
X6656496Y-20215000D01*
X6657186Y-20221565D01*
X6673540Y-20377160D01*
X6676458Y-20404928D01*
X6735473Y-20586556D01*
X6830960Y-20751944D01*
X6958747Y-20893866D01*
X7113248Y-21006118D01*
X7119276Y-21008802D01*
X7119278Y-21008803D01*
X7281681Y-21081109D01*
X7287712Y-21083794D01*
X7381112Y-21103647D01*
X7468056Y-21122128D01*
X7468061Y-21122128D01*
X7474513Y-21123500D01*
X7665487Y-21123500D01*
X7671939Y-21122128D01*
X7671944Y-21122128D01*
X7758888Y-21103647D01*
X7852288Y-21083794D01*
X7858319Y-21081109D01*
X8020722Y-21008803D01*
X8020724Y-21008802D01*
X8026752Y-21006118D01*
X8181253Y-20893866D01*
X8185668Y-20888963D01*
X8190580Y-20884540D01*
X8191705Y-20885789D01*
X8245014Y-20852949D01*
X8278200Y-20848500D01*
X39720500Y-20848500D01*
X39788621Y-20868502D01*
X39835114Y-20922158D01*
X39846500Y-20974500D01*
X39846500Y-29777476D01*
X39826498Y-29845597D01*
X39814142Y-29861779D01*
X39740960Y-29943056D01*
X39737659Y-29948774D01*
X39662794Y-30078444D01*
X39645473Y-30108444D01*
X39586458Y-30290072D01*
X39566496Y-30480000D01*
X39567186Y-30486565D01*
X39567186Y-30490500D01*
X39547184Y-30558621D01*
X39493528Y-30605114D01*
X39441186Y-30616500D01*
X38826307Y-30616500D01*
X38758186Y-30596498D01*
X38752246Y-30592436D01*
X38608865Y-30488263D01*
X38608864Y-30488262D01*
X38603523Y-30484382D01*
X38597495Y-30481698D01*
X38597493Y-30481697D01*
X38435090Y-30409391D01*
X38435089Y-30409391D01*
X38429059Y-30406706D01*
X38335659Y-30386853D01*
X38248715Y-30368372D01*
X38248710Y-30368372D01*
X38242258Y-30367000D01*
X38051284Y-30367000D01*
X38044832Y-30368372D01*
X38044827Y-30368372D01*
X37957883Y-30386853D01*
X37864483Y-30406706D01*
X37858453Y-30409391D01*
X37858452Y-30409391D01*
X37696049Y-30481697D01*
X37696047Y-30481698D01*
X37690019Y-30484382D01*
X37684678Y-30488262D01*
X37684677Y-30488263D01*
X37668523Y-30500000D01*
X37535518Y-30596634D01*
X37531097Y-30601544D01*
X37531096Y-30601545D01*
X37517631Y-30616500D01*
X37407731Y-30738556D01*
X37312244Y-30903944D01*
X37310202Y-30910229D01*
X37279592Y-31004436D01*
X37239518Y-31063042D01*
X37174122Y-31090679D01*
X37162735Y-31091330D01*
X37161117Y-31091500D01*
X37154513Y-31091500D01*
X37148061Y-31092872D01*
X37148056Y-31092872D01*
X37061113Y-31111353D01*
X36967712Y-31131206D01*
X36961682Y-31133891D01*
X36961681Y-31133891D01*
X36799278Y-31206197D01*
X36799276Y-31206198D01*
X36793248Y-31208882D01*
X36638747Y-31321134D01*
X36510960Y-31463056D01*
X36415473Y-31628444D01*
X36356458Y-31810072D01*
X36336496Y-32000000D01*
X36356458Y-32189928D01*
X36415473Y-32371556D01*
X36510960Y-32536944D01*
X36515378Y-32541851D01*
X36515379Y-32541852D01*
X36597452Y-32633003D01*
X36638747Y-32678866D01*
X36793248Y-32791118D01*
X36799276Y-32793802D01*
X36799278Y-32793803D01*
X36961681Y-32866109D01*
X36967712Y-32868794D01*
X37061112Y-32888647D01*
X37148056Y-32907128D01*
X37148061Y-32907128D01*
X37154513Y-32908500D01*
X37345487Y-32908500D01*
X37351939Y-32907128D01*
X37351944Y-32907128D01*
X37438888Y-32888647D01*
X37532288Y-32868794D01*
X37538319Y-32866109D01*
X37700722Y-32793803D01*
X37700724Y-32793802D01*
X37706752Y-32791118D01*
X37861253Y-32678866D01*
X37865668Y-32673963D01*
X37870580Y-32669540D01*
X37871705Y-32670789D01*
X37925014Y-32637949D01*
X37958200Y-32633500D01*
X46196538Y-32633500D01*
X46207721Y-32634027D01*
X46215214Y-32635702D01*
X46223140Y-32635453D01*
X46223141Y-32635453D01*
X46283291Y-32633562D01*
X46287250Y-32633500D01*
X46315161Y-32633500D01*
X46319096Y-32633003D01*
X46319161Y-32632995D01*
X46330998Y-32632062D01*
X46363256Y-32631048D01*
X46367275Y-32630922D01*
X46375194Y-32630673D01*
X46394648Y-32625021D01*
X46414005Y-32621013D01*
X46426235Y-32619468D01*
X46426236Y-32619468D01*
X46434102Y-32618474D01*
X46441473Y-32615555D01*
X46441475Y-32615555D01*
X46475217Y-32602196D01*
X46486447Y-32598351D01*
X46521288Y-32588229D01*
X46521289Y-32588229D01*
X46528898Y-32586018D01*
X46535717Y-32581985D01*
X46535722Y-32581983D01*
X46546333Y-32575707D01*
X46564081Y-32567012D01*
X46582922Y-32559552D01*
X46618692Y-32533564D01*
X46628612Y-32527048D01*
X46659840Y-32508580D01*
X46659843Y-32508578D01*
X46666667Y-32504542D01*
X46680988Y-32490221D01*
X46696022Y-32477380D01*
X46705999Y-32470131D01*
X46712412Y-32465472D01*
X46740603Y-32431395D01*
X46748593Y-32422616D01*
X47792104Y-31379105D01*
X47854416Y-31345079D01*
X47925231Y-31350144D01*
X47932449Y-31353094D01*
X47961677Y-31366108D01*
X47961685Y-31366111D01*
X47967712Y-31368794D01*
X48061113Y-31388647D01*
X48148056Y-31407128D01*
X48148061Y-31407128D01*
X48154513Y-31408500D01*
X48345487Y-31408500D01*
X48351939Y-31407128D01*
X48351944Y-31407128D01*
X48438888Y-31388647D01*
X48532288Y-31368794D01*
X48585553Y-31345079D01*
X48700722Y-31293803D01*
X48700724Y-31293802D01*
X48706752Y-31291118D01*
X48861253Y-31178866D01*
X48989040Y-31036944D01*
X49084527Y-30871556D01*
X49143542Y-30689928D01*
X49153348Y-30596634D01*
X49162814Y-30506565D01*
X49163504Y-30500000D01*
X49143542Y-30310072D01*
X49084527Y-30128444D01*
X48989040Y-29963056D01*
X48976181Y-29948774D01*
X48865675Y-29826045D01*
X48865671Y-29826041D01*
X48861253Y-29821134D01*
X48706752Y-29708882D01*
X48700724Y-29706198D01*
X48700722Y-29706197D01*
X48538319Y-29633891D01*
X48538318Y-29633891D01*
X48532288Y-29631206D01*
X48438888Y-29611353D01*
X48351944Y-29592872D01*
X48351939Y-29592872D01*
X48345487Y-29591500D01*
X48154513Y-29591500D01*
X48148061Y-29592872D01*
X48148056Y-29592872D01*
X48061112Y-29611353D01*
X47967712Y-29631206D01*
X47961682Y-29633891D01*
X47961681Y-29633891D01*
X47799278Y-29706197D01*
X47799276Y-29706198D01*
X47793248Y-29708882D01*
X47787907Y-29712762D01*
X47787906Y-29712763D01*
X47703766Y-29773895D01*
X47638747Y-29821134D01*
X47634336Y-29826033D01*
X47634327Y-29826041D01*
X47593636Y-29871234D01*
X47533190Y-29908474D01*
X47462207Y-29907122D01*
X47406364Y-29871234D01*
X47365673Y-29826041D01*
X47365664Y-29826033D01*
X47361253Y-29821134D01*
X47296234Y-29773895D01*
X47212094Y-29712763D01*
X47212093Y-29712762D01*
X47206752Y-29708882D01*
X47200724Y-29706198D01*
X47200722Y-29706197D01*
X47038319Y-29633891D01*
X47038318Y-29633891D01*
X47032288Y-29631206D01*
X46938888Y-29611353D01*
X46851944Y-29592872D01*
X46851939Y-29592872D01*
X46845487Y-29591500D01*
X46654513Y-29591500D01*
X46648061Y-29592872D01*
X46648056Y-29592872D01*
X46561112Y-29611353D01*
X46467712Y-29631206D01*
X46461682Y-29633891D01*
X46461681Y-29633891D01*
X46299278Y-29706197D01*
X46299276Y-29706198D01*
X46293248Y-29708882D01*
X46138747Y-29821134D01*
X46134329Y-29826041D01*
X46134325Y-29826045D01*
X46023820Y-29948774D01*
X46010960Y-29963056D01*
X45915473Y-30128444D01*
X45856458Y-30310072D01*
X45855768Y-30316633D01*
X45855768Y-30316635D01*
X45839093Y-30475292D01*
X45812080Y-30540949D01*
X45802878Y-30551217D01*
X45774500Y-30579595D01*
X45712188Y-30613621D01*
X45685405Y-30616500D01*
X45485942Y-30616500D01*
X45417821Y-30596498D01*
X45371328Y-30542842D01*
X45360632Y-30477331D01*
X45362814Y-30456568D01*
X45362814Y-30456565D01*
X45363504Y-30450000D01*
X45358954Y-30406706D01*
X45344232Y-30266635D01*
X45344232Y-30266633D01*
X45343542Y-30260072D01*
X45284527Y-30078444D01*
X45189040Y-29913056D01*
X45115863Y-29831785D01*
X45085147Y-29767779D01*
X45083500Y-29747476D01*
X45083500Y-17223767D01*
X45084027Y-17212584D01*
X45085702Y-17205091D01*
X45083562Y-17137014D01*
X45083500Y-17133055D01*
X45083500Y-17105144D01*
X45082995Y-17101144D01*
X45082062Y-17089301D01*
X45082018Y-17087878D01*
X45080673Y-17045110D01*
X45075022Y-17025658D01*
X45071014Y-17006306D01*
X45069467Y-16994063D01*
X45068474Y-16986203D01*
X45065556Y-16978832D01*
X45052200Y-16945097D01*
X45048355Y-16933870D01*
X45038338Y-16899393D01*
X45036018Y-16891407D01*
X45031984Y-16884585D01*
X45031981Y-16884579D01*
X45025706Y-16873968D01*
X45017010Y-16856218D01*
X45012472Y-16844756D01*
X45012469Y-16844751D01*
X45009552Y-16837383D01*
X44983573Y-16801625D01*
X44977057Y-16791707D01*
X44958575Y-16760457D01*
X44954542Y-16753637D01*
X44940218Y-16739313D01*
X44927376Y-16724278D01*
X44915472Y-16707893D01*
X44881406Y-16679711D01*
X44872627Y-16671722D01*
X40675405Y-12474500D01*
X40641379Y-12412188D01*
X40638500Y-12385405D01*
X40638500Y-12132524D01*
X40658502Y-12064403D01*
X40670858Y-12048221D01*
X40744040Y-11966944D01*
X40839527Y-11801556D01*
X40898542Y-11619928D01*
X40902206Y-11585072D01*
X40917814Y-11436565D01*
X40918504Y-11430000D01*
X40898542Y-11240072D01*
X40839527Y-11058444D01*
X40744040Y-10893056D01*
X40681052Y-10823100D01*
X40620675Y-10756045D01*
X40620674Y-10756044D01*
X40616253Y-10751134D01*
X40461752Y-10638882D01*
X40455724Y-10636198D01*
X40455722Y-10636197D01*
X40293319Y-10563891D01*
X40293318Y-10563891D01*
X40287288Y-10561206D01*
X40193888Y-10541353D01*
X40106944Y-10522872D01*
X40106939Y-10522872D01*
X40100487Y-10521500D01*
X39909513Y-10521500D01*
X39903061Y-10522872D01*
X39903056Y-10522872D01*
X39816113Y-10541353D01*
X39722712Y-10561206D01*
X39716682Y-10563891D01*
X39716681Y-10563891D01*
X39554278Y-10636197D01*
X39554276Y-10636198D01*
X39548248Y-10638882D01*
X39393747Y-10751134D01*
X39389326Y-10756044D01*
X39389325Y-10756045D01*
X39328949Y-10823100D01*
X39265960Y-10893056D01*
X39170473Y-11058444D01*
X39111458Y-11240072D01*
X39091496Y-11430000D01*
X39092186Y-11436565D01*
X39107795Y-11585072D01*
X39111458Y-11619928D01*
X39170473Y-11801556D01*
X39265960Y-11966944D01*
X39339137Y-12048215D01*
X39369853Y-12112221D01*
X39371500Y-12132524D01*
X39371500Y-12621233D01*
X39370973Y-12632416D01*
X39369298Y-12639909D01*
X39369547Y-12647835D01*
X39369547Y-12647836D01*
X39371438Y-12707986D01*
X39371500Y-12711945D01*
X39371500Y-12739856D01*
X39371997Y-12743790D01*
X39371997Y-12743791D01*
X39372005Y-12743856D01*
X39372938Y-12755693D01*
X39374327Y-12799889D01*
X39379715Y-12818435D01*
X39379978Y-12819339D01*
X39383987Y-12838700D01*
X39386526Y-12858797D01*
X39389445Y-12866168D01*
X39389445Y-12866170D01*
X39402804Y-12899912D01*
X39406649Y-12911142D01*
X39418982Y-12953593D01*
X39423015Y-12960412D01*
X39423017Y-12960417D01*
X39429293Y-12971028D01*
X39437988Y-12988776D01*
X39445448Y-13007617D01*
X39450110Y-13014033D01*
X39450110Y-13014034D01*
X39471436Y-13043387D01*
X39477952Y-13053307D01*
X39500458Y-13091362D01*
X39514779Y-13105683D01*
X39527619Y-13120716D01*
X39539528Y-13137107D01*
X39545634Y-13142158D01*
X39573605Y-13165298D01*
X39582384Y-13173288D01*
X43779595Y-17370499D01*
X43813621Y-17432811D01*
X43816500Y-17459594D01*
X43816500Y-29661446D01*
X43796498Y-29729567D01*
X43742842Y-29776060D01*
X43672568Y-29786164D01*
X43616439Y-29763382D01*
X43487094Y-29669407D01*
X43487093Y-29669406D01*
X43481752Y-29665526D01*
X43408252Y-29632802D01*
X43354156Y-29586822D01*
X43333501Y-29517695D01*
X43333500Y-19798136D01*
X43334578Y-19781690D01*
X43337432Y-19760015D01*
X43338750Y-19750000D01*
X43333500Y-19710120D01*
X43333500Y-19710115D01*
X43317838Y-19591150D01*
X43300255Y-19548700D01*
X43256524Y-19443124D01*
X43183477Y-19347928D01*
X43183474Y-19347925D01*
X43158987Y-19316013D01*
X43146590Y-19306500D01*
X43133621Y-19296548D01*
X43121230Y-19285681D01*
X35699719Y-11864170D01*
X35665693Y-11801858D01*
X35663159Y-11778284D01*
X35663504Y-11775000D01*
X35647865Y-11626206D01*
X35644232Y-11591635D01*
X35644232Y-11591633D01*
X35643542Y-11585072D01*
X35584527Y-11403444D01*
X35566117Y-11371556D01*
X35547314Y-11338990D01*
X35489040Y-11238056D01*
X35445706Y-11189928D01*
X35365675Y-11101045D01*
X35365674Y-11101044D01*
X35361253Y-11096134D01*
X35237972Y-11006565D01*
X35212094Y-10987763D01*
X35212093Y-10987762D01*
X35206752Y-10983882D01*
X35200724Y-10981198D01*
X35200722Y-10981197D01*
X35038319Y-10908891D01*
X35038318Y-10908891D01*
X35032288Y-10906206D01*
X34938887Y-10886353D01*
X34851944Y-10867872D01*
X34851939Y-10867872D01*
X34845487Y-10866500D01*
X34654513Y-10866500D01*
X34648061Y-10867872D01*
X34648056Y-10867872D01*
X34561113Y-10886353D01*
X34467712Y-10906206D01*
X34461682Y-10908891D01*
X34461681Y-10908891D01*
X34299278Y-10981197D01*
X34299276Y-10981198D01*
X34293248Y-10983882D01*
X34287907Y-10987762D01*
X34287906Y-10987763D01*
X34262028Y-11006565D01*
X34138747Y-11096134D01*
X34134326Y-11101044D01*
X34134325Y-11101045D01*
X34054295Y-11189928D01*
X34010960Y-11238056D01*
X33952686Y-11338990D01*
X33933884Y-11371556D01*
X33915473Y-11403444D01*
X33856458Y-11585072D01*
X33855768Y-11591633D01*
X33855768Y-11591635D01*
X33852135Y-11626206D01*
X33836496Y-11775000D01*
X33837186Y-11781565D01*
X33855488Y-11955695D01*
X33856458Y-11964928D01*
X33915473Y-12146556D01*
X33918776Y-12152278D01*
X33918777Y-12152279D01*
X33967691Y-12237000D01*
X33984429Y-12305995D01*
X33967691Y-12363000D01*
X33915473Y-12453444D01*
X33856458Y-12635072D01*
X33855768Y-12641633D01*
X33855768Y-12641635D01*
X33845445Y-12739856D01*
X33836496Y-12825000D01*
X33837186Y-12831565D01*
X33855690Y-13007617D01*
X33856458Y-13014928D01*
X33915473Y-13196556D01*
X33918776Y-13202278D01*
X33918777Y-13202279D01*
X33952686Y-13261010D01*
X34010960Y-13361944D01*
X34015378Y-13366851D01*
X34015379Y-13366852D01*
X34074263Y-13432249D01*
X34138747Y-13503866D01*
X34293248Y-13616118D01*
X34299276Y-13618802D01*
X34299278Y-13618803D01*
X34461681Y-13691109D01*
X34467712Y-13693794D01*
X34553524Y-13712034D01*
X34648056Y-13732128D01*
X34648061Y-13732128D01*
X34654513Y-13733500D01*
X34845487Y-13733500D01*
X34851939Y-13732128D01*
X34851944Y-13732128D01*
X34946476Y-13712034D01*
X35032288Y-13693794D01*
X35049744Y-13686022D01*
X35120111Y-13676588D01*
X35184408Y-13706694D01*
X35190088Y-13712034D01*
X41183244Y-19705190D01*
X41217270Y-19767502D01*
X41212205Y-19838317D01*
X41183242Y-19883383D01*
X41179699Y-19886926D01*
X41174912Y-19890854D01*
X41088135Y-19996584D01*
X41029457Y-20036549D01*
X40958486Y-20038447D01*
X40901644Y-20005740D01*
X40718647Y-19822742D01*
X40711113Y-19814463D01*
X40707000Y-19807982D01*
X40657347Y-19761355D01*
X40654506Y-19758601D01*
X40634770Y-19738865D01*
X40631573Y-19736385D01*
X40622551Y-19728680D01*
X40590321Y-19698414D01*
X40583375Y-19694595D01*
X40583372Y-19694593D01*
X40572566Y-19688652D01*
X40556047Y-19677801D01*
X40550048Y-19673148D01*
X40540041Y-19665386D01*
X40532772Y-19662241D01*
X40532768Y-19662238D01*
X40499463Y-19647826D01*
X40488813Y-19642609D01*
X40450060Y-19621305D01*
X40430437Y-19616267D01*
X40411734Y-19609863D01*
X40400420Y-19604967D01*
X40400419Y-19604967D01*
X40393145Y-19601819D01*
X40385322Y-19600580D01*
X40385312Y-19600577D01*
X40349476Y-19594901D01*
X40337856Y-19592495D01*
X40302711Y-19583472D01*
X40302710Y-19583472D01*
X40295030Y-19581500D01*
X40274776Y-19581500D01*
X40255065Y-19579949D01*
X40242886Y-19578020D01*
X40235057Y-19576780D01*
X40227165Y-19577526D01*
X40191039Y-19580941D01*
X40179181Y-19581500D01*
X8278200Y-19581500D01*
X8210079Y-19561498D01*
X8190853Y-19545157D01*
X8190580Y-19545460D01*
X8185668Y-19541037D01*
X8181253Y-19536134D01*
X8159671Y-19520454D01*
X8032094Y-19427763D01*
X8032093Y-19427762D01*
X8026752Y-19423882D01*
X8020724Y-19421198D01*
X8020722Y-19421197D01*
X7858319Y-19348891D01*
X7858318Y-19348891D01*
X7852288Y-19346206D01*
X7758887Y-19326353D01*
X7671944Y-19307872D01*
X7671939Y-19307872D01*
X7665487Y-19306500D01*
X7474513Y-19306500D01*
X7468061Y-19307872D01*
X7468056Y-19307872D01*
X7381113Y-19326353D01*
X7287712Y-19346206D01*
X7281682Y-19348891D01*
X7281681Y-19348891D01*
X7119278Y-19421197D01*
X7119276Y-19421198D01*
X7113248Y-19423882D01*
X6958747Y-19536134D01*
X6954326Y-19541044D01*
X6954325Y-19541045D01*
X6845203Y-19662238D01*
X6830960Y-19678056D01*
X6735473Y-19843444D01*
X6676458Y-20025072D01*
X6675768Y-20031633D01*
X6675768Y-20031635D01*
X6665676Y-20127654D01*
X6656496Y-20215000D01*
X2247503Y-20215000D01*
X2176138Y-20165030D01*
X2117525Y-20123989D01*
X2069513Y-20103212D01*
X1944675Y-20049190D01*
X1944671Y-20049189D01*
X1938816Y-20046655D01*
X1932569Y-20045350D01*
X1932566Y-20045349D01*
X1752943Y-20007824D01*
X1752938Y-20007823D01*
X1748207Y-20006835D01*
X1741815Y-20006500D01*
X1598837Y-20006500D01*
X1529549Y-20013538D01*
X1460122Y-20020590D01*
X1460121Y-20020590D01*
X1453773Y-20021235D01*
X1398849Y-20038447D01*
X1274049Y-20077556D01*
X1274044Y-20077558D01*
X1267959Y-20079465D01*
X1251411Y-20088638D01*
X1103229Y-20170777D01*
X1103226Y-20170779D01*
X1097650Y-20173870D01*
X1092809Y-20178019D01*
X1092805Y-20178022D01*
X1042003Y-20221565D01*
X949802Y-20300591D01*
X830454Y-20454453D01*
X827638Y-20460176D01*
X827636Y-20460179D01*
X747555Y-20622926D01*
X699532Y-20675217D01*
X630862Y-20693243D01*
X563347Y-20671283D01*
X518423Y-20616307D01*
X508500Y-20567296D01*
X508500Y-16575604D01*
X1470287Y-16575604D01*
X1480067Y-16786899D01*
X1481471Y-16792724D01*
X1481471Y-16792725D01*
X1518193Y-16945097D01*
X1529625Y-16992534D01*
X1532107Y-16997992D01*
X1532108Y-16997996D01*
X1575553Y-17093546D01*
X1617174Y-17185087D01*
X1739554Y-17357611D01*
X1892350Y-17503881D01*
X2070048Y-17618620D01*
X2075614Y-17620863D01*
X2260668Y-17695442D01*
X2260671Y-17695443D01*
X2266237Y-17697686D01*
X2473837Y-17738228D01*
X2479399Y-17738500D01*
X3235346Y-17738500D01*
X3393066Y-17723452D01*
X3596034Y-17663908D01*
X3679611Y-17620863D01*
X3778749Y-17569804D01*
X3778752Y-17569802D01*
X3784080Y-17567058D01*
X3950420Y-17436396D01*
X3954352Y-17431865D01*
X3954355Y-17431862D01*
X4085121Y-17281167D01*
X4089052Y-17276637D01*
X4092052Y-17271451D01*
X4092055Y-17271447D01*
X4191967Y-17098742D01*
X4194973Y-17093546D01*
X4264361Y-16893729D01*
X4283685Y-16760457D01*
X4293852Y-16690336D01*
X4293852Y-16690333D01*
X4294713Y-16684396D01*
X4289677Y-16575604D01*
X5550287Y-16575604D01*
X5560067Y-16786899D01*
X5561471Y-16792724D01*
X5561471Y-16792725D01*
X5598193Y-16945097D01*
X5609625Y-16992534D01*
X5612107Y-16997992D01*
X5612108Y-16997996D01*
X5655553Y-17093546D01*
X5697174Y-17185087D01*
X5819554Y-17357611D01*
X5972350Y-17503881D01*
X6150048Y-17618620D01*
X6155614Y-17620863D01*
X6340668Y-17695442D01*
X6340671Y-17695443D01*
X6346237Y-17697686D01*
X6553837Y-17738228D01*
X6559399Y-17738500D01*
X7515346Y-17738500D01*
X7673066Y-17723452D01*
X7876034Y-17663908D01*
X7959611Y-17620863D01*
X8058749Y-17569804D01*
X8058752Y-17569802D01*
X8064080Y-17567058D01*
X8230420Y-17436396D01*
X8234352Y-17431865D01*
X8234355Y-17431862D01*
X8365121Y-17281167D01*
X8369052Y-17276637D01*
X8372052Y-17271451D01*
X8372055Y-17271447D01*
X8471967Y-17098742D01*
X8474973Y-17093546D01*
X8544361Y-16893729D01*
X8563685Y-16760457D01*
X8573852Y-16690336D01*
X8573852Y-16690333D01*
X8574713Y-16684396D01*
X8564933Y-16473101D01*
X8515375Y-16267466D01*
X8472025Y-16172122D01*
X8430306Y-16080368D01*
X8427826Y-16074913D01*
X8305446Y-15902389D01*
X8152650Y-15756119D01*
X7974952Y-15641380D01*
X7914854Y-15617160D01*
X7784332Y-15564558D01*
X7784329Y-15564557D01*
X7778763Y-15562314D01*
X7571163Y-15521772D01*
X7565601Y-15521500D01*
X7552999Y-15521500D01*
X7484878Y-15501498D01*
X7438385Y-15447842D01*
X7428281Y-15377568D01*
X7429752Y-15369304D01*
X7444627Y-15299319D01*
X7446000Y-15292860D01*
X7446000Y-15107140D01*
X7407387Y-14925479D01*
X7331848Y-14755817D01*
X7260147Y-14657128D01*
X7226568Y-14610910D01*
X7226566Y-14610908D01*
X7222685Y-14605566D01*
X7084669Y-14481296D01*
X6923831Y-14388436D01*
X6747202Y-14331046D01*
X6740639Y-14330356D01*
X6740638Y-14330356D01*
X6716442Y-14327813D01*
X6608806Y-14316500D01*
X6516194Y-14316500D01*
X6408558Y-14327813D01*
X6384362Y-14330356D01*
X6384361Y-14330356D01*
X6377798Y-14331046D01*
X6201169Y-14388436D01*
X6040331Y-14481296D01*
X5902315Y-14605566D01*
X5793152Y-14755816D01*
X5717613Y-14925479D01*
X5679000Y-15107140D01*
X5679000Y-15292860D01*
X5680372Y-15299313D01*
X5680372Y-15299317D01*
X5697005Y-15377568D01*
X5717613Y-15474521D01*
X5720297Y-15480550D01*
X5720298Y-15480552D01*
X5770990Y-15594406D01*
X5793152Y-15644183D01*
X5831269Y-15696646D01*
X5851468Y-15724448D01*
X5875327Y-15791316D01*
X5859246Y-15860467D01*
X5844697Y-15881089D01*
X5755948Y-15983363D01*
X5752948Y-15988549D01*
X5752945Y-15988553D01*
X5705812Y-16070026D01*
X5650027Y-16166454D01*
X5580639Y-16366271D01*
X5550287Y-16575604D01*
X4289677Y-16575604D01*
X4284933Y-16473101D01*
X4235375Y-16267466D01*
X4192025Y-16172122D01*
X4150306Y-16080368D01*
X4147826Y-16074913D01*
X4025446Y-15902389D01*
X3872650Y-15756119D01*
X3694952Y-15641380D01*
X3634854Y-15617160D01*
X3504332Y-15564558D01*
X3504329Y-15564557D01*
X3498763Y-15562314D01*
X3291163Y-15521772D01*
X3285601Y-15521500D01*
X2529654Y-15521500D01*
X2371934Y-15536548D01*
X2168966Y-15596092D01*
X2163639Y-15598836D01*
X2163638Y-15598836D01*
X1986251Y-15690196D01*
X1986248Y-15690198D01*
X1980920Y-15692942D01*
X1814580Y-15823604D01*
X1810648Y-15828135D01*
X1810645Y-15828138D01*
X1741974Y-15907275D01*
X1675948Y-15983363D01*
X1672948Y-15988549D01*
X1672945Y-15988553D01*
X1625812Y-16070026D01*
X1570027Y-16166454D01*
X1500639Y-16366271D01*
X1470287Y-16575604D01*
X508500Y-16575604D01*
X508500Y-13750000D01*
X22581496Y-13750000D01*
X22601458Y-13939928D01*
X22660473Y-14121556D01*
X22755960Y-14286944D01*
X22760378Y-14291851D01*
X22760379Y-14291852D01*
X22797506Y-14333086D01*
X22883747Y-14428866D01*
X23038248Y-14541118D01*
X23044276Y-14543802D01*
X23044278Y-14543803D01*
X23173069Y-14601144D01*
X23212712Y-14618794D01*
X23306113Y-14638647D01*
X23393056Y-14657128D01*
X23393061Y-14657128D01*
X23399513Y-14658500D01*
X23590487Y-14658500D01*
X23596939Y-14657128D01*
X23596944Y-14657128D01*
X23683887Y-14638647D01*
X23777288Y-14618794D01*
X23816931Y-14601144D01*
X23945722Y-14543803D01*
X23945724Y-14543802D01*
X23951752Y-14541118D01*
X24106253Y-14428866D01*
X24192494Y-14333086D01*
X24229621Y-14291852D01*
X24229622Y-14291851D01*
X24234040Y-14286944D01*
X24329527Y-14121556D01*
X24388542Y-13939928D01*
X24408504Y-13750000D01*
X24388542Y-13560072D01*
X24329527Y-13378444D01*
X24322835Y-13366852D01*
X24237341Y-13218774D01*
X24234040Y-13213056D01*
X24160863Y-13131785D01*
X24130147Y-13067779D01*
X24128500Y-13047476D01*
X24128500Y-10284500D01*
X24148502Y-10216379D01*
X24202158Y-10169886D01*
X24254500Y-10158500D01*
X27136733Y-10158500D01*
X27147916Y-10159027D01*
X27155409Y-10160702D01*
X27163335Y-10160453D01*
X27163336Y-10160453D01*
X27223486Y-10158562D01*
X27227445Y-10158500D01*
X27255356Y-10158500D01*
X27259291Y-10158003D01*
X27259356Y-10157995D01*
X27271193Y-10157062D01*
X27303451Y-10156048D01*
X27307470Y-10155922D01*
X27315389Y-10155673D01*
X27334843Y-10150021D01*
X27354200Y-10146013D01*
X27366430Y-10144468D01*
X27366431Y-10144468D01*
X27374297Y-10143474D01*
X27381668Y-10140555D01*
X27381670Y-10140555D01*
X27415412Y-10127196D01*
X27426642Y-10123351D01*
X27461483Y-10113229D01*
X27461484Y-10113229D01*
X27469093Y-10111018D01*
X27475912Y-10106985D01*
X27475917Y-10106983D01*
X27486528Y-10100707D01*
X27504276Y-10092012D01*
X27523117Y-10084552D01*
X27558887Y-10058564D01*
X27568807Y-10052048D01*
X27600035Y-10033580D01*
X27600038Y-10033578D01*
X27606862Y-10029542D01*
X27621183Y-10015221D01*
X27636217Y-10002380D01*
X27646194Y-9995131D01*
X27652607Y-9990472D01*
X27680798Y-9956395D01*
X27688788Y-9947616D01*
X29160500Y-8475905D01*
X29222812Y-8441879D01*
X29249595Y-8439000D01*
X29305487Y-8439000D01*
X29311939Y-8437628D01*
X29311944Y-8437628D01*
X29398887Y-8419147D01*
X29492288Y-8399294D01*
X29498319Y-8396609D01*
X29660722Y-8324303D01*
X29660724Y-8324302D01*
X29666752Y-8321618D01*
X29714477Y-8286944D01*
X29815914Y-8213245D01*
X29821253Y-8209366D01*
X29825668Y-8204463D01*
X29830580Y-8200040D01*
X29831705Y-8201289D01*
X29885014Y-8168449D01*
X29918200Y-8164000D01*
X41617232Y-8164000D01*
X41685353Y-8184002D01*
X41726351Y-8227000D01*
X41757658Y-8281226D01*
X41757661Y-8281231D01*
X41760960Y-8286944D01*
X41765378Y-8291851D01*
X41765379Y-8291852D01*
X41794598Y-8324303D01*
X41888747Y-8428866D01*
X41987843Y-8500864D01*
X42027910Y-8529974D01*
X42043248Y-8541118D01*
X42049276Y-8543802D01*
X42049278Y-8543803D01*
X42201210Y-8611447D01*
X42217712Y-8618794D01*
X42311113Y-8638647D01*
X42398056Y-8657128D01*
X42398061Y-8657128D01*
X42404513Y-8658500D01*
X42595487Y-8658500D01*
X42601939Y-8657128D01*
X42601944Y-8657128D01*
X42688887Y-8638647D01*
X42782288Y-8618794D01*
X42798790Y-8611447D01*
X42950722Y-8543803D01*
X42950724Y-8543802D01*
X42956752Y-8541118D01*
X42972091Y-8529974D01*
X43012157Y-8500864D01*
X43111253Y-8428866D01*
X43205402Y-8324303D01*
X43234621Y-8291852D01*
X43234622Y-8291851D01*
X43239040Y-8286944D01*
X43334527Y-8121556D01*
X43393542Y-7939928D01*
X43413504Y-7750000D01*
X43393542Y-7560072D01*
X43334527Y-7378444D01*
X43239040Y-7213056D01*
X43195977Y-7165229D01*
X43115675Y-7076045D01*
X43115674Y-7076044D01*
X43111253Y-7071134D01*
X43012157Y-6999136D01*
X42962094Y-6962763D01*
X42962093Y-6962762D01*
X42956752Y-6958882D01*
X42950724Y-6956198D01*
X42950722Y-6956197D01*
X42788319Y-6883891D01*
X42788318Y-6883891D01*
X42782288Y-6881206D01*
X42666268Y-6856545D01*
X42601944Y-6842872D01*
X42601939Y-6842872D01*
X42595487Y-6841500D01*
X42404513Y-6841500D01*
X42398061Y-6842872D01*
X42398056Y-6842872D01*
X42333732Y-6856545D01*
X42217712Y-6881206D01*
X42211685Y-6883889D01*
X42211677Y-6883892D01*
X42206703Y-6886107D01*
X42155455Y-6897000D01*
X29918200Y-6897000D01*
X29850079Y-6876998D01*
X29830853Y-6860657D01*
X29830580Y-6860960D01*
X29825668Y-6856537D01*
X29821253Y-6851634D01*
X29666752Y-6739382D01*
X29660724Y-6736698D01*
X29660722Y-6736697D01*
X29498319Y-6664391D01*
X29498318Y-6664391D01*
X29492288Y-6661706D01*
X29398887Y-6641853D01*
X29311944Y-6623372D01*
X29311939Y-6623372D01*
X29305487Y-6622000D01*
X29114513Y-6622000D01*
X29108061Y-6623372D01*
X29108056Y-6623372D01*
X29021113Y-6641853D01*
X28927712Y-6661706D01*
X28921682Y-6664391D01*
X28921681Y-6664391D01*
X28759278Y-6736697D01*
X28759276Y-6736698D01*
X28753248Y-6739382D01*
X28598747Y-6851634D01*
X28594326Y-6856544D01*
X28594325Y-6856545D01*
X28502181Y-6958882D01*
X28470960Y-6993556D01*
X28375473Y-7158944D01*
X28316458Y-7340572D01*
X28315768Y-7347133D01*
X28315768Y-7347135D01*
X28311817Y-7384729D01*
X28299570Y-7501258D01*
X28299093Y-7505793D01*
X28272080Y-7571450D01*
X28262878Y-7581718D01*
X26990000Y-8854595D01*
X26927688Y-8888621D01*
X26900905Y-8891500D01*
X24203200Y-8891500D01*
X24135079Y-8871498D01*
X24115853Y-8855157D01*
X24115580Y-8855460D01*
X24110668Y-8851037D01*
X24106253Y-8846134D01*
X23951752Y-8733882D01*
X23945724Y-8731198D01*
X23945722Y-8731197D01*
X23783319Y-8658891D01*
X23783318Y-8658891D01*
X23777288Y-8656206D01*
X23683887Y-8636353D01*
X23596944Y-8617872D01*
X23596939Y-8617872D01*
X23590487Y-8616500D01*
X23399513Y-8616500D01*
X23393061Y-8617872D01*
X23393056Y-8617872D01*
X23306113Y-8636353D01*
X23212712Y-8656206D01*
X23206682Y-8658891D01*
X23206681Y-8658891D01*
X23044278Y-8731197D01*
X23044276Y-8731198D01*
X23038248Y-8733882D01*
X22883747Y-8846134D01*
X22879326Y-8851044D01*
X22879325Y-8851045D01*
X22779560Y-8961846D01*
X22755960Y-8988056D01*
X22660473Y-9153444D01*
X22601458Y-9335072D01*
X22581496Y-9525000D01*
X22601458Y-9714928D01*
X22660473Y-9896556D01*
X22755960Y-10061944D01*
X22829137Y-10143215D01*
X22859853Y-10207221D01*
X22861500Y-10227524D01*
X22861500Y-13047476D01*
X22841498Y-13115597D01*
X22829142Y-13131779D01*
X22755960Y-13213056D01*
X22752659Y-13218774D01*
X22667166Y-13366852D01*
X22660473Y-13378444D01*
X22601458Y-13560072D01*
X22581496Y-13750000D01*
X508500Y-13750000D01*
X508500Y-12149500D01*
X5186250Y-12149500D01*
X5191500Y-12189380D01*
X5191500Y-12189385D01*
X5203103Y-12277519D01*
X5207162Y-12308351D01*
X5268476Y-12456376D01*
X5273503Y-12462927D01*
X5273504Y-12462929D01*
X5341520Y-12551569D01*
X5341526Y-12551575D01*
X5366013Y-12583487D01*
X5372568Y-12588517D01*
X5391379Y-12602952D01*
X5403770Y-12613819D01*
X5450281Y-12660330D01*
X5484307Y-12722642D01*
X5486841Y-12746216D01*
X5486496Y-12749500D01*
X5487186Y-12756065D01*
X5497157Y-12850930D01*
X5506458Y-12939428D01*
X5565473Y-13121056D01*
X5568776Y-13126778D01*
X5568777Y-13126779D01*
X5574740Y-13137107D01*
X5660960Y-13286444D01*
X5665378Y-13291351D01*
X5665379Y-13291352D01*
X5738644Y-13372721D01*
X5788747Y-13428366D01*
X5943248Y-13540618D01*
X5949276Y-13543302D01*
X5949278Y-13543303D01*
X6111681Y-13615609D01*
X6117712Y-13618294D01*
X6211113Y-13638147D01*
X6298056Y-13656628D01*
X6298061Y-13656628D01*
X6304513Y-13658000D01*
X6495487Y-13658000D01*
X6501939Y-13656628D01*
X6501944Y-13656628D01*
X6588887Y-13638147D01*
X6682288Y-13618294D01*
X6688319Y-13615609D01*
X6850722Y-13543303D01*
X6850724Y-13543302D01*
X6856752Y-13540618D01*
X7011253Y-13428366D01*
X7061356Y-13372721D01*
X7134621Y-13291352D01*
X7134622Y-13291351D01*
X7139040Y-13286444D01*
X7225260Y-13137107D01*
X7231223Y-13126779D01*
X7231224Y-13126778D01*
X7234527Y-13121056D01*
X7293542Y-12939428D01*
X7302844Y-12850930D01*
X7312814Y-12756065D01*
X7313504Y-12749500D01*
X7300950Y-12630058D01*
X7294232Y-12566135D01*
X7294232Y-12566133D01*
X7293542Y-12559572D01*
X7234527Y-12377944D01*
X7139040Y-12212556D01*
X7084767Y-12152279D01*
X7015675Y-12075545D01*
X7015674Y-12075544D01*
X7011253Y-12070634D01*
X6856752Y-11958382D01*
X6850726Y-11955699D01*
X6850719Y-11955695D01*
X6789371Y-11928382D01*
X6735275Y-11882402D01*
X6714625Y-11814475D01*
X6733977Y-11746167D01*
X6766558Y-11711339D01*
X6771132Y-11708016D01*
X6811253Y-11678866D01*
X6889796Y-11591635D01*
X6934621Y-11541852D01*
X6934622Y-11541851D01*
X6939040Y-11536944D01*
X7012488Y-11409729D01*
X7031223Y-11377279D01*
X7031224Y-11377278D01*
X7034527Y-11371556D01*
X7093542Y-11189928D01*
X7096676Y-11160115D01*
X7112814Y-11006565D01*
X7113504Y-11000000D01*
X7101582Y-10886570D01*
X7094232Y-10816635D01*
X7094232Y-10816633D01*
X7093542Y-10810072D01*
X7034527Y-10628444D01*
X6939040Y-10463056D01*
X6888600Y-10407036D01*
X6857884Y-10343031D01*
X6866648Y-10272577D01*
X6912110Y-10218046D01*
X6923835Y-10211572D01*
X6923831Y-10211564D01*
X7011926Y-10160702D01*
X7084669Y-10118704D01*
X7090899Y-10113095D01*
X7217774Y-9998856D01*
X7217775Y-9998855D01*
X7222685Y-9994434D01*
X7256701Y-9947616D01*
X7327967Y-9849526D01*
X7327968Y-9849525D01*
X7331848Y-9844184D01*
X7386602Y-9721206D01*
X7404702Y-9680552D01*
X7404702Y-9680551D01*
X7407387Y-9674521D01*
X7437773Y-9531565D01*
X7444628Y-9499317D01*
X7444628Y-9499313D01*
X7446000Y-9492860D01*
X7446000Y-9307140D01*
X7429122Y-9227735D01*
X7434524Y-9156945D01*
X7477341Y-9100313D01*
X7540401Y-9076110D01*
X7673066Y-9063452D01*
X7876034Y-9003908D01*
X7881362Y-9001164D01*
X8058749Y-8909804D01*
X8058752Y-8909802D01*
X8064080Y-8907058D01*
X8230420Y-8776396D01*
X8234352Y-8771865D01*
X8234355Y-8771862D01*
X8365121Y-8621167D01*
X8369052Y-8616637D01*
X8372052Y-8611451D01*
X8372055Y-8611447D01*
X8471967Y-8438742D01*
X8474973Y-8433546D01*
X8544361Y-8233729D01*
X8547331Y-8213245D01*
X8573852Y-8030336D01*
X8573852Y-8030333D01*
X8574713Y-8024396D01*
X8564933Y-7813101D01*
X8515375Y-7607466D01*
X8499000Y-7571450D01*
X8430306Y-7420368D01*
X8427826Y-7414913D01*
X8305446Y-7242389D01*
X8152650Y-7096119D01*
X7974952Y-6981380D01*
X7912465Y-6956197D01*
X7784332Y-6904558D01*
X7784329Y-6904557D01*
X7778763Y-6902314D01*
X7571163Y-6861772D01*
X7565601Y-6861500D01*
X6609654Y-6861500D01*
X6451934Y-6876548D01*
X6248966Y-6936092D01*
X6243639Y-6938836D01*
X6243638Y-6938836D01*
X6066251Y-7030196D01*
X6066248Y-7030198D01*
X6060920Y-7032942D01*
X5894580Y-7163604D01*
X5890648Y-7168135D01*
X5890645Y-7168138D01*
X5821974Y-7247275D01*
X5755948Y-7323363D01*
X5752948Y-7328549D01*
X5752945Y-7328553D01*
X5705812Y-7410026D01*
X5650027Y-7506454D01*
X5580639Y-7706271D01*
X5579778Y-7712206D01*
X5579778Y-7712208D01*
X5573347Y-7756565D01*
X5550287Y-7915604D01*
X5560067Y-8126899D01*
X5561471Y-8132724D01*
X5561471Y-8132725D01*
X5599821Y-8291852D01*
X5609625Y-8332534D01*
X5612107Y-8337992D01*
X5612108Y-8337996D01*
X5653425Y-8428866D01*
X5697174Y-8525087D01*
X5819554Y-8697611D01*
X5835157Y-8712547D01*
X5870532Y-8774102D01*
X5867013Y-8845012D01*
X5849961Y-8877625D01*
X5793152Y-8955816D01*
X5790468Y-8961844D01*
X5790467Y-8961846D01*
X5720298Y-9119448D01*
X5717613Y-9125479D01*
X5679000Y-9307140D01*
X5679000Y-9492860D01*
X5680372Y-9499313D01*
X5680372Y-9499317D01*
X5687227Y-9531565D01*
X5717613Y-9674521D01*
X5720297Y-9680550D01*
X5720298Y-9680552D01*
X5738399Y-9721206D01*
X5793152Y-9844183D01*
X5797032Y-9849524D01*
X5797033Y-9849525D01*
X5889703Y-9977075D01*
X5913562Y-10043943D01*
X5897481Y-10113095D01*
X5846567Y-10162575D01*
X5839016Y-10166243D01*
X5749278Y-10206197D01*
X5749276Y-10206198D01*
X5743248Y-10208882D01*
X5737907Y-10212762D01*
X5737906Y-10212763D01*
X5687843Y-10249136D01*
X5588747Y-10321134D01*
X5460960Y-10463056D01*
X5365473Y-10628444D01*
X5306458Y-10810072D01*
X5305767Y-10816643D01*
X5304395Y-10823100D01*
X5302466Y-10822690D01*
X5280738Y-10877143D01*
X5273504Y-10886570D01*
X5273500Y-10886576D01*
X5268476Y-10893124D01*
X5265317Y-10900750D01*
X5265316Y-10900752D01*
X5263057Y-10906206D01*
X5207162Y-11041149D01*
X5207162Y-11041150D01*
X5191500Y-11160115D01*
X5191500Y-11160120D01*
X5186250Y-11200000D01*
X5187328Y-11208188D01*
X5190422Y-11231690D01*
X5191500Y-11248136D01*
X5191500Y-12101364D01*
X5190422Y-12117807D01*
X5186250Y-12149500D01*
X508500Y-12149500D01*
X508500Y-7915604D01*
X1470287Y-7915604D01*
X1480067Y-8126899D01*
X1481471Y-8132724D01*
X1481471Y-8132725D01*
X1519821Y-8291852D01*
X1529625Y-8332534D01*
X1532107Y-8337992D01*
X1532108Y-8337996D01*
X1573425Y-8428866D01*
X1617174Y-8525087D01*
X1739554Y-8697611D01*
X1892350Y-8843881D01*
X2070048Y-8958620D01*
X2075614Y-8960863D01*
X2260668Y-9035442D01*
X2260671Y-9035443D01*
X2266237Y-9037686D01*
X2473837Y-9078228D01*
X2479399Y-9078500D01*
X3235346Y-9078500D01*
X3393066Y-9063452D01*
X3596034Y-9003908D01*
X3601362Y-9001164D01*
X3778749Y-8909804D01*
X3778752Y-8909802D01*
X3784080Y-8907058D01*
X3950420Y-8776396D01*
X3954352Y-8771865D01*
X3954355Y-8771862D01*
X4085121Y-8621167D01*
X4089052Y-8616637D01*
X4092052Y-8611451D01*
X4092055Y-8611447D01*
X4191967Y-8438742D01*
X4194973Y-8433546D01*
X4264361Y-8233729D01*
X4267331Y-8213245D01*
X4293852Y-8030336D01*
X4293852Y-8030333D01*
X4294713Y-8024396D01*
X4284933Y-7813101D01*
X4235375Y-7607466D01*
X4219000Y-7571450D01*
X4150306Y-7420368D01*
X4147826Y-7414913D01*
X4025446Y-7242389D01*
X3872650Y-7096119D01*
X3694952Y-6981380D01*
X3632465Y-6956197D01*
X3504332Y-6904558D01*
X3504329Y-6904557D01*
X3498763Y-6902314D01*
X3291163Y-6861772D01*
X3285601Y-6861500D01*
X2529654Y-6861500D01*
X2371934Y-6876548D01*
X2168966Y-6936092D01*
X2163639Y-6938836D01*
X2163638Y-6938836D01*
X1986251Y-7030196D01*
X1986248Y-7030198D01*
X1980920Y-7032942D01*
X1814580Y-7163604D01*
X1810648Y-7168135D01*
X1810645Y-7168138D01*
X1741974Y-7247275D01*
X1675948Y-7323363D01*
X1672948Y-7328549D01*
X1672945Y-7328553D01*
X1625812Y-7410026D01*
X1570027Y-7506454D01*
X1500639Y-7706271D01*
X1499778Y-7712206D01*
X1499778Y-7712208D01*
X1493347Y-7756565D01*
X1470287Y-7915604D01*
X508500Y-7915604D01*
X508500Y-3332703D01*
X1090743Y-3332703D01*
X1128268Y-3617734D01*
X1204129Y-3895036D01*
X1316923Y-4159476D01*
X1464561Y-4406161D01*
X1644313Y-4630528D01*
X1852851Y-4828423D01*
X2086317Y-4996186D01*
X2090112Y-4998195D01*
X2090113Y-4998196D01*
X2111869Y-5009715D01*
X2340392Y-5130712D01*
X2610373Y-5229511D01*
X2891264Y-5290755D01*
X2919841Y-5293004D01*
X3114282Y-5308307D01*
X3114291Y-5308307D01*
X3116739Y-5308500D01*
X3272271Y-5308500D01*
X3274407Y-5308354D01*
X3274418Y-5308354D01*
X3482548Y-5294165D01*
X3482554Y-5294164D01*
X3486825Y-5293873D01*
X3491020Y-5293004D01*
X3491022Y-5293004D01*
X3627583Y-5264724D01*
X3768342Y-5235574D01*
X4039343Y-5139607D01*
X4294812Y-5007750D01*
X4298313Y-5005289D01*
X4298317Y-5005287D01*
X4412417Y-4925096D01*
X4530023Y-4842441D01*
X4740622Y-4646740D01*
X4922713Y-4424268D01*
X5072927Y-4179142D01*
X5188483Y-3915898D01*
X5267244Y-3639406D01*
X5307751Y-3354784D01*
X5307845Y-3336951D01*
X5307867Y-3332703D01*
X49690743Y-3332703D01*
X49728268Y-3617734D01*
X49804129Y-3895036D01*
X49916923Y-4159476D01*
X50064561Y-4406161D01*
X50244313Y-4630528D01*
X50452851Y-4828423D01*
X50686317Y-4996186D01*
X50690112Y-4998195D01*
X50690113Y-4998196D01*
X50711869Y-5009715D01*
X50940392Y-5130712D01*
X51210373Y-5229511D01*
X51491264Y-5290755D01*
X51519841Y-5293004D01*
X51714282Y-5308307D01*
X51714291Y-5308307D01*
X51716739Y-5308500D01*
X51872271Y-5308500D01*
X51874407Y-5308354D01*
X51874418Y-5308354D01*
X52082548Y-5294165D01*
X52082554Y-5294164D01*
X52086825Y-5293873D01*
X52091020Y-5293004D01*
X52091022Y-5293004D01*
X52227583Y-5264724D01*
X52368342Y-5235574D01*
X52639343Y-5139607D01*
X52894812Y-5007750D01*
X52898313Y-5005289D01*
X52898317Y-5005287D01*
X53012417Y-4925096D01*
X53130023Y-4842441D01*
X53340622Y-4646740D01*
X53522713Y-4424268D01*
X53672927Y-4179142D01*
X53788483Y-3915898D01*
X53867244Y-3639406D01*
X53907751Y-3354784D01*
X53907845Y-3336951D01*
X53909235Y-3071583D01*
X53909235Y-3071576D01*
X53909257Y-3067297D01*
X53871732Y-2782266D01*
X53795871Y-2504964D01*
X53683077Y-2240524D01*
X53535439Y-1993839D01*
X53355687Y-1769472D01*
X53147149Y-1571577D01*
X52913683Y-1403814D01*
X52891843Y-1392250D01*
X52868654Y-1379972D01*
X52659608Y-1269288D01*
X52389627Y-1170489D01*
X52108736Y-1109245D01*
X52077685Y-1106801D01*
X51885718Y-1091693D01*
X51885709Y-1091693D01*
X51883261Y-1091500D01*
X51727729Y-1091500D01*
X51725593Y-1091646D01*
X51725582Y-1091646D01*
X51517452Y-1105835D01*
X51517446Y-1105836D01*
X51513175Y-1106127D01*
X51508980Y-1106996D01*
X51508978Y-1106996D01*
X51372417Y-1135276D01*
X51231658Y-1164426D01*
X50960657Y-1260393D01*
X50705188Y-1392250D01*
X50701687Y-1394711D01*
X50701683Y-1394713D01*
X50691594Y-1401804D01*
X50469977Y-1557559D01*
X50259378Y-1753260D01*
X50077287Y-1975732D01*
X49927073Y-2220858D01*
X49811517Y-2484102D01*
X49732756Y-2760594D01*
X49692249Y-3045216D01*
X49692227Y-3049505D01*
X49692226Y-3049512D01*
X49690765Y-3328417D01*
X49690743Y-3332703D01*
X5307867Y-3332703D01*
X5309235Y-3071583D01*
X5309235Y-3071576D01*
X5309257Y-3067297D01*
X5271732Y-2782266D01*
X5195871Y-2504964D01*
X5083077Y-2240524D01*
X4935439Y-1993839D01*
X4755687Y-1769472D01*
X4547149Y-1571577D01*
X4313683Y-1403814D01*
X4291843Y-1392250D01*
X4268654Y-1379972D01*
X4059608Y-1269288D01*
X3789627Y-1170489D01*
X3508736Y-1109245D01*
X3477685Y-1106801D01*
X3285718Y-1091693D01*
X3285709Y-1091693D01*
X3283261Y-1091500D01*
X3127729Y-1091500D01*
X3125593Y-1091646D01*
X3125582Y-1091646D01*
X2917452Y-1105835D01*
X2917446Y-1105836D01*
X2913175Y-1106127D01*
X2908980Y-1106996D01*
X2908978Y-1106996D01*
X2772417Y-1135276D01*
X2631658Y-1164426D01*
X2360657Y-1260393D01*
X2105188Y-1392250D01*
X2101687Y-1394711D01*
X2101683Y-1394713D01*
X2091594Y-1401804D01*
X1869977Y-1557559D01*
X1659378Y-1753260D01*
X1477287Y-1975732D01*
X1327073Y-2220858D01*
X1211517Y-2484102D01*
X1132756Y-2760594D01*
X1092249Y-3045216D01*
X1092227Y-3049505D01*
X1092226Y-3049512D01*
X1090765Y-3328417D01*
X1090743Y-3332703D01*
X508500Y-3332703D01*
X508500Y-1053250D01*
X510246Y-1032345D01*
X512770Y-1017344D01*
X512770Y-1017341D01*
X513576Y-1012552D01*
X513729Y-1000000D01*
X513040Y-995188D01*
X512723Y-990327D01*
X513008Y-990308D01*
X512607Y-963549D01*
X519234Y-904736D01*
X525513Y-877229D01*
X552485Y-800147D01*
X564727Y-774726D01*
X608178Y-705574D01*
X625770Y-683515D01*
X683515Y-625770D01*
X705574Y-608178D01*
X774726Y-564727D01*
X800147Y-552485D01*
X877228Y-525513D01*
X904736Y-519234D01*
X960226Y-512982D01*
X975868Y-513077D01*
X975879Y-512200D01*
X984851Y-512310D01*
X993724Y-513691D01*
X1002626Y-512527D01*
X1002628Y-512527D01*
X1017951Y-510523D01*
X1025286Y-509564D01*
X1041621Y-508500D01*
X53950633Y-508500D01*
X53970018Y-510000D01*
G37*
%TD.AperFunction*%
%TD*%
M02*
