%TF.GenerationSoftware,KiCad,Pcbnew,6.0.11-2627ca5db0~126~ubuntu22.04.1*%
%TF.CreationDate,2023-08-27T22:06:58+02:00*%
%TF.ProjectId,E73-2G4M08S1C-52840,4537332d-3247-4344-9d30-385331432d35,rev?*%
%TF.SameCoordinates,Original*%
%TF.FileFunction,Legend,Bot*%
%TF.FilePolarity,Positive*%
%FSLAX46Y46*%
G04 Gerber Fmt 4.6, Leading zero omitted, Abs format (unit mm)*
G04 Created by KiCad (PCBNEW 6.0.11-2627ca5db0~126~ubuntu22.04.1) date 2023-08-27 22:06:58*
%MOMM*%
%LPD*%
G01*
G04 APERTURE LIST*
%ADD10C,0.150000*%
%ADD11C,0.900000*%
%ADD12C,0.750000*%
%ADD13O,2.000000X1.200000*%
%ADD14O,1.800000X1.200000*%
%ADD15C,3.200000*%
G04 APERTURE END LIST*
D10*
X33690476Y-1230714D02*
X33452380Y-1897380D01*
X33214285Y-1230714D01*
X32309523Y-1897380D02*
X32880952Y-1897380D01*
X32595238Y-1897380D02*
X32595238Y-897380D01*
X32690476Y-1040238D01*
X32785714Y-1135476D01*
X32880952Y-1183095D01*
X31880952Y-1802142D02*
X31833333Y-1849761D01*
X31880952Y-1897380D01*
X31928571Y-1849761D01*
X31880952Y-1802142D01*
X31880952Y-1897380D01*
X31214285Y-897380D02*
X31119047Y-897380D01*
X31023809Y-945000D01*
X30976190Y-992619D01*
X30928571Y-1087857D01*
X30880952Y-1278333D01*
X30880952Y-1516428D01*
X30928571Y-1706904D01*
X30976190Y-1802142D01*
X31023809Y-1849761D01*
X31119047Y-1897380D01*
X31214285Y-1897380D01*
X31309523Y-1849761D01*
X31357142Y-1802142D01*
X31404761Y-1706904D01*
X31452380Y-1516428D01*
X31452380Y-1278333D01*
X31404761Y-1087857D01*
X31357142Y-992619D01*
X31309523Y-945000D01*
X31214285Y-897380D01*
X29690476Y-1516428D02*
X28928571Y-1516428D01*
X27500000Y-897380D02*
X27404761Y-897380D01*
X27309523Y-945000D01*
X27261904Y-992619D01*
X27214285Y-1087857D01*
X27166666Y-1278333D01*
X27166666Y-1516428D01*
X27214285Y-1706904D01*
X27261904Y-1802142D01*
X27309523Y-1849761D01*
X27404761Y-1897380D01*
X27500000Y-1897380D01*
X27595238Y-1849761D01*
X27642857Y-1802142D01*
X27690476Y-1706904D01*
X27738095Y-1516428D01*
X27738095Y-1278333D01*
X27690476Y-1087857D01*
X27642857Y-992619D01*
X27595238Y-945000D01*
X27500000Y-897380D01*
X26595238Y-1325952D02*
X26690476Y-1278333D01*
X26738095Y-1230714D01*
X26785714Y-1135476D01*
X26785714Y-1087857D01*
X26738095Y-992619D01*
X26690476Y-945000D01*
X26595238Y-897380D01*
X26404761Y-897380D01*
X26309523Y-945000D01*
X26261904Y-992619D01*
X26214285Y-1087857D01*
X26214285Y-1135476D01*
X26261904Y-1230714D01*
X26309523Y-1278333D01*
X26404761Y-1325952D01*
X26595238Y-1325952D01*
X26690476Y-1373571D01*
X26738095Y-1421190D01*
X26785714Y-1516428D01*
X26785714Y-1706904D01*
X26738095Y-1802142D01*
X26690476Y-1849761D01*
X26595238Y-1897380D01*
X26404761Y-1897380D01*
X26309523Y-1849761D01*
X26261904Y-1802142D01*
X26214285Y-1706904D01*
X26214285Y-1516428D01*
X26261904Y-1421190D01*
X26309523Y-1373571D01*
X26404761Y-1325952D01*
X25071428Y-849761D02*
X25928571Y-2135476D01*
X24785714Y-992619D02*
X24738095Y-945000D01*
X24642857Y-897380D01*
X24404761Y-897380D01*
X24309523Y-945000D01*
X24261904Y-992619D01*
X24214285Y-1087857D01*
X24214285Y-1183095D01*
X24261904Y-1325952D01*
X24833333Y-1897380D01*
X24214285Y-1897380D01*
X23595238Y-897380D02*
X23500000Y-897380D01*
X23404761Y-945000D01*
X23357142Y-992619D01*
X23309523Y-1087857D01*
X23261904Y-1278333D01*
X23261904Y-1516428D01*
X23309523Y-1706904D01*
X23357142Y-1802142D01*
X23404761Y-1849761D01*
X23500000Y-1897380D01*
X23595238Y-1897380D01*
X23690476Y-1849761D01*
X23738095Y-1802142D01*
X23785714Y-1706904D01*
X23833333Y-1516428D01*
X23833333Y-1278333D01*
X23785714Y-1087857D01*
X23738095Y-992619D01*
X23690476Y-945000D01*
X23595238Y-897380D01*
X22880952Y-992619D02*
X22833333Y-945000D01*
X22738095Y-897380D01*
X22500000Y-897380D01*
X22404761Y-945000D01*
X22357142Y-992619D01*
X22309523Y-1087857D01*
X22309523Y-1183095D01*
X22357142Y-1325952D01*
X22928571Y-1897380D01*
X22309523Y-1897380D01*
X21976190Y-897380D02*
X21357142Y-897380D01*
X21690476Y-1278333D01*
X21547619Y-1278333D01*
X21452380Y-1325952D01*
X21404761Y-1373571D01*
X21357142Y-1468809D01*
X21357142Y-1706904D01*
X21404761Y-1802142D01*
X21452380Y-1849761D01*
X21547619Y-1897380D01*
X21833333Y-1897380D01*
X21928571Y-1849761D01*
X21976190Y-1802142D01*
X33071428Y-3507380D02*
X33071428Y-2507380D01*
X32738095Y-3221666D01*
X32404761Y-2507380D01*
X32404761Y-3507380D01*
X31928571Y-3507380D02*
X31928571Y-2840714D01*
X31928571Y-2507380D02*
X31976190Y-2555000D01*
X31928571Y-2602619D01*
X31880952Y-2555000D01*
X31928571Y-2507380D01*
X31928571Y-2602619D01*
X31023809Y-3459761D02*
X31119047Y-3507380D01*
X31309523Y-3507380D01*
X31404761Y-3459761D01*
X31452380Y-3412142D01*
X31500000Y-3316904D01*
X31500000Y-3031190D01*
X31452380Y-2935952D01*
X31404761Y-2888333D01*
X31309523Y-2840714D01*
X31119047Y-2840714D01*
X31023809Y-2888333D01*
X30595238Y-3507380D02*
X30595238Y-2507380D01*
X30166666Y-3507380D02*
X30166666Y-2983571D01*
X30214285Y-2888333D01*
X30309523Y-2840714D01*
X30452380Y-2840714D01*
X30547619Y-2888333D01*
X30595238Y-2935952D01*
X29261904Y-3507380D02*
X29261904Y-2983571D01*
X29309523Y-2888333D01*
X29404761Y-2840714D01*
X29595238Y-2840714D01*
X29690476Y-2888333D01*
X29261904Y-3459761D02*
X29357142Y-3507380D01*
X29595238Y-3507380D01*
X29690476Y-3459761D01*
X29738095Y-3364523D01*
X29738095Y-3269285D01*
X29690476Y-3174047D01*
X29595238Y-3126428D01*
X29357142Y-3126428D01*
X29261904Y-3078809D01*
X28404761Y-3459761D02*
X28500000Y-3507380D01*
X28690476Y-3507380D01*
X28785714Y-3459761D01*
X28833333Y-3364523D01*
X28833333Y-2983571D01*
X28785714Y-2888333D01*
X28690476Y-2840714D01*
X28500000Y-2840714D01*
X28404761Y-2888333D01*
X28357142Y-2983571D01*
X28357142Y-3078809D01*
X28833333Y-3174047D01*
X27785714Y-3507380D02*
X27880952Y-3459761D01*
X27928571Y-3364523D01*
X27928571Y-2507380D01*
X26071428Y-3507380D02*
X26404761Y-3031190D01*
X26642857Y-3507380D02*
X26642857Y-2507380D01*
X26261904Y-2507380D01*
X26166666Y-2555000D01*
X26119047Y-2602619D01*
X26071428Y-2697857D01*
X26071428Y-2840714D01*
X26119047Y-2935952D01*
X26166666Y-2983571D01*
X26261904Y-3031190D01*
X26642857Y-3031190D01*
X25500000Y-3507380D02*
X25595238Y-3459761D01*
X25642857Y-3412142D01*
X25690476Y-3316904D01*
X25690476Y-3031190D01*
X25642857Y-2935952D01*
X25595238Y-2888333D01*
X25500000Y-2840714D01*
X25357142Y-2840714D01*
X25261904Y-2888333D01*
X25214285Y-2935952D01*
X25166666Y-3031190D01*
X25166666Y-3316904D01*
X25214285Y-3412142D01*
X25261904Y-3459761D01*
X25357142Y-3507380D01*
X25500000Y-3507380D01*
X24309523Y-2840714D02*
X24309523Y-3650238D01*
X24357142Y-3745476D01*
X24404761Y-3793095D01*
X24500000Y-3840714D01*
X24642857Y-3840714D01*
X24738095Y-3793095D01*
X24309523Y-3459761D02*
X24404761Y-3507380D01*
X24595238Y-3507380D01*
X24690476Y-3459761D01*
X24738095Y-3412142D01*
X24785714Y-3316904D01*
X24785714Y-3031190D01*
X24738095Y-2935952D01*
X24690476Y-2888333D01*
X24595238Y-2840714D01*
X24404761Y-2840714D01*
X24309523Y-2888333D01*
X23404761Y-2840714D02*
X23404761Y-3650238D01*
X23452380Y-3745476D01*
X23500000Y-3793095D01*
X23595238Y-3840714D01*
X23738095Y-3840714D01*
X23833333Y-3793095D01*
X23404761Y-3459761D02*
X23500000Y-3507380D01*
X23690476Y-3507380D01*
X23785714Y-3459761D01*
X23833333Y-3412142D01*
X23880952Y-3316904D01*
X23880952Y-3031190D01*
X23833333Y-2935952D01*
X23785714Y-2888333D01*
X23690476Y-2840714D01*
X23500000Y-2840714D01*
X23404761Y-2888333D01*
X22547619Y-3459761D02*
X22642857Y-3507380D01*
X22833333Y-3507380D01*
X22928571Y-3459761D01*
X22976190Y-3364523D01*
X22976190Y-2983571D01*
X22928571Y-2888333D01*
X22833333Y-2840714D01*
X22642857Y-2840714D01*
X22547619Y-2888333D01*
X22500000Y-2983571D01*
X22500000Y-3078809D01*
X22976190Y-3174047D01*
X22071428Y-3507380D02*
X22071428Y-2840714D01*
X22071428Y-3031190D02*
X22023809Y-2935952D01*
X21976190Y-2888333D01*
X21880952Y-2840714D01*
X21785714Y-2840714D01*
%LPC*%
D11*
%TO.C,SW3*%
X1647500Y-20965000D03*
X1647500Y-23965000D03*
%TD*%
D12*
%TO.C,USBC1*%
X6562500Y-15200000D03*
X6562500Y-9400000D03*
D13*
X7062500Y-7970000D03*
X7062500Y-16630000D03*
D14*
X2882500Y-16630000D03*
X2882500Y-7970000D03*
%TD*%
D15*
%TO.C,H1*%
X3200000Y-3200000D03*
%TD*%
%TO.C,H4*%
X3200000Y-41800000D03*
%TD*%
%TO.C,H2*%
X51800000Y-3200000D03*
%TD*%
%TO.C,H3*%
X51800000Y-41800000D03*
%TD*%
M02*
