%TF.GenerationSoftware,KiCad,Pcbnew,6.0.11-2627ca5db0~126~ubuntu22.04.1*%
%TF.CreationDate,2023-08-27T22:06:58+02:00*%
%TF.ProjectId,E73-2G4M08S1C-52840,4537332d-3247-4344-9d30-385331432d35,rev?*%
%TF.SameCoordinates,Original*%
%TF.FileFunction,Legend,Top*%
%TF.FilePolarity,Positive*%
%FSLAX46Y46*%
G04 Gerber Fmt 4.6, Leading zero omitted, Abs format (unit mm)*
G04 Created by KiCad (PCBNEW 6.0.11-2627ca5db0~126~ubuntu22.04.1) date 2023-08-27 22:06:58*
%MOMM*%
%LPD*%
G01*
G04 APERTURE LIST*
G04 Aperture macros list*
%AMRoundRect*
0 Rectangle with rounded corners*
0 $1 Rounding radius*
0 $2 $3 $4 $5 $6 $7 $8 $9 X,Y pos of 4 corners*
0 Add a 4 corners polygon primitive as box body*
4,1,4,$2,$3,$4,$5,$6,$7,$8,$9,$2,$3,0*
0 Add four circle primitives for the rounded corners*
1,1,$1+$1,$2,$3*
1,1,$1+$1,$4,$5*
1,1,$1+$1,$6,$7*
1,1,$1+$1,$8,$9*
0 Add four rect primitives between the rounded corners*
20,1,$1+$1,$2,$3,$4,$5,0*
20,1,$1+$1,$4,$5,$6,$7,0*
20,1,$1+$1,$6,$7,$8,$9,0*
20,1,$1+$1,$8,$9,$2,$3,0*%
G04 Aperture macros list end*
%ADD10C,0.150000*%
%ADD11C,0.250000*%
%ADD12C,0.120000*%
%ADD13C,0.200000*%
%ADD14C,0.900000*%
%ADD15R,1.520000X0.600000*%
%ADD16R,0.700000X1.200000*%
%ADD17C,0.750000*%
%ADD18O,2.000000X1.200000*%
%ADD19O,1.800000X1.200000*%
%ADD20R,1.300000X0.300000*%
%ADD21RoundRect,0.200000X-0.275000X0.200000X-0.275000X-0.200000X0.275000X-0.200000X0.275000X0.200000X0*%
%ADD22C,3.200000*%
%ADD23R,0.550000X0.350000*%
%ADD24R,0.700000X1.600000*%
%ADD25R,0.280000X0.550000*%
%ADD26RoundRect,0.200000X-0.200000X-0.275000X0.200000X-0.275000X0.200000X0.275000X-0.200000X0.275000X0*%
%ADD27RoundRect,0.200000X0.275000X-0.200000X0.275000X0.200000X-0.275000X0.200000X-0.275000X-0.200000X0*%
%ADD28R,1.000000X0.600000*%
%ADD29RoundRect,0.225000X-0.225000X-0.250000X0.225000X-0.250000X0.225000X0.250000X-0.225000X0.250000X0*%
%ADD30R,1.700000X1.000000*%
%ADD31RoundRect,0.225000X-0.250000X0.225000X-0.250000X-0.225000X0.250000X-0.225000X0.250000X0.225000X0*%
%ADD32R,1.250000X1.000000*%
%ADD33R,1.700000X1.050000*%
%ADD34R,0.900000X2.000000*%
%ADD35R,2.000000X0.900000*%
%ADD36R,0.900000X0.900000*%
%ADD37R,3.250000X1.000000*%
%ADD38R,4.000000X1.500000*%
%ADD39R,1.000000X3.150000*%
%ADD40RoundRect,0.225000X0.250000X-0.225000X0.250000X0.225000X-0.250000X0.225000X-0.250000X-0.225000X0*%
G04 APERTURE END LIST*
D10*
X5833333Y-21285714D02*
X5071428Y-21571428D01*
X5833333Y-21857142D01*
X6309523Y-21571428D02*
X7071428Y-21571428D01*
X7404761Y-20952380D02*
X7738095Y-21952380D01*
X8071428Y-20952380D01*
X8404761Y-20952380D02*
X8404761Y-21761904D01*
X8452380Y-21857142D01*
X8500000Y-21904761D01*
X8595238Y-21952380D01*
X8785714Y-21952380D01*
X8880952Y-21904761D01*
X8928571Y-21857142D01*
X8976190Y-21761904D01*
X8976190Y-20952380D01*
X9404761Y-21904761D02*
X9547619Y-21952380D01*
X9785714Y-21952380D01*
X9880952Y-21904761D01*
X9928571Y-21857142D01*
X9976190Y-21761904D01*
X9976190Y-21666666D01*
X9928571Y-21571428D01*
X9880952Y-21523809D01*
X9785714Y-21476190D01*
X9595238Y-21428571D01*
X9500000Y-21380952D01*
X9452380Y-21333333D01*
X9404761Y-21238095D01*
X9404761Y-21142857D01*
X9452380Y-21047619D01*
X9500000Y-21000000D01*
X9595238Y-20952380D01*
X9833333Y-20952380D01*
X9976190Y-21000000D01*
X10738095Y-21428571D02*
X10880952Y-21476190D01*
X10928571Y-21523809D01*
X10976190Y-21619047D01*
X10976190Y-21761904D01*
X10928571Y-21857142D01*
X10880952Y-21904761D01*
X10785714Y-21952380D01*
X10404761Y-21952380D01*
X10404761Y-20952380D01*
X10738095Y-20952380D01*
X10833333Y-21000000D01*
X10880952Y-21047619D01*
X10928571Y-21142857D01*
X10928571Y-21238095D01*
X10880952Y-21333333D01*
X10833333Y-21380952D01*
X10738095Y-21428571D01*
X10404761Y-21428571D01*
X27452380Y-31535714D02*
X26452380Y-31535714D01*
X27452380Y-30964285D01*
X26452380Y-30964285D01*
X27357142Y-29916666D02*
X27404761Y-29964285D01*
X27452380Y-30107142D01*
X27452380Y-30202380D01*
X27404761Y-30345238D01*
X27309523Y-30440476D01*
X27214285Y-30488095D01*
X27023809Y-30535714D01*
X26880952Y-30535714D01*
X26690476Y-30488095D01*
X26595238Y-30440476D01*
X26500000Y-30345238D01*
X26452380Y-30202380D01*
X26452380Y-30107142D01*
X26500000Y-29964285D01*
X26547619Y-29916666D01*
X32452380Y-31047619D02*
X31976190Y-31380952D01*
X32452380Y-31619047D02*
X31452380Y-31619047D01*
X31452380Y-31238095D01*
X31500000Y-31142857D01*
X31547619Y-31095238D01*
X31642857Y-31047619D01*
X31785714Y-31047619D01*
X31880952Y-31095238D01*
X31928571Y-31142857D01*
X31976190Y-31238095D01*
X31976190Y-31619047D01*
X32404761Y-30666666D02*
X32452380Y-30523809D01*
X32452380Y-30285714D01*
X32404761Y-30190476D01*
X32357142Y-30142857D01*
X32261904Y-30095238D01*
X32166666Y-30095238D01*
X32071428Y-30142857D01*
X32023809Y-30190476D01*
X31976190Y-30285714D01*
X31928571Y-30476190D01*
X31880952Y-30571428D01*
X31833333Y-30619047D01*
X31738095Y-30666666D01*
X31642857Y-30666666D01*
X31547619Y-30619047D01*
X31500000Y-30571428D01*
X31452380Y-30476190D01*
X31452380Y-30238095D01*
X31500000Y-30095238D01*
X31452380Y-29809523D02*
X31452380Y-29238095D01*
X32452380Y-29523809D02*
X31452380Y-29523809D01*
X26750000Y-43511904D02*
X26702380Y-43607142D01*
X26702380Y-43750000D01*
X26750000Y-43892857D01*
X26845238Y-43988095D01*
X26940476Y-44035714D01*
X27130952Y-44083333D01*
X27273809Y-44083333D01*
X27464285Y-44035714D01*
X27559523Y-43988095D01*
X27654761Y-43892857D01*
X27702380Y-43750000D01*
X27702380Y-43654761D01*
X27654761Y-43511904D01*
X27607142Y-43464285D01*
X27273809Y-43464285D01*
X27273809Y-43654761D01*
X27702380Y-43035714D02*
X26702380Y-43035714D01*
X27702380Y-42464285D01*
X26702380Y-42464285D01*
X27702380Y-41988095D02*
X26702380Y-41988095D01*
X26702380Y-41750000D01*
X26750000Y-41607142D01*
X26845238Y-41511904D01*
X26940476Y-41464285D01*
X27130952Y-41416666D01*
X27273809Y-41416666D01*
X27464285Y-41464285D01*
X27559523Y-41511904D01*
X27654761Y-41607142D01*
X27702380Y-41750000D01*
X27702380Y-41988095D01*
X31750000Y-43511904D02*
X31702380Y-43607142D01*
X31702380Y-43750000D01*
X31750000Y-43892857D01*
X31845238Y-43988095D01*
X31940476Y-44035714D01*
X32130952Y-44083333D01*
X32273809Y-44083333D01*
X32464285Y-44035714D01*
X32559523Y-43988095D01*
X32654761Y-43892857D01*
X32702380Y-43750000D01*
X32702380Y-43654761D01*
X32654761Y-43511904D01*
X32607142Y-43464285D01*
X32273809Y-43464285D01*
X32273809Y-43654761D01*
X32702380Y-43035714D02*
X31702380Y-43035714D01*
X32702380Y-42464285D01*
X31702380Y-42464285D01*
X32702380Y-41988095D02*
X31702380Y-41988095D01*
X31702380Y-41750000D01*
X31750000Y-41607142D01*
X31845238Y-41511904D01*
X31940476Y-41464285D01*
X32130952Y-41416666D01*
X32273809Y-41416666D01*
X32464285Y-41464285D01*
X32559523Y-41511904D01*
X32654761Y-41607142D01*
X32702380Y-41750000D01*
X32702380Y-41988095D01*
X22404761Y-31607142D02*
X22452380Y-31464285D01*
X22452380Y-31226190D01*
X22404761Y-31130952D01*
X22357142Y-31083333D01*
X22261904Y-31035714D01*
X22166666Y-31035714D01*
X22071428Y-31083333D01*
X22023809Y-31130952D01*
X21976190Y-31226190D01*
X21928571Y-31416666D01*
X21880952Y-31511904D01*
X21833333Y-31559523D01*
X21738095Y-31607142D01*
X21642857Y-31607142D01*
X21547619Y-31559523D01*
X21500000Y-31511904D01*
X21452380Y-31416666D01*
X21452380Y-31178571D01*
X21500000Y-31035714D01*
X21452380Y-30702380D02*
X22452380Y-30464285D01*
X21738095Y-30273809D01*
X22452380Y-30083333D01*
X21452380Y-29845238D01*
X22452380Y-29464285D02*
X21452380Y-29464285D01*
X21452380Y-29226190D01*
X21500000Y-29083333D01*
X21595238Y-28988095D01*
X21690476Y-28940476D01*
X21880952Y-28892857D01*
X22023809Y-28892857D01*
X22214285Y-28940476D01*
X22309523Y-28988095D01*
X22404761Y-29083333D01*
X22452380Y-29226190D01*
X22452380Y-29464285D01*
X24250000Y-43511904D02*
X24202380Y-43607142D01*
X24202380Y-43750000D01*
X24250000Y-43892857D01*
X24345238Y-43988095D01*
X24440476Y-44035714D01*
X24630952Y-44083333D01*
X24773809Y-44083333D01*
X24964285Y-44035714D01*
X25059523Y-43988095D01*
X25154761Y-43892857D01*
X25202380Y-43750000D01*
X25202380Y-43654761D01*
X25154761Y-43511904D01*
X25107142Y-43464285D01*
X24773809Y-43464285D01*
X24773809Y-43654761D01*
X25202380Y-43035714D02*
X24202380Y-43035714D01*
X25202380Y-42464285D01*
X24202380Y-42464285D01*
X25202380Y-41988095D02*
X24202380Y-41988095D01*
X24202380Y-41750000D01*
X24250000Y-41607142D01*
X24345238Y-41511904D01*
X24440476Y-41464285D01*
X24630952Y-41416666D01*
X24773809Y-41416666D01*
X24964285Y-41464285D01*
X25059523Y-41511904D01*
X25154761Y-41607142D01*
X25202380Y-41750000D01*
X25202380Y-41988095D01*
X24904761Y-31607142D02*
X24952380Y-31464285D01*
X24952380Y-31226190D01*
X24904761Y-31130952D01*
X24857142Y-31083333D01*
X24761904Y-31035714D01*
X24666666Y-31035714D01*
X24571428Y-31083333D01*
X24523809Y-31130952D01*
X24476190Y-31226190D01*
X24428571Y-31416666D01*
X24380952Y-31511904D01*
X24333333Y-31559523D01*
X24238095Y-31607142D01*
X24142857Y-31607142D01*
X24047619Y-31559523D01*
X24000000Y-31511904D01*
X23952380Y-31416666D01*
X23952380Y-31178571D01*
X24000000Y-31035714D01*
X23952380Y-30702380D02*
X24952380Y-30464285D01*
X24238095Y-30273809D01*
X24952380Y-30083333D01*
X23952380Y-29845238D01*
X24857142Y-28892857D02*
X24904761Y-28940476D01*
X24952380Y-29083333D01*
X24952380Y-29178571D01*
X24904761Y-29321428D01*
X24809523Y-29416666D01*
X24714285Y-29464285D01*
X24523809Y-29511904D01*
X24380952Y-29511904D01*
X24190476Y-29464285D01*
X24095238Y-29416666D01*
X24000000Y-29321428D01*
X23952380Y-29178571D01*
X23952380Y-29083333D01*
X24000000Y-28940476D01*
X24047619Y-28892857D01*
X29952380Y-31535714D02*
X28952380Y-31535714D01*
X29952380Y-30964285D01*
X28952380Y-30964285D01*
X29857142Y-29916666D02*
X29904761Y-29964285D01*
X29952380Y-30107142D01*
X29952380Y-30202380D01*
X29904761Y-30345238D01*
X29809523Y-30440476D01*
X29714285Y-30488095D01*
X29523809Y-30535714D01*
X29380952Y-30535714D01*
X29190476Y-30488095D01*
X29095238Y-30440476D01*
X29000000Y-30345238D01*
X28952380Y-30202380D01*
X28952380Y-30107142D01*
X29000000Y-29964285D01*
X29047619Y-29916666D01*
X30202380Y-44035714D02*
X29202380Y-44035714D01*
X30202380Y-43464285D01*
X29202380Y-43464285D01*
X30107142Y-42416666D02*
X30154761Y-42464285D01*
X30202380Y-42607142D01*
X30202380Y-42702380D01*
X30154761Y-42845238D01*
X30059523Y-42940476D01*
X29964285Y-42988095D01*
X29773809Y-43035714D01*
X29630952Y-43035714D01*
X29440476Y-42988095D01*
X29345238Y-42940476D01*
X29250000Y-42845238D01*
X29202380Y-42702380D01*
X29202380Y-42607142D01*
X29250000Y-42464285D01*
X29297619Y-42416666D01*
X11297619Y-29500000D02*
X11297619Y-30119047D01*
X10916666Y-29785714D01*
X10916666Y-29928571D01*
X10869047Y-30023809D01*
X10821428Y-30071428D01*
X10726190Y-30119047D01*
X10488095Y-30119047D01*
X10392857Y-30071428D01*
X10345238Y-30023809D01*
X10297619Y-29928571D01*
X10297619Y-29642857D01*
X10345238Y-29547619D01*
X10392857Y-29500000D01*
X11297619Y-30404761D02*
X10297619Y-30738095D01*
X11297619Y-31071428D01*
X10678571Y-31404761D02*
X10678571Y-32166666D01*
X11297619Y-33071428D02*
X11297619Y-32880952D01*
X11250000Y-32785714D01*
X11202380Y-32738095D01*
X11059523Y-32642857D01*
X10869047Y-32595238D01*
X10488095Y-32595238D01*
X10392857Y-32642857D01*
X10345238Y-32690476D01*
X10297619Y-32785714D01*
X10297619Y-32976190D01*
X10345238Y-33071428D01*
X10392857Y-33119047D01*
X10488095Y-33166666D01*
X10726190Y-33166666D01*
X10821428Y-33119047D01*
X10869047Y-33071428D01*
X10916666Y-32976190D01*
X10916666Y-32785714D01*
X10869047Y-32690476D01*
X10821428Y-32642857D01*
X10726190Y-32595238D01*
X10345238Y-33642857D02*
X10297619Y-33642857D01*
X10202380Y-33595238D01*
X10154761Y-33547619D01*
X11297619Y-34547619D02*
X11297619Y-34071428D01*
X10821428Y-34023809D01*
X10869047Y-34071428D01*
X10916666Y-34166666D01*
X10916666Y-34404761D01*
X10869047Y-34500000D01*
X10821428Y-34547619D01*
X10726190Y-34595238D01*
X10488095Y-34595238D01*
X10392857Y-34547619D01*
X10345238Y-34500000D01*
X10297619Y-34404761D01*
X10297619Y-34166666D01*
X10345238Y-34071428D01*
X10392857Y-34023809D01*
X11297619Y-34880952D02*
X10297619Y-35214285D01*
X11297619Y-35547619D01*
X5845238Y-23285714D02*
X5083333Y-23571428D01*
X5845238Y-23857142D01*
X6321428Y-23571428D02*
X7083333Y-23571428D01*
X7416666Y-22952380D02*
X7750000Y-23952380D01*
X8083333Y-22952380D01*
X8750000Y-23428571D02*
X8892857Y-23476190D01*
X8940476Y-23523809D01*
X8988095Y-23619047D01*
X8988095Y-23761904D01*
X8940476Y-23857142D01*
X8892857Y-23904761D01*
X8797619Y-23952380D01*
X8416666Y-23952380D01*
X8416666Y-22952380D01*
X8750000Y-22952380D01*
X8845238Y-23000000D01*
X8892857Y-23047619D01*
X8940476Y-23142857D01*
X8940476Y-23238095D01*
X8892857Y-23333333D01*
X8845238Y-23380952D01*
X8750000Y-23428571D01*
X8416666Y-23428571D01*
X9845238Y-23952380D02*
X9845238Y-23428571D01*
X9797619Y-23333333D01*
X9702380Y-23285714D01*
X9511904Y-23285714D01*
X9416666Y-23333333D01*
X9845238Y-23904761D02*
X9750000Y-23952380D01*
X9511904Y-23952380D01*
X9416666Y-23904761D01*
X9369047Y-23809523D01*
X9369047Y-23714285D01*
X9416666Y-23619047D01*
X9511904Y-23571428D01*
X9750000Y-23571428D01*
X9845238Y-23523809D01*
X10178571Y-23285714D02*
X10559523Y-23285714D01*
X10321428Y-22952380D02*
X10321428Y-23809523D01*
X10369047Y-23904761D01*
X10464285Y-23952380D01*
X10559523Y-23952380D01*
X21452380Y-43988095D02*
X21452380Y-43369047D01*
X21833333Y-43702380D01*
X21833333Y-43559523D01*
X21880952Y-43464285D01*
X21928571Y-43416666D01*
X22023809Y-43369047D01*
X22261904Y-43369047D01*
X22357142Y-43416666D01*
X22404761Y-43464285D01*
X22452380Y-43559523D01*
X22452380Y-43845238D01*
X22404761Y-43940476D01*
X22357142Y-43988095D01*
X21452380Y-43083333D02*
X22452380Y-42750000D01*
X21452380Y-42416666D01*
X21452380Y-42178571D02*
X21452380Y-41559523D01*
X21833333Y-41892857D01*
X21833333Y-41750000D01*
X21880952Y-41654761D01*
X21928571Y-41607142D01*
X22023809Y-41559523D01*
X22261904Y-41559523D01*
X22357142Y-41607142D01*
X22404761Y-41654761D01*
X22452380Y-41750000D01*
X22452380Y-42035714D01*
X22404761Y-42130952D01*
X22357142Y-42178571D01*
X41630952Y-19452380D02*
X41630952Y-20166666D01*
X41583333Y-20309523D01*
X41488095Y-20404761D01*
X41345238Y-20452380D01*
X41250000Y-20452380D01*
X42583333Y-20452380D02*
X42107142Y-20452380D01*
X42107142Y-19452380D01*
X43488095Y-20357142D02*
X43440476Y-20404761D01*
X43297619Y-20452380D01*
X43202380Y-20452380D01*
X43059523Y-20404761D01*
X42964285Y-20309523D01*
X42916666Y-20214285D01*
X42869047Y-20023809D01*
X42869047Y-19880952D01*
X42916666Y-19690476D01*
X42964285Y-19595238D01*
X43059523Y-19500000D01*
X43202380Y-19452380D01*
X43297619Y-19452380D01*
X43440476Y-19500000D01*
X43488095Y-19547619D01*
X44202380Y-19452380D02*
X44202380Y-20166666D01*
X44154761Y-20309523D01*
X44059523Y-20404761D01*
X43916666Y-20452380D01*
X43821428Y-20452380D01*
X45154761Y-20452380D02*
X44678571Y-20452380D01*
X44678571Y-19452380D01*
X46059523Y-20357142D02*
X46011904Y-20404761D01*
X45869047Y-20452380D01*
X45773809Y-20452380D01*
X45630952Y-20404761D01*
X45535714Y-20309523D01*
X45488095Y-20214285D01*
X45440476Y-20023809D01*
X45440476Y-19880952D01*
X45488095Y-19690476D01*
X45535714Y-19595238D01*
X45630952Y-19500000D01*
X45773809Y-19452380D01*
X45869047Y-19452380D01*
X46011904Y-19500000D01*
X46059523Y-19547619D01*
X46773809Y-19452380D02*
X46773809Y-20166666D01*
X46726190Y-20309523D01*
X46630952Y-20404761D01*
X46488095Y-20452380D01*
X46392857Y-20452380D01*
X47726190Y-20452380D02*
X47250000Y-20452380D01*
X47250000Y-19452380D01*
X48630952Y-20357142D02*
X48583333Y-20404761D01*
X48440476Y-20452380D01*
X48345238Y-20452380D01*
X48202380Y-20404761D01*
X48107142Y-20309523D01*
X48059523Y-20214285D01*
X48011904Y-20023809D01*
X48011904Y-19880952D01*
X48059523Y-19690476D01*
X48107142Y-19595238D01*
X48202380Y-19500000D01*
X48345238Y-19452380D01*
X48440476Y-19452380D01*
X48583333Y-19500000D01*
X48630952Y-19547619D01*
X49345238Y-19452380D02*
X49345238Y-20166666D01*
X49297619Y-20309523D01*
X49202380Y-20404761D01*
X49059523Y-20452380D01*
X48964285Y-20452380D01*
X50297619Y-20452380D02*
X49821428Y-20452380D01*
X49821428Y-19452380D01*
X51202380Y-20357142D02*
X51154761Y-20404761D01*
X51011904Y-20452380D01*
X50916666Y-20452380D01*
X50773809Y-20404761D01*
X50678571Y-20309523D01*
X50630952Y-20214285D01*
X50583333Y-20023809D01*
X50583333Y-19880952D01*
X50630952Y-19690476D01*
X50678571Y-19595238D01*
X50773809Y-19500000D01*
X50916666Y-19452380D01*
X51011904Y-19452380D01*
X51154761Y-19500000D01*
X51202380Y-19547619D01*
%TO.C,USBC1*%
X3252380Y-14538095D02*
X4061904Y-14538095D01*
X4157142Y-14490476D01*
X4204761Y-14442857D01*
X4252380Y-14347619D01*
X4252380Y-14157142D01*
X4204761Y-14061904D01*
X4157142Y-14014285D01*
X4061904Y-13966666D01*
X3252380Y-13966666D01*
X4204761Y-13538095D02*
X4252380Y-13395238D01*
X4252380Y-13157142D01*
X4204761Y-13061904D01*
X4157142Y-13014285D01*
X4061904Y-12966666D01*
X3966666Y-12966666D01*
X3871428Y-13014285D01*
X3823809Y-13061904D01*
X3776190Y-13157142D01*
X3728571Y-13347619D01*
X3680952Y-13442857D01*
X3633333Y-13490476D01*
X3538095Y-13538095D01*
X3442857Y-13538095D01*
X3347619Y-13490476D01*
X3300000Y-13442857D01*
X3252380Y-13347619D01*
X3252380Y-13109523D01*
X3300000Y-12966666D01*
X3728571Y-12204761D02*
X3776190Y-12061904D01*
X3823809Y-12014285D01*
X3919047Y-11966666D01*
X4061904Y-11966666D01*
X4157142Y-12014285D01*
X4204761Y-12061904D01*
X4252380Y-12157142D01*
X4252380Y-12538095D01*
X3252380Y-12538095D01*
X3252380Y-12204761D01*
X3300000Y-12109523D01*
X3347619Y-12061904D01*
X3442857Y-12014285D01*
X3538095Y-12014285D01*
X3633333Y-12061904D01*
X3680952Y-12109523D01*
X3728571Y-12204761D01*
X3728571Y-12538095D01*
X4157142Y-10966666D02*
X4204761Y-11014285D01*
X4252380Y-11157142D01*
X4252380Y-11252380D01*
X4204761Y-11395238D01*
X4109523Y-11490476D01*
X4014285Y-11538095D01*
X3823809Y-11585714D01*
X3680952Y-11585714D01*
X3490476Y-11538095D01*
X3395238Y-11490476D01*
X3300000Y-11395238D01*
X3252380Y-11252380D01*
X3252380Y-11157142D01*
X3300000Y-11014285D01*
X3347619Y-10966666D01*
X4252380Y-10014285D02*
X4252380Y-10585714D01*
X4252380Y-10300000D02*
X3252380Y-10300000D01*
X3395238Y-10395238D01*
X3490476Y-10490476D01*
X3538095Y-10585714D01*
%TO.C,R9*%
X25833333Y-23952380D02*
X25500000Y-23476190D01*
X25261904Y-23952380D02*
X25261904Y-22952380D01*
X25642857Y-22952380D01*
X25738095Y-23000000D01*
X25785714Y-23047619D01*
X25833333Y-23142857D01*
X25833333Y-23285714D01*
X25785714Y-23380952D01*
X25738095Y-23428571D01*
X25642857Y-23476190D01*
X25261904Y-23476190D01*
X26309523Y-23952380D02*
X26500000Y-23952380D01*
X26595238Y-23904761D01*
X26642857Y-23857142D01*
X26738095Y-23714285D01*
X26785714Y-23523809D01*
X26785714Y-23142857D01*
X26738095Y-23047619D01*
X26690476Y-23000000D01*
X26595238Y-22952380D01*
X26404761Y-22952380D01*
X26309523Y-23000000D01*
X26261904Y-23047619D01*
X26214285Y-23142857D01*
X26214285Y-23380952D01*
X26261904Y-23476190D01*
X26309523Y-23523809D01*
X26404761Y-23571428D01*
X26595238Y-23571428D01*
X26690476Y-23523809D01*
X26738095Y-23476190D01*
X26785714Y-23380952D01*
%TO.C,U3*%
X27799095Y-3452380D02*
X27799095Y-4261904D01*
X27846714Y-4357142D01*
X27894333Y-4404761D01*
X27989571Y-4452380D01*
X28180047Y-4452380D01*
X28275285Y-4404761D01*
X28322904Y-4357142D01*
X28370523Y-4261904D01*
X28370523Y-3452380D01*
X28751476Y-3452380D02*
X29370523Y-3452380D01*
X29037190Y-3833333D01*
X29180047Y-3833333D01*
X29275285Y-3880952D01*
X29322904Y-3928571D01*
X29370523Y-4023809D01*
X29370523Y-4261904D01*
X29322904Y-4357142D01*
X29275285Y-4404761D01*
X29180047Y-4452380D01*
X28894333Y-4452380D01*
X28799095Y-4404761D01*
X28751476Y-4357142D01*
%TO.C,Q1*%
X21154761Y-28047619D02*
X21059523Y-28000000D01*
X20964285Y-27904761D01*
X20821428Y-27761904D01*
X20726190Y-27714285D01*
X20630952Y-27714285D01*
X20678571Y-27952380D02*
X20583333Y-27904761D01*
X20488095Y-27809523D01*
X20440476Y-27619047D01*
X20440476Y-27285714D01*
X20488095Y-27095238D01*
X20583333Y-27000000D01*
X20678571Y-26952380D01*
X20869047Y-26952380D01*
X20964285Y-27000000D01*
X21059523Y-27095238D01*
X21107142Y-27285714D01*
X21107142Y-27619047D01*
X21059523Y-27809523D01*
X20964285Y-27904761D01*
X20869047Y-27952380D01*
X20678571Y-27952380D01*
X22059523Y-27952380D02*
X21488095Y-27952380D01*
X21773809Y-27952380D02*
X21773809Y-26952380D01*
X21678571Y-27095238D01*
X21583333Y-27190476D01*
X21488095Y-27238095D01*
%TO.C,R4*%
X38792380Y-9691666D02*
X38316190Y-10025000D01*
X38792380Y-10263095D02*
X37792380Y-10263095D01*
X37792380Y-9882142D01*
X37840000Y-9786904D01*
X37887619Y-9739285D01*
X37982857Y-9691666D01*
X38125714Y-9691666D01*
X38220952Y-9739285D01*
X38268571Y-9786904D01*
X38316190Y-9882142D01*
X38316190Y-10263095D01*
X38125714Y-8834523D02*
X38792380Y-8834523D01*
X37744761Y-9072619D02*
X38459047Y-9310714D01*
X38459047Y-8691666D01*
%TO.C,R1*%
X11875833Y-9294880D02*
X11542500Y-8818690D01*
X11304404Y-9294880D02*
X11304404Y-8294880D01*
X11685357Y-8294880D01*
X11780595Y-8342500D01*
X11828214Y-8390119D01*
X11875833Y-8485357D01*
X11875833Y-8628214D01*
X11828214Y-8723452D01*
X11780595Y-8771071D01*
X11685357Y-8818690D01*
X11304404Y-8818690D01*
X12828214Y-9294880D02*
X12256785Y-9294880D01*
X12542500Y-9294880D02*
X12542500Y-8294880D01*
X12447261Y-8437738D01*
X12352023Y-8532976D01*
X12256785Y-8580595D01*
%TO.C,R3*%
X18583333Y-23952380D02*
X18250000Y-23476190D01*
X18011904Y-23952380D02*
X18011904Y-22952380D01*
X18392857Y-22952380D01*
X18488095Y-23000000D01*
X18535714Y-23047619D01*
X18583333Y-23142857D01*
X18583333Y-23285714D01*
X18535714Y-23380952D01*
X18488095Y-23428571D01*
X18392857Y-23476190D01*
X18011904Y-23476190D01*
X18916666Y-22952380D02*
X19535714Y-22952380D01*
X19202380Y-23333333D01*
X19345238Y-23333333D01*
X19440476Y-23380952D01*
X19488095Y-23428571D01*
X19535714Y-23523809D01*
X19535714Y-23761904D01*
X19488095Y-23857142D01*
X19440476Y-23904761D01*
X19345238Y-23952380D01*
X19059523Y-23952380D01*
X18964285Y-23904761D01*
X18916666Y-23857142D01*
%TO.C,LDO1*%
X21009523Y-15452380D02*
X20533333Y-15452380D01*
X20533333Y-14452380D01*
X21342857Y-15452380D02*
X21342857Y-14452380D01*
X21580952Y-14452380D01*
X21723809Y-14500000D01*
X21819047Y-14595238D01*
X21866666Y-14690476D01*
X21914285Y-14880952D01*
X21914285Y-15023809D01*
X21866666Y-15214285D01*
X21819047Y-15309523D01*
X21723809Y-15404761D01*
X21580952Y-15452380D01*
X21342857Y-15452380D01*
X22533333Y-14452380D02*
X22723809Y-14452380D01*
X22819047Y-14500000D01*
X22914285Y-14595238D01*
X22961904Y-14785714D01*
X22961904Y-15119047D01*
X22914285Y-15309523D01*
X22819047Y-15404761D01*
X22723809Y-15452380D01*
X22533333Y-15452380D01*
X22438095Y-15404761D01*
X22342857Y-15309523D01*
X22295238Y-15119047D01*
X22295238Y-14785714D01*
X22342857Y-14595238D01*
X22438095Y-14500000D01*
X22533333Y-14452380D01*
X23914285Y-15452380D02*
X23342857Y-15452380D01*
X23628571Y-15452380D02*
X23628571Y-14452380D01*
X23533333Y-14595238D01*
X23438095Y-14690476D01*
X23342857Y-14738095D01*
%TO.C,R10*%
X20607142Y-22197380D02*
X20273809Y-21721190D01*
X20035714Y-22197380D02*
X20035714Y-21197380D01*
X20416666Y-21197380D01*
X20511904Y-21245000D01*
X20559523Y-21292619D01*
X20607142Y-21387857D01*
X20607142Y-21530714D01*
X20559523Y-21625952D01*
X20511904Y-21673571D01*
X20416666Y-21721190D01*
X20035714Y-21721190D01*
X21559523Y-22197380D02*
X20988095Y-22197380D01*
X21273809Y-22197380D02*
X21273809Y-21197380D01*
X21178571Y-21340238D01*
X21083333Y-21435476D01*
X20988095Y-21483095D01*
X22178571Y-21197380D02*
X22273809Y-21197380D01*
X22369047Y-21245000D01*
X22416666Y-21292619D01*
X22464285Y-21387857D01*
X22511904Y-21578333D01*
X22511904Y-21816428D01*
X22464285Y-22006904D01*
X22416666Y-22102142D01*
X22369047Y-22149761D01*
X22273809Y-22197380D01*
X22178571Y-22197380D01*
X22083333Y-22149761D01*
X22035714Y-22102142D01*
X21988095Y-22006904D01*
X21940476Y-21816428D01*
X21940476Y-21578333D01*
X21988095Y-21387857D01*
X22035714Y-21292619D01*
X22083333Y-21245000D01*
X22178571Y-21197380D01*
%TO.C,C5*%
X31583333Y-22857142D02*
X31535714Y-22904761D01*
X31392857Y-22952380D01*
X31297619Y-22952380D01*
X31154761Y-22904761D01*
X31059523Y-22809523D01*
X31011904Y-22714285D01*
X30964285Y-22523809D01*
X30964285Y-22380952D01*
X31011904Y-22190476D01*
X31059523Y-22095238D01*
X31154761Y-22000000D01*
X31297619Y-21952380D01*
X31392857Y-21952380D01*
X31535714Y-22000000D01*
X31583333Y-22047619D01*
X32488095Y-21952380D02*
X32011904Y-21952380D01*
X31964285Y-22428571D01*
X32011904Y-22380952D01*
X32107142Y-22333333D01*
X32345238Y-22333333D01*
X32440476Y-22380952D01*
X32488095Y-22428571D01*
X32535714Y-22523809D01*
X32535714Y-22761904D01*
X32488095Y-22857142D01*
X32440476Y-22904761D01*
X32345238Y-22952380D01*
X32107142Y-22952380D01*
X32011904Y-22904761D01*
X31964285Y-22857142D01*
%TO.C,C3*%
X21373913Y-8342142D02*
X21326294Y-8389761D01*
X21183437Y-8437380D01*
X21088199Y-8437380D01*
X20945341Y-8389761D01*
X20850103Y-8294523D01*
X20802484Y-8199285D01*
X20754865Y-8008809D01*
X20754865Y-7865952D01*
X20802484Y-7675476D01*
X20850103Y-7580238D01*
X20945341Y-7485000D01*
X21088199Y-7437380D01*
X21183437Y-7437380D01*
X21326294Y-7485000D01*
X21373913Y-7532619D01*
X21707246Y-7437380D02*
X22326294Y-7437380D01*
X21992960Y-7818333D01*
X22135818Y-7818333D01*
X22231056Y-7865952D01*
X22278675Y-7913571D01*
X22326294Y-8008809D01*
X22326294Y-8246904D01*
X22278675Y-8342142D01*
X22231056Y-8389761D01*
X22135818Y-8437380D01*
X21850103Y-8437380D01*
X21754865Y-8389761D01*
X21707246Y-8342142D01*
%TO.C,SW1*%
X47801666Y-6994761D02*
X47944523Y-7042380D01*
X48182619Y-7042380D01*
X48277857Y-6994761D01*
X48325476Y-6947142D01*
X48373095Y-6851904D01*
X48373095Y-6756666D01*
X48325476Y-6661428D01*
X48277857Y-6613809D01*
X48182619Y-6566190D01*
X47992142Y-6518571D01*
X47896904Y-6470952D01*
X47849285Y-6423333D01*
X47801666Y-6328095D01*
X47801666Y-6232857D01*
X47849285Y-6137619D01*
X47896904Y-6090000D01*
X47992142Y-6042380D01*
X48230238Y-6042380D01*
X48373095Y-6090000D01*
X48706428Y-6042380D02*
X48944523Y-7042380D01*
X49135000Y-6328095D01*
X49325476Y-7042380D01*
X49563571Y-6042380D01*
X50468333Y-7042380D02*
X49896904Y-7042380D01*
X50182619Y-7042380D02*
X50182619Y-6042380D01*
X50087380Y-6185238D01*
X49992142Y-6280476D01*
X49896904Y-6328095D01*
%TO.C,R8*%
X8700833Y-4977380D02*
X8367500Y-4501190D01*
X8129404Y-4977380D02*
X8129404Y-3977380D01*
X8510357Y-3977380D01*
X8605595Y-4025000D01*
X8653214Y-4072619D01*
X8700833Y-4167857D01*
X8700833Y-4310714D01*
X8653214Y-4405952D01*
X8605595Y-4453571D01*
X8510357Y-4501190D01*
X8129404Y-4501190D01*
X9272261Y-4405952D02*
X9177023Y-4358333D01*
X9129404Y-4310714D01*
X9081785Y-4215476D01*
X9081785Y-4167857D01*
X9129404Y-4072619D01*
X9177023Y-4025000D01*
X9272261Y-3977380D01*
X9462738Y-3977380D01*
X9557976Y-4025000D01*
X9605595Y-4072619D01*
X9653214Y-4167857D01*
X9653214Y-4215476D01*
X9605595Y-4310714D01*
X9557976Y-4358333D01*
X9462738Y-4405952D01*
X9272261Y-4405952D01*
X9177023Y-4453571D01*
X9129404Y-4501190D01*
X9081785Y-4596428D01*
X9081785Y-4786904D01*
X9129404Y-4882142D01*
X9177023Y-4929761D01*
X9272261Y-4977380D01*
X9462738Y-4977380D01*
X9557976Y-4929761D01*
X9605595Y-4882142D01*
X9653214Y-4786904D01*
X9653214Y-4596428D01*
X9605595Y-4501190D01*
X9557976Y-4453571D01*
X9462738Y-4405952D01*
%TO.C,R6*%
X21309913Y-5137380D02*
X20976580Y-4661190D01*
X20738484Y-5137380D02*
X20738484Y-4137380D01*
X21119437Y-4137380D01*
X21214675Y-4185000D01*
X21262294Y-4232619D01*
X21309913Y-4327857D01*
X21309913Y-4470714D01*
X21262294Y-4565952D01*
X21214675Y-4613571D01*
X21119437Y-4661190D01*
X20738484Y-4661190D01*
X22167056Y-4137380D02*
X21976580Y-4137380D01*
X21881341Y-4185000D01*
X21833722Y-4232619D01*
X21738484Y-4375476D01*
X21690865Y-4565952D01*
X21690865Y-4946904D01*
X21738484Y-5042142D01*
X21786103Y-5089761D01*
X21881341Y-5137380D01*
X22071818Y-5137380D01*
X22167056Y-5089761D01*
X22214675Y-5042142D01*
X22262294Y-4946904D01*
X22262294Y-4708809D01*
X22214675Y-4613571D01*
X22167056Y-4565952D01*
X22071818Y-4518333D01*
X21881341Y-4518333D01*
X21786103Y-4565952D01*
X21738484Y-4613571D01*
X21690865Y-4708809D01*
%TO.C,RESET1*%
X41821428Y-41452380D02*
X41488095Y-40976190D01*
X41250000Y-41452380D02*
X41250000Y-40452380D01*
X41630952Y-40452380D01*
X41726190Y-40500000D01*
X41773809Y-40547619D01*
X41821428Y-40642857D01*
X41821428Y-40785714D01*
X41773809Y-40880952D01*
X41726190Y-40928571D01*
X41630952Y-40976190D01*
X41250000Y-40976190D01*
X42250000Y-40928571D02*
X42583333Y-40928571D01*
X42726190Y-41452380D02*
X42250000Y-41452380D01*
X42250000Y-40452380D01*
X42726190Y-40452380D01*
X43107142Y-41404761D02*
X43250000Y-41452380D01*
X43488095Y-41452380D01*
X43583333Y-41404761D01*
X43630952Y-41357142D01*
X43678571Y-41261904D01*
X43678571Y-41166666D01*
X43630952Y-41071428D01*
X43583333Y-41023809D01*
X43488095Y-40976190D01*
X43297619Y-40928571D01*
X43202380Y-40880952D01*
X43154761Y-40833333D01*
X43107142Y-40738095D01*
X43107142Y-40642857D01*
X43154761Y-40547619D01*
X43202380Y-40500000D01*
X43297619Y-40452380D01*
X43535714Y-40452380D01*
X43678571Y-40500000D01*
X44107142Y-40928571D02*
X44440476Y-40928571D01*
X44583333Y-41452380D02*
X44107142Y-41452380D01*
X44107142Y-40452380D01*
X44583333Y-40452380D01*
X44869047Y-40452380D02*
X45440476Y-40452380D01*
X45154761Y-41452380D02*
X45154761Y-40452380D01*
X46297619Y-41452380D02*
X45726190Y-41452380D01*
X46011904Y-41452380D02*
X46011904Y-40452380D01*
X45916666Y-40595238D01*
X45821428Y-40690476D01*
X45726190Y-40738095D01*
%TO.C,R2*%
X11875833Y-13514880D02*
X11542500Y-13038690D01*
X11304404Y-13514880D02*
X11304404Y-12514880D01*
X11685357Y-12514880D01*
X11780595Y-12562500D01*
X11828214Y-12610119D01*
X11875833Y-12705357D01*
X11875833Y-12848214D01*
X11828214Y-12943452D01*
X11780595Y-12991071D01*
X11685357Y-13038690D01*
X11304404Y-13038690D01*
X12256785Y-12610119D02*
X12304404Y-12562500D01*
X12399642Y-12514880D01*
X12637738Y-12514880D01*
X12732976Y-12562500D01*
X12780595Y-12610119D01*
X12828214Y-12705357D01*
X12828214Y-12800595D01*
X12780595Y-12943452D01*
X12209166Y-13514880D01*
X12828214Y-13514880D01*
%TO.C,C1*%
X18138333Y-15592142D02*
X18090714Y-15639761D01*
X17947857Y-15687380D01*
X17852619Y-15687380D01*
X17709761Y-15639761D01*
X17614523Y-15544523D01*
X17566904Y-15449285D01*
X17519285Y-15258809D01*
X17519285Y-15115952D01*
X17566904Y-14925476D01*
X17614523Y-14830238D01*
X17709761Y-14735000D01*
X17852619Y-14687380D01*
X17947857Y-14687380D01*
X18090714Y-14735000D01*
X18138333Y-14782619D01*
X19090714Y-15687380D02*
X18519285Y-15687380D01*
X18805000Y-15687380D02*
X18805000Y-14687380D01*
X18709761Y-14830238D01*
X18614523Y-14925476D01*
X18519285Y-14973095D01*
%TO.C,R7*%
X23833333Y-23952380D02*
X23500000Y-23476190D01*
X23261904Y-23952380D02*
X23261904Y-22952380D01*
X23642857Y-22952380D01*
X23738095Y-23000000D01*
X23785714Y-23047619D01*
X23833333Y-23142857D01*
X23833333Y-23285714D01*
X23785714Y-23380952D01*
X23738095Y-23428571D01*
X23642857Y-23476190D01*
X23261904Y-23476190D01*
X24166666Y-22952380D02*
X24833333Y-22952380D01*
X24404761Y-23952380D01*
%TO.C,LED1*%
X41700952Y-7052380D02*
X41224761Y-7052380D01*
X41224761Y-6052380D01*
X42034285Y-6528571D02*
X42367619Y-6528571D01*
X42510476Y-7052380D02*
X42034285Y-7052380D01*
X42034285Y-6052380D01*
X42510476Y-6052380D01*
X42939047Y-7052380D02*
X42939047Y-6052380D01*
X43177142Y-6052380D01*
X43320000Y-6100000D01*
X43415238Y-6195238D01*
X43462857Y-6290476D01*
X43510476Y-6480952D01*
X43510476Y-6623809D01*
X43462857Y-6814285D01*
X43415238Y-6909523D01*
X43320000Y-7004761D01*
X43177142Y-7052380D01*
X42939047Y-7052380D01*
X44462857Y-7052380D02*
X43891428Y-7052380D01*
X44177142Y-7052380D02*
X44177142Y-6052380D01*
X44081904Y-6195238D01*
X43986666Y-6290476D01*
X43891428Y-6338095D01*
%TO.C,R5*%
X21373913Y-6788380D02*
X21040580Y-6312190D01*
X20802484Y-6788380D02*
X20802484Y-5788380D01*
X21183437Y-5788380D01*
X21278675Y-5836000D01*
X21326294Y-5883619D01*
X21373913Y-5978857D01*
X21373913Y-6121714D01*
X21326294Y-6216952D01*
X21278675Y-6264571D01*
X21183437Y-6312190D01*
X20802484Y-6312190D01*
X22278675Y-5788380D02*
X21802484Y-5788380D01*
X21754865Y-6264571D01*
X21802484Y-6216952D01*
X21897722Y-6169333D01*
X22135818Y-6169333D01*
X22231056Y-6216952D01*
X22278675Y-6264571D01*
X22326294Y-6359809D01*
X22326294Y-6597904D01*
X22278675Y-6693142D01*
X22231056Y-6740761D01*
X22135818Y-6788380D01*
X21897722Y-6788380D01*
X21802484Y-6740761D01*
X21754865Y-6693142D01*
%TO.C,X2*%
X29252380Y-18804523D02*
X30252380Y-18137857D01*
X29252380Y-18137857D02*
X30252380Y-18804523D01*
X29347619Y-17804523D02*
X29300000Y-17756904D01*
X29252380Y-17661666D01*
X29252380Y-17423571D01*
X29300000Y-17328333D01*
X29347619Y-17280714D01*
X29442857Y-17233095D01*
X29538095Y-17233095D01*
X29680952Y-17280714D01*
X30252380Y-17852142D01*
X30252380Y-17233095D01*
%TO.C,U1*%
X45738095Y-21282380D02*
X45738095Y-22091904D01*
X45785714Y-22187142D01*
X45833333Y-22234761D01*
X45928571Y-22282380D01*
X46119047Y-22282380D01*
X46214285Y-22234761D01*
X46261904Y-22187142D01*
X46309523Y-22091904D01*
X46309523Y-21282380D01*
X47309523Y-22282380D02*
X46738095Y-22282380D01*
X47023809Y-22282380D02*
X47023809Y-21282380D01*
X46928571Y-21425238D01*
X46833333Y-21520476D01*
X46738095Y-21568095D01*
%TO.C,X1*%
X3182380Y-33434523D02*
X4182380Y-32767857D01*
X3182380Y-32767857D02*
X4182380Y-33434523D01*
X4182380Y-31863095D02*
X4182380Y-32434523D01*
X4182380Y-32148809D02*
X3182380Y-32148809D01*
X3325238Y-32244047D01*
X3420476Y-32339285D01*
X3468095Y-32434523D01*
%TO.C,J2*%
X19042380Y-36833333D02*
X19756666Y-36833333D01*
X19899523Y-36880952D01*
X19994761Y-36976190D01*
X20042380Y-37119047D01*
X20042380Y-37214285D01*
X19137619Y-36404761D02*
X19090000Y-36357142D01*
X19042380Y-36261904D01*
X19042380Y-36023809D01*
X19090000Y-35928571D01*
X19137619Y-35880952D01*
X19232857Y-35833333D01*
X19328095Y-35833333D01*
X19470952Y-35880952D01*
X20042380Y-36452380D01*
X20042380Y-35833333D01*
%TO.C,C4*%
X31608333Y-13757142D02*
X31560714Y-13804761D01*
X31417857Y-13852380D01*
X31322619Y-13852380D01*
X31179761Y-13804761D01*
X31084523Y-13709523D01*
X31036904Y-13614285D01*
X30989285Y-13423809D01*
X30989285Y-13280952D01*
X31036904Y-13090476D01*
X31084523Y-12995238D01*
X31179761Y-12900000D01*
X31322619Y-12852380D01*
X31417857Y-12852380D01*
X31560714Y-12900000D01*
X31608333Y-12947619D01*
X32465476Y-13185714D02*
X32465476Y-13852380D01*
X32227380Y-12804761D02*
X31989285Y-13519047D01*
X32608333Y-13519047D01*
%TO.C,C2*%
X25888333Y-15592142D02*
X25840714Y-15639761D01*
X25697857Y-15687380D01*
X25602619Y-15687380D01*
X25459761Y-15639761D01*
X25364523Y-15544523D01*
X25316904Y-15449285D01*
X25269285Y-15258809D01*
X25269285Y-15115952D01*
X25316904Y-14925476D01*
X25364523Y-14830238D01*
X25459761Y-14735000D01*
X25602619Y-14687380D01*
X25697857Y-14687380D01*
X25840714Y-14735000D01*
X25888333Y-14782619D01*
X26269285Y-14782619D02*
X26316904Y-14735000D01*
X26412142Y-14687380D01*
X26650238Y-14687380D01*
X26745476Y-14735000D01*
X26793095Y-14782619D01*
X26840714Y-14877857D01*
X26840714Y-14973095D01*
X26793095Y-15115952D01*
X26221666Y-15687380D01*
X26840714Y-15687380D01*
D11*
%TO.C,SW3*%
X267500Y-22615000D02*
X-1332500Y-22615000D01*
X2257500Y-25865000D02*
X1057500Y-25865000D01*
X3147500Y-20965000D02*
X3147500Y-22465000D01*
X3147500Y-25235000D02*
X3147500Y-25225000D01*
X2257500Y-19065000D02*
X1057500Y-19065000D01*
X-1332500Y-23885000D02*
X267500Y-23885000D01*
X247500Y-19715000D02*
X247500Y-25215000D01*
X-1332500Y-22615000D02*
X-1332500Y-23885000D01*
%TO.C,USBC1*%
X252500Y-16770000D02*
X252500Y-7830000D01*
X3972500Y-16770000D02*
X5832500Y-16770000D01*
X252500Y-16770000D02*
X1732500Y-16770000D01*
X252500Y-7830000D02*
X1732500Y-7830000D01*
X3972500Y-7830000D02*
X5832500Y-7830000D01*
D12*
%TO.C,R9*%
X25477500Y-25437742D02*
X25477500Y-25912258D01*
X26522500Y-25437742D02*
X26522500Y-25912258D01*
D10*
%TO.C,U3*%
X27541000Y-5917500D02*
X27541000Y-6207500D01*
X29571000Y-7087500D02*
X29571000Y-6917500D01*
X29571000Y-5047500D02*
X27541000Y-5047500D01*
X27541000Y-7087500D02*
X29571000Y-7087500D01*
X29571000Y-6207500D02*
X29571000Y-5917500D01*
X27541000Y-6917500D02*
X27541000Y-7087500D01*
X29571000Y-5207500D02*
X29571000Y-5047500D01*
X27541000Y-5047500D02*
X27541000Y-5207500D01*
X29921000Y-7017500D02*
G75*
G03*
X29921000Y-7017500I-80000J0D01*
G01*
%TO.C,Q1*%
X20370000Y-26105000D02*
X20370000Y-24745000D01*
X22130000Y-26105000D02*
X22130000Y-24745000D01*
D13*
X20460000Y-26445000D02*
G75*
G03*
X20460000Y-26445000I-100000J0D01*
G01*
D12*
%TO.C,R4*%
X40542500Y-9287742D02*
X40542500Y-9762258D01*
X39497500Y-9287742D02*
X39497500Y-9762258D01*
%TO.C,R1*%
X11805242Y-9750000D02*
X12279758Y-9750000D01*
X11805242Y-10795000D02*
X12279758Y-10795000D01*
%TO.C,R3*%
X19272500Y-25987258D02*
X19272500Y-25512742D01*
X18227500Y-25987258D02*
X18227500Y-25512742D01*
D11*
%TO.C,LDO1*%
X23100000Y-19000000D02*
X21300000Y-19000000D01*
X23100000Y-15900000D02*
X21300000Y-15900000D01*
X23100000Y-17050000D02*
X23100000Y-17850000D01*
X20810000Y-15800000D02*
G75*
G03*
X20810000Y-15800000I-130000J0D01*
G01*
D12*
%TO.C,R10*%
X21012742Y-22652500D02*
X21487258Y-22652500D01*
X21012742Y-23697500D02*
X21487258Y-23697500D01*
%TO.C,C5*%
X31609420Y-21510000D02*
X31890580Y-21510000D01*
X31609420Y-20490000D02*
X31890580Y-20490000D01*
%TO.C,C3*%
X24130000Y-8495000D02*
X24411160Y-8495000D01*
X24130000Y-7475000D02*
X24411160Y-7475000D01*
D11*
%TO.C,SW1*%
X47335000Y-9400000D02*
X48135000Y-8600000D01*
X47855000Y-7850000D02*
X46965000Y-8740000D01*
X49935000Y-12300000D02*
X48235000Y-12300000D01*
X51685000Y-9230000D02*
X51685000Y-11570000D01*
X50415000Y-7850000D02*
X51305000Y-8740000D01*
X46965000Y-12060000D02*
X47855000Y-12950000D01*
X50035000Y-8600000D02*
X50935000Y-9500000D01*
X51305000Y-12060000D02*
X50415000Y-12950000D01*
X47335000Y-11400000D02*
X47335000Y-9400000D01*
X50935000Y-11300000D02*
X49935000Y-12300000D01*
X47855000Y-7850000D02*
X50415000Y-7850000D01*
X48235000Y-12300000D02*
X47335000Y-11400000D01*
X46585000Y-9230000D02*
X46585000Y-11570000D01*
X50935000Y-9500000D02*
X50935000Y-11300000D01*
X47855000Y-12950000D02*
X50415000Y-12950000D01*
X48135000Y-8600000D02*
X50035000Y-8600000D01*
X50415000Y-10400000D02*
G75*
G03*
X50415000Y-10400000I-1280000J0D01*
G01*
D12*
%TO.C,R8*%
X8630242Y-6477500D02*
X9104758Y-6477500D01*
X8630242Y-5432500D02*
X9104758Y-5432500D01*
%TO.C,R6*%
X24016580Y-4162500D02*
X24491096Y-4162500D01*
X24016580Y-5207500D02*
X24491096Y-5207500D01*
D11*
%TO.C,RESET1*%
X41200000Y-36080000D02*
X41200000Y-38420000D01*
X41950000Y-38250000D02*
X41950000Y-36250000D01*
X41580000Y-38910000D02*
X42470000Y-39800000D01*
X45550000Y-36350000D02*
X45550000Y-38150000D01*
X44650000Y-35450000D02*
X45550000Y-36350000D01*
X45550000Y-38150000D02*
X44550000Y-39150000D01*
X42470000Y-39800000D02*
X45030000Y-39800000D01*
X46300000Y-36080000D02*
X46300000Y-38420000D01*
X41950000Y-36250000D02*
X42750000Y-35450000D01*
X42750000Y-35450000D02*
X44650000Y-35450000D01*
X44550000Y-39150000D02*
X42850000Y-39150000D01*
X42470000Y-34700000D02*
X45030000Y-34700000D01*
X42470000Y-34700000D02*
X41580000Y-35590000D01*
X45920000Y-38910000D02*
X45030000Y-39800000D01*
X42850000Y-39150000D02*
X41950000Y-38250000D01*
X45030000Y-34700000D02*
X45920000Y-35590000D01*
X45030000Y-37250000D02*
G75*
G03*
X45030000Y-37250000I-1280000J0D01*
G01*
D12*
%TO.C,R2*%
X11805242Y-15015000D02*
X12279758Y-15015000D01*
X11805242Y-13970000D02*
X12279758Y-13970000D01*
%TO.C,C1*%
X18900000Y-17309420D02*
X18900000Y-17590580D01*
X17880000Y-17309420D02*
X17880000Y-17590580D01*
%TO.C,R7*%
X24522500Y-25912258D02*
X24522500Y-25437742D01*
X23477500Y-25912258D02*
X23477500Y-25437742D01*
D11*
%TO.C,LED1*%
X42830000Y-10050000D02*
X42830000Y-10550000D01*
X42220000Y-12450000D02*
X43420000Y-12450000D01*
X41870000Y-10850000D02*
X41870000Y-12100000D01*
X41870000Y-9850000D02*
X41860000Y-8370000D01*
X43770000Y-12100000D02*
X43420000Y-12450000D01*
X42320000Y-10050000D02*
X43320000Y-10050000D01*
X41870000Y-12100000D02*
X41870000Y-12100000D01*
X43760000Y-9710000D02*
X43760000Y-8370000D01*
X41870000Y-12100000D02*
X42220000Y-12450000D01*
X41860000Y-8370000D02*
X43760000Y-8370000D01*
X43770000Y-12100000D02*
X43770000Y-12100000D01*
X43770000Y-10850000D02*
X43770000Y-12100000D01*
%TO.C,G\u002A\u002A\u002A*%
G36*
X12517929Y-37418433D02*
G01*
X12665955Y-37426164D01*
X12799445Y-37441545D01*
X12930539Y-37466122D01*
X13071373Y-37501442D01*
X13124069Y-37516299D01*
X13371936Y-37607894D01*
X13605957Y-37735354D01*
X13824956Y-37897578D01*
X14027757Y-38093466D01*
X14213184Y-38321918D01*
X14380061Y-38581833D01*
X14492609Y-38797319D01*
X14616034Y-39089514D01*
X14710511Y-39385783D01*
X14774900Y-39680572D01*
X14808061Y-39968329D01*
X14808858Y-40243503D01*
X14803520Y-40313400D01*
X14790767Y-40436685D01*
X14776173Y-40529875D01*
X14755352Y-40601868D01*
X14723921Y-40661565D01*
X14677492Y-40717862D01*
X14611681Y-40779661D01*
X14546139Y-40835667D01*
X14243292Y-41066479D01*
X13910390Y-41275151D01*
X13550799Y-41459789D01*
X13167888Y-41618496D01*
X13130056Y-41632288D01*
X12988804Y-41683177D01*
X13113593Y-41534276D01*
X13272120Y-41318606D01*
X13394995Y-41094159D01*
X13482093Y-40863637D01*
X13533293Y-40629740D01*
X13548470Y-40395171D01*
X13527501Y-40162630D01*
X13470263Y-39934820D01*
X13376633Y-39714440D01*
X13246488Y-39504193D01*
X13208520Y-39453899D01*
X13061446Y-39295601D01*
X12886158Y-39156476D01*
X12690967Y-39041815D01*
X12484188Y-38956909D01*
X12382307Y-38928047D01*
X12271101Y-38910685D01*
X12138126Y-38904212D01*
X11999062Y-38908357D01*
X11869589Y-38922849D01*
X11796154Y-38938176D01*
X11599974Y-39008022D01*
X11421578Y-39106690D01*
X11263534Y-39230246D01*
X11128413Y-39374757D01*
X11018783Y-39536288D01*
X10937213Y-39710906D01*
X10886273Y-39894678D01*
X10868533Y-40083669D01*
X10886560Y-40273947D01*
X10895828Y-40316615D01*
X10957739Y-40494503D01*
X11051805Y-40657413D01*
X11173326Y-40800885D01*
X11317600Y-40920456D01*
X11479925Y-41011664D01*
X11655601Y-41070047D01*
X11698635Y-41078577D01*
X11866862Y-41088511D01*
X12033360Y-41062720D01*
X12192096Y-41004318D01*
X12337034Y-40916419D01*
X12462140Y-40802138D01*
X12561380Y-40664588D01*
X12584028Y-40621678D01*
X12640198Y-40465666D01*
X12660171Y-40307921D01*
X12645648Y-40153555D01*
X12598328Y-40007678D01*
X12519910Y-39875401D01*
X12412095Y-39761835D01*
X12276581Y-39672090D01*
X12266553Y-39667054D01*
X12187170Y-39640558D01*
X12086993Y-39624949D01*
X11978977Y-39620444D01*
X11876076Y-39627261D01*
X11791246Y-39645617D01*
X11760794Y-39658567D01*
X11660537Y-39727334D01*
X11570611Y-39815480D01*
X11503367Y-39910400D01*
X11491784Y-39933198D01*
X11463288Y-40014651D01*
X11465149Y-40073981D01*
X11498010Y-40114445D01*
X11530669Y-40130249D01*
X11581890Y-40138662D01*
X11625557Y-40120203D01*
X11668360Y-40070627D01*
X11695641Y-40025558D01*
X11767339Y-39932441D01*
X11857072Y-39870942D01*
X11959093Y-39841670D01*
X12067654Y-39845236D01*
X12177009Y-39882252D01*
X12281410Y-39953327D01*
X12291289Y-39962269D01*
X12370677Y-40060622D01*
X12417547Y-40173892D01*
X12432288Y-40295930D01*
X12415294Y-40420584D01*
X12366956Y-40541703D01*
X12287665Y-40653137D01*
X12244563Y-40696172D01*
X12140436Y-40776255D01*
X12034284Y-40825829D01*
X11913735Y-40849531D01*
X11825461Y-40853268D01*
X11736161Y-40850826D01*
X11668828Y-40841238D01*
X11606520Y-40820964D01*
X11551923Y-40796145D01*
X11410622Y-40707119D01*
X11290209Y-40590707D01*
X11194840Y-40453382D01*
X11128672Y-40301616D01*
X11095858Y-40141881D01*
X11093001Y-40081374D01*
X11111410Y-39914962D01*
X11164744Y-39753120D01*
X11248849Y-39600469D01*
X11359572Y-39461635D01*
X11492762Y-39341239D01*
X11644266Y-39243905D01*
X11809930Y-39174257D01*
X11935000Y-39143957D01*
X12129374Y-39130314D01*
X12321620Y-39153237D01*
X12507943Y-39210254D01*
X12684552Y-39298889D01*
X12847651Y-39416667D01*
X12993448Y-39561115D01*
X13118148Y-39729759D01*
X13217959Y-39920123D01*
X13250030Y-40001699D01*
X13275249Y-40075153D01*
X13292218Y-40135938D01*
X13302514Y-40195288D01*
X13307718Y-40264440D01*
X13309408Y-40354629D01*
X13309391Y-40424077D01*
X13308128Y-40535151D01*
X13304193Y-40618433D01*
X13296071Y-40685192D01*
X13282249Y-40746697D01*
X13261215Y-40814214D01*
X13254295Y-40834384D01*
X13157059Y-41059356D01*
X13029045Y-41267379D01*
X12874159Y-41454357D01*
X12696307Y-41616195D01*
X12499394Y-41748797D01*
X12287545Y-41847988D01*
X12054727Y-41917963D01*
X11817806Y-41957593D01*
X11586288Y-41965624D01*
X11466410Y-41956326D01*
X11381817Y-41941603D01*
X11278179Y-41917081D01*
X11172896Y-41887062D01*
X11131169Y-41873438D01*
X10873878Y-41765551D01*
X10637955Y-41627106D01*
X10425030Y-41461231D01*
X10236731Y-41271055D01*
X10074686Y-41059707D01*
X9940524Y-40830317D01*
X9835873Y-40586012D01*
X9762362Y-40329923D01*
X9721618Y-40065177D01*
X9715271Y-39794905D01*
X9744949Y-39522234D01*
X9795182Y-39306337D01*
X9894582Y-39021650D01*
X10022426Y-38759010D01*
X10181700Y-38513465D01*
X10375388Y-38280063D01*
X10476505Y-38175763D01*
X10717947Y-37964741D01*
X10981628Y-37785567D01*
X11266087Y-37639020D01*
X11569865Y-37525876D01*
X11816539Y-37461897D01*
X11914163Y-37443210D01*
X12009119Y-37430303D01*
X12112608Y-37422217D01*
X12235831Y-37417994D01*
X12343230Y-37416806D01*
X12517929Y-37418433D01*
G37*
G36*
X16893972Y-38731899D02*
G01*
X16942320Y-38776028D01*
X16970663Y-38834570D01*
X16973846Y-38861000D01*
X16957570Y-38921959D01*
X16916384Y-38973761D01*
X16861745Y-39004128D01*
X16837077Y-39007538D01*
X16798813Y-38995990D01*
X16753145Y-38968101D01*
X16751788Y-38967043D01*
X16708834Y-38911815D01*
X16699104Y-38847491D01*
X16722599Y-38785543D01*
X16751788Y-38754956D01*
X16797340Y-38726708D01*
X16836176Y-38714475D01*
X16837077Y-38714461D01*
X16893972Y-38731899D01*
G37*
G36*
X15747050Y-38696368D02*
G01*
X15792619Y-38589163D01*
X15807216Y-38558828D01*
X15881876Y-38437830D01*
X15983785Y-38316631D01*
X16102575Y-38205606D01*
X16227874Y-38115128D01*
X16280230Y-38085605D01*
X16374949Y-38042852D01*
X16480200Y-38004507D01*
X16583617Y-37974339D01*
X16672830Y-37956116D01*
X16717299Y-37952461D01*
X16761102Y-37952461D01*
X16712089Y-37908500D01*
X16672681Y-37854247D01*
X16635378Y-37767894D01*
X16601548Y-37656412D01*
X16572564Y-37526770D01*
X16549795Y-37385940D01*
X16534612Y-37240890D01*
X16528386Y-37098592D01*
X16531001Y-36987601D01*
X16535949Y-36899229D01*
X16536953Y-36841193D01*
X16532564Y-36804828D01*
X16521332Y-36781472D01*
X16501808Y-36762462D01*
X16492039Y-36754675D01*
X16439136Y-36694377D01*
X16396542Y-36612037D01*
X16372052Y-36524606D01*
X16369012Y-36487077D01*
X16382886Y-36401406D01*
X16419236Y-36313438D01*
X16470148Y-36240215D01*
X16493920Y-36217999D01*
X16593098Y-36161291D01*
X16696961Y-36138281D01*
X16799232Y-36146063D01*
X16893634Y-36181732D01*
X16973892Y-36242382D01*
X17033728Y-36325109D01*
X17066867Y-36427005D01*
X17071465Y-36485360D01*
X17054882Y-36603499D01*
X17004727Y-36701721D01*
X16920654Y-36780600D01*
X16879252Y-36805889D01*
X16781734Y-36858965D01*
X16768609Y-37000290D01*
X16765957Y-37158630D01*
X16783842Y-37338671D01*
X16820922Y-37529735D01*
X16848044Y-37632322D01*
X16876203Y-37735856D01*
X16890793Y-37809623D01*
X16891913Y-37860461D01*
X16879662Y-37895212D01*
X16854141Y-37920714D01*
X16852268Y-37922046D01*
X16824102Y-37943301D01*
X16827857Y-37951259D01*
X16867062Y-37952461D01*
X16868681Y-37952461D01*
X16940248Y-37959946D01*
X17034188Y-37979903D01*
X17137317Y-38008590D01*
X17236456Y-38042262D01*
X17318421Y-38077174D01*
X17331488Y-38083919D01*
X17481821Y-38185056D01*
X17619360Y-38316975D01*
X17738004Y-38471959D01*
X17831651Y-38642290D01*
X17884011Y-38782846D01*
X17918135Y-38966000D01*
X17915777Y-39151390D01*
X17878938Y-39334457D01*
X17809617Y-39510645D01*
X17709815Y-39675394D01*
X17581532Y-39824148D01*
X17426768Y-39952349D01*
X17348919Y-40002177D01*
X17254191Y-40051357D01*
X17148776Y-40095764D01*
X17044272Y-40131355D01*
X16952279Y-40154091D01*
X16895052Y-40160307D01*
X16856632Y-40165591D01*
X16824690Y-40184432D01*
X16797126Y-40221316D01*
X16771843Y-40280728D01*
X16746743Y-40367154D01*
X16719727Y-40485080D01*
X16701441Y-40574251D01*
X16655620Y-40789072D01*
X16609156Y-40973227D01*
X16559135Y-41135062D01*
X16502642Y-41282923D01*
X16436763Y-41425153D01*
X16358583Y-41570100D01*
X16346058Y-41591830D01*
X16151738Y-41888012D01*
X15926669Y-42161556D01*
X15673036Y-42410858D01*
X15393023Y-42634315D01*
X15088814Y-42830323D01*
X14762594Y-42997278D01*
X14416547Y-43133575D01*
X14130729Y-43218483D01*
X14018330Y-43246768D01*
X13916745Y-43270700D01*
X13821411Y-43290664D01*
X13727763Y-43307045D01*
X13631240Y-43320226D01*
X13527277Y-43330594D01*
X13411312Y-43338531D01*
X13278781Y-43344424D01*
X13125120Y-43348655D01*
X12945766Y-43351611D01*
X12736156Y-43353676D01*
X12509307Y-43355138D01*
X12299439Y-43355870D01*
X12083281Y-43355841D01*
X11867737Y-43355105D01*
X11659712Y-43353714D01*
X11466113Y-43351720D01*
X11293843Y-43349177D01*
X11149807Y-43346138D01*
X11083000Y-43344205D01*
X10806978Y-43333738D01*
X10544818Y-43321130D01*
X10298997Y-43306638D01*
X10071989Y-43290521D01*
X9866272Y-43273035D01*
X9684321Y-43254438D01*
X9528612Y-43234987D01*
X9401622Y-43214940D01*
X9305826Y-43194555D01*
X9243701Y-43174089D01*
X9217723Y-43153799D01*
X9217077Y-43150140D01*
X9234615Y-43121234D01*
X9284066Y-43081479D01*
X9360687Y-43033564D01*
X9459735Y-42980177D01*
X9576464Y-42924005D01*
X9706132Y-42867738D01*
X9738994Y-42854380D01*
X9822164Y-42821668D01*
X9905681Y-42790361D01*
X9994072Y-42759018D01*
X10091864Y-42726199D01*
X10203585Y-42690463D01*
X10333763Y-42650369D01*
X10486924Y-42604476D01*
X10667596Y-42551343D01*
X10880307Y-42489530D01*
X10936461Y-42473291D01*
X11102199Y-42425358D01*
X11260923Y-42379376D01*
X11407563Y-42336820D01*
X11537051Y-42299164D01*
X11644316Y-42267883D01*
X11724289Y-42244449D01*
X11771900Y-42230339D01*
X11772568Y-42230138D01*
X11829843Y-42214397D01*
X11917182Y-42192325D01*
X12026460Y-42165883D01*
X12149553Y-42137033D01*
X12278338Y-42107735D01*
X12295245Y-42103958D01*
X12743415Y-41991897D01*
X13157727Y-41862753D01*
X13539869Y-41715680D01*
X13891526Y-41549833D01*
X14214383Y-41364368D01*
X14510128Y-41158439D01*
X14780446Y-40931201D01*
X14933972Y-40781350D01*
X15133546Y-40557447D01*
X15300609Y-40329159D01*
X15440732Y-40087367D01*
X15559482Y-39822948D01*
X15620191Y-39657286D01*
X15649146Y-39570739D01*
X15668882Y-39503618D01*
X15681011Y-39444578D01*
X15687147Y-39382274D01*
X15688905Y-39305362D01*
X15687897Y-39202497D01*
X15687595Y-39183384D01*
X15688223Y-39031038D01*
X15696945Y-38906374D01*
X15702996Y-38871847D01*
X16471983Y-38871847D01*
X16490877Y-38982151D01*
X16529262Y-39062151D01*
X16609194Y-39151568D01*
X16707171Y-39206620D01*
X16821785Y-39226833D01*
X16951626Y-39211733D01*
X16964077Y-39208608D01*
X17034817Y-39174181D01*
X17104152Y-39113858D01*
X17159718Y-39039256D01*
X17173758Y-39011623D01*
X17203552Y-38898143D01*
X17196426Y-38782538D01*
X17153107Y-38673156D01*
X17142815Y-38656712D01*
X17067624Y-38575359D01*
X16974208Y-38523088D01*
X16870402Y-38499861D01*
X16764039Y-38505640D01*
X16662953Y-38540387D01*
X16574979Y-38604064D01*
X16529368Y-38659690D01*
X16484814Y-38760369D01*
X16471983Y-38871847D01*
X15702996Y-38871847D01*
X15715856Y-38798461D01*
X15747050Y-38696368D01*
G37*
G36*
X18074165Y-36413583D02*
G01*
X18162952Y-36463100D01*
X18235770Y-36539637D01*
X18284077Y-36637114D01*
X18300104Y-36742691D01*
X18281974Y-36844838D01*
X18234498Y-36937173D01*
X18162485Y-37013315D01*
X18070743Y-37066881D01*
X17964083Y-37091490D01*
X17941000Y-37092378D01*
X17894392Y-37095747D01*
X17860967Y-37110558D01*
X17828621Y-37144884D01*
X17798216Y-37187674D01*
X17703220Y-37360776D01*
X17639975Y-37551598D01*
X17610428Y-37752584D01*
X17611905Y-37909993D01*
X17615065Y-37995094D01*
X17607839Y-38049196D01*
X17595989Y-38072604D01*
X17542462Y-38110399D01*
X17477645Y-38114389D01*
X17447229Y-38104080D01*
X17417904Y-38083548D01*
X17397425Y-38050508D01*
X17384446Y-37998798D01*
X17377622Y-37922256D01*
X17375606Y-37814718D01*
X17375731Y-37776615D01*
X17394934Y-37553892D01*
X17448888Y-37345284D01*
X17536618Y-37153828D01*
X17613609Y-37036921D01*
X17643830Y-36993407D01*
X17652185Y-36962455D01*
X17641047Y-36925975D01*
X17630993Y-36904373D01*
X17608195Y-36828385D01*
X17600154Y-36738147D01*
X17607109Y-36650895D01*
X17626640Y-36588683D01*
X17694152Y-36495650D01*
X17779402Y-36432120D01*
X17875649Y-36397596D01*
X17976150Y-36391583D01*
X18074165Y-36413583D01*
G37*
D12*
%TO.C,R5*%
X24033322Y-6858500D02*
X24507838Y-6858500D01*
X24033322Y-5813500D02*
X24507838Y-5813500D01*
D10*
%TO.C,X2*%
X30680000Y-20020000D02*
X30680000Y-15970000D01*
X32830000Y-15970000D02*
X32830000Y-20020000D01*
X30680000Y-15970000D02*
X32830000Y-15970000D01*
X32830000Y-20020000D02*
X30680000Y-20020000D01*
D11*
%TO.C,U1*%
X36760000Y-23100000D02*
X36760000Y-23100000D01*
X41250000Y-28330000D02*
X41250000Y-28330000D01*
X42520000Y-28330000D02*
X42520000Y-28330000D01*
X36760000Y-28330000D02*
X36760000Y-26910000D01*
X47600000Y-15330000D02*
X47600000Y-15330000D01*
X36760000Y-28330000D02*
X38710000Y-28330000D01*
X47600000Y-28330000D02*
X47600000Y-28330000D01*
X36760000Y-21830000D02*
X36760000Y-21830000D01*
X51410000Y-28330000D02*
X54760000Y-28330000D01*
X39980000Y-15330000D02*
X39980000Y-15330000D01*
X36760000Y-16750000D02*
X36760000Y-15330000D01*
X50140000Y-15330000D02*
X50140000Y-15330000D01*
X36760000Y-18020000D02*
X36760000Y-18020000D01*
X52000000Y-16750000D02*
X54160000Y-16750000D01*
X48870000Y-15330000D02*
X48870000Y-15330000D01*
X54160000Y-16750000D02*
X54160000Y-26910000D01*
X36760000Y-25640000D02*
X36760000Y-25640000D01*
X50140000Y-28330000D02*
X50140000Y-28330000D01*
X52000000Y-26910000D02*
X52000000Y-16750000D01*
X36760000Y-15330000D02*
X38710000Y-15330000D01*
X51410000Y-15330000D02*
X54760000Y-15330000D01*
X54160000Y-26910000D02*
X52000000Y-26910000D01*
X46330000Y-28330000D02*
X46330000Y-28330000D01*
X39980000Y-28330000D02*
X39980000Y-28330000D01*
X45060000Y-28330000D02*
X45060000Y-28330000D01*
X43790000Y-15330000D02*
X43790000Y-15330000D01*
X43790000Y-28330000D02*
X43790000Y-28330000D01*
X48870000Y-28330000D02*
X48870000Y-28330000D01*
X36760000Y-19290000D02*
X36760000Y-19290000D01*
X36760000Y-24370000D02*
X36760000Y-24370000D01*
X36760000Y-20560000D02*
X36760000Y-20560000D01*
X46330000Y-15330000D02*
X46330000Y-15330000D01*
X41250000Y-15330000D02*
X41250000Y-15330000D01*
X45060000Y-15330000D02*
X45060000Y-15330000D01*
X42520000Y-15330000D02*
X42520000Y-15330000D01*
X54760000Y-15330000D02*
X54760000Y-28330000D01*
X51760000Y-14840000D02*
G75*
G03*
X51760000Y-14840000I-130000J0D01*
G01*
%TO.C,X1*%
X8490000Y-28255000D02*
X8510000Y-28255000D01*
X8490000Y-30895000D02*
X8490000Y-28255000D01*
X230000Y-30195000D02*
X230000Y-35055000D01*
X230000Y-27955000D02*
X230000Y-28235000D01*
X310000Y-37275000D02*
X8490000Y-37275000D01*
X230000Y-37015000D02*
X230000Y-37275000D01*
X230000Y-37275000D02*
X380000Y-37275000D01*
X8490000Y-32895000D02*
X8490000Y-32355000D01*
X8510000Y-27955000D02*
X230000Y-27955000D01*
X8490000Y-37275000D02*
X8490000Y-34355000D01*
X310000Y-37255000D02*
X310000Y-37275000D01*
X8510000Y-28255000D02*
X8510000Y-27955000D01*
D12*
%TO.C,J2*%
X20590000Y-39100000D02*
X21160000Y-39100000D01*
X21160000Y-40540000D02*
X21160000Y-39100000D01*
X22680000Y-33900000D02*
X23700000Y-33900000D01*
X27760000Y-33900000D02*
X28780000Y-33900000D01*
X30300000Y-33900000D02*
X31320000Y-33900000D01*
X33410000Y-39100000D02*
X33410000Y-33900000D01*
X32840000Y-39100000D02*
X33410000Y-39100000D01*
X30300000Y-39100000D02*
X31320000Y-39100000D01*
X20590000Y-33900000D02*
X21160000Y-33900000D01*
X27760000Y-39100000D02*
X28780000Y-39100000D01*
X25220000Y-39100000D02*
X26240000Y-39100000D01*
X20590000Y-39100000D02*
X20590000Y-33900000D01*
X22680000Y-39100000D02*
X23700000Y-39100000D01*
X32840000Y-33900000D02*
X33410000Y-33900000D01*
X25220000Y-33900000D02*
X26240000Y-33900000D01*
%TO.C,C4*%
X31584420Y-15260000D02*
X31865580Y-15260000D01*
X31584420Y-14240000D02*
X31865580Y-14240000D01*
%TO.C,C2*%
X26627500Y-17510580D02*
X26627500Y-17229420D01*
X25607500Y-17510580D02*
X25607500Y-17229420D01*
%TD*%
%LPC*%
D14*
%TO.C,SW3*%
X1647500Y-20965000D03*
X1647500Y-23965000D03*
D15*
X3897500Y-20215000D03*
X3897500Y-23215000D03*
X3897500Y-24715000D03*
D16*
X497500Y-26065000D03*
X2797500Y-26065000D03*
X2797500Y-18865000D03*
X497500Y-18865000D03*
%TD*%
D17*
%TO.C,USBC1*%
X6562500Y-15200000D03*
X6562500Y-9400000D03*
D18*
X7062500Y-7970000D03*
X7062500Y-16630000D03*
D19*
X2882500Y-16630000D03*
X2882500Y-7970000D03*
D20*
X7822500Y-8950000D03*
X7822500Y-9750000D03*
X7822500Y-11050000D03*
X7822500Y-12050000D03*
X7822500Y-12550000D03*
X7822500Y-13550000D03*
X7822500Y-14850000D03*
X7822500Y-15650000D03*
X7822500Y-15350000D03*
X7822500Y-14550000D03*
X7822500Y-14050000D03*
X7822500Y-13050000D03*
X7822500Y-11550000D03*
X7822500Y-10550000D03*
X7822500Y-10050000D03*
X7822500Y-9250000D03*
%TD*%
D21*
%TO.C,R9*%
X26000000Y-24850000D03*
X26000000Y-26500000D03*
%TD*%
D22*
%TO.C,H1*%
X3200000Y-3200000D03*
%TD*%
%TO.C,H4*%
X3200000Y-41800000D03*
%TD*%
D23*
%TO.C,U3*%
X29481000Y-6567500D03*
X29481000Y-5567500D03*
X27641000Y-5567500D03*
X27641000Y-6567500D03*
D24*
X28561000Y-6067500D03*
%TD*%
D22*
%TO.C,H2*%
X51800000Y-3200000D03*
%TD*%
D25*
%TO.C,Q1*%
X20750000Y-26145000D03*
X21250000Y-26145000D03*
X21750000Y-26145000D03*
X21750000Y-24705000D03*
X21250000Y-24705000D03*
X20750000Y-24705000D03*
%TD*%
D21*
%TO.C,R4*%
X40020000Y-8700000D03*
X40020000Y-10350000D03*
%TD*%
D26*
%TO.C,R1*%
X11217500Y-10272500D03*
X12867500Y-10272500D03*
%TD*%
D27*
%TO.C,R3*%
X18750000Y-26575000D03*
X18750000Y-24925000D03*
%TD*%
D28*
%TO.C,LDO1*%
X20900000Y-16500000D03*
X20900000Y-17450000D03*
X20900000Y-18400000D03*
X23500000Y-18400000D03*
X23500000Y-16500000D03*
%TD*%
D26*
%TO.C,R10*%
X20425000Y-23175000D03*
X22075000Y-23175000D03*
%TD*%
D22*
%TO.C,H3*%
X51800000Y-41800000D03*
%TD*%
D29*
%TO.C,C5*%
X30975000Y-21000000D03*
X32525000Y-21000000D03*
%TD*%
%TO.C,C3*%
X23495580Y-7985000D03*
X25045580Y-7985000D03*
%TD*%
D30*
%TO.C,SW1*%
X45835000Y-8550000D03*
X52435000Y-8550000D03*
X45835000Y-12250000D03*
X52435000Y-12250000D03*
%TD*%
D26*
%TO.C,R8*%
X8042500Y-5955000D03*
X9692500Y-5955000D03*
%TD*%
%TO.C,R6*%
X23428838Y-4685000D03*
X25078838Y-4685000D03*
%TD*%
D30*
%TO.C,RESET1*%
X40450000Y-35400000D03*
X47050000Y-35400000D03*
X40450000Y-39100000D03*
X47050000Y-39100000D03*
%TD*%
D26*
%TO.C,R2*%
X11217500Y-14492500D03*
X12867500Y-14492500D03*
%TD*%
D31*
%TO.C,C1*%
X18390000Y-16675000D03*
X18390000Y-18225000D03*
%TD*%
D27*
%TO.C,R7*%
X24000000Y-26500000D03*
X24000000Y-24850000D03*
%TD*%
D32*
%TO.C,LED1*%
X42820000Y-11450000D03*
X42820000Y-9250000D03*
%TD*%
D26*
%TO.C,R5*%
X23445580Y-6336000D03*
X25095580Y-6336000D03*
%TD*%
D33*
%TO.C,X2*%
X31750000Y-16730000D03*
X31750000Y-19270000D03*
%TD*%
D34*
%TO.C,U1*%
X50770000Y-15330000D03*
X49500000Y-15330000D03*
X48260000Y-15330000D03*
X46960000Y-15330000D03*
X45690000Y-15330000D03*
X44420000Y-15330000D03*
X43150000Y-15330000D03*
X41880000Y-15330000D03*
X40610000Y-15330000D03*
X39340000Y-15330000D03*
D35*
X36750000Y-17380000D03*
D36*
X38850000Y-18020000D03*
D35*
X36750000Y-18660000D03*
D36*
X38850000Y-19290000D03*
D35*
X36750000Y-19930000D03*
D36*
X38850000Y-20560000D03*
D35*
X36750000Y-21200000D03*
D36*
X38850000Y-21830000D03*
D35*
X36750000Y-22460000D03*
D36*
X38850000Y-23100000D03*
D35*
X36750000Y-23730000D03*
D36*
X38850000Y-24370000D03*
D35*
X36750000Y-25000000D03*
D36*
X38850000Y-25640000D03*
D35*
X36750000Y-26280000D03*
D34*
X39340000Y-28330000D03*
X40610000Y-28330000D03*
D36*
X41250000Y-26240000D03*
D34*
X41880000Y-28330000D03*
D36*
X42520000Y-26240000D03*
D34*
X43150000Y-28330000D03*
D36*
X43790000Y-26240000D03*
D34*
X44420000Y-28330000D03*
D36*
X45060000Y-26240000D03*
D34*
X45690000Y-28330000D03*
D36*
X46330000Y-26240000D03*
D34*
X46960000Y-28330000D03*
D36*
X47600000Y-26240000D03*
D34*
X48230000Y-28330000D03*
D36*
X48870000Y-26240000D03*
D34*
X49500000Y-28330000D03*
D36*
X50140000Y-26230000D03*
D34*
X50770000Y-28330000D03*
%TD*%
D37*
%TO.C,X1*%
X7940000Y-33625000D03*
X7940000Y-31625000D03*
D38*
X2060000Y-29215000D03*
X2060000Y-36035000D03*
%TD*%
D39*
%TO.C,J2*%
X21920000Y-39025000D03*
X21920000Y-33975000D03*
X24460000Y-39025000D03*
X24460000Y-33975000D03*
X27000000Y-39025000D03*
X27000000Y-33975000D03*
X29540000Y-39025000D03*
X29540000Y-33975000D03*
X32080000Y-39025000D03*
X32080000Y-33975000D03*
%TD*%
D29*
%TO.C,C4*%
X30950000Y-14750000D03*
X32500000Y-14750000D03*
%TD*%
D40*
%TO.C,C2*%
X26117500Y-18145000D03*
X26117500Y-16595000D03*
%TD*%
M02*
