%TF.GenerationSoftware,KiCad,Pcbnew,6.0.11-2627ca5db0~126~ubuntu22.04.1*%
%TF.CreationDate,2023-08-27T22:06:58+02:00*%
%TF.ProjectId,E73-2G4M08S1C-52840,4537332d-3247-4344-9d30-385331432d35,rev?*%
%TF.SameCoordinates,Original*%
%TF.FileFunction,Soldermask,Top*%
%TF.FilePolarity,Negative*%
%FSLAX46Y46*%
G04 Gerber Fmt 4.6, Leading zero omitted, Abs format (unit mm)*
G04 Created by KiCad (PCBNEW 6.0.11-2627ca5db0~126~ubuntu22.04.1) date 2023-08-27 22:06:58*
%MOMM*%
%LPD*%
G01*
G04 APERTURE LIST*
G04 Aperture macros list*
%AMRoundRect*
0 Rectangle with rounded corners*
0 $1 Rounding radius*
0 $2 $3 $4 $5 $6 $7 $8 $9 X,Y pos of 4 corners*
0 Add a 4 corners polygon primitive as box body*
4,1,4,$2,$3,$4,$5,$6,$7,$8,$9,$2,$3,0*
0 Add four circle primitives for the rounded corners*
1,1,$1+$1,$2,$3*
1,1,$1+$1,$4,$5*
1,1,$1+$1,$6,$7*
1,1,$1+$1,$8,$9*
0 Add four rect primitives between the rounded corners*
20,1,$1+$1,$2,$3,$4,$5,0*
20,1,$1+$1,$4,$5,$6,$7,0*
20,1,$1+$1,$6,$7,$8,$9,0*
20,1,$1+$1,$8,$9,$2,$3,0*%
G04 Aperture macros list end*
%ADD10C,0.900000*%
%ADD11R,1.520000X0.600000*%
%ADD12R,0.700000X1.200000*%
%ADD13C,0.750000*%
%ADD14O,2.000000X1.200000*%
%ADD15O,1.800000X1.200000*%
%ADD16R,1.300000X0.300000*%
%ADD17RoundRect,0.200000X-0.275000X0.200000X-0.275000X-0.200000X0.275000X-0.200000X0.275000X0.200000X0*%
%ADD18C,3.200000*%
%ADD19R,0.550000X0.350000*%
%ADD20R,0.700000X1.600000*%
%ADD21R,0.280000X0.550000*%
%ADD22RoundRect,0.200000X-0.200000X-0.275000X0.200000X-0.275000X0.200000X0.275000X-0.200000X0.275000X0*%
%ADD23RoundRect,0.200000X0.275000X-0.200000X0.275000X0.200000X-0.275000X0.200000X-0.275000X-0.200000X0*%
%ADD24R,1.000000X0.600000*%
%ADD25RoundRect,0.225000X-0.225000X-0.250000X0.225000X-0.250000X0.225000X0.250000X-0.225000X0.250000X0*%
%ADD26R,1.700000X1.000000*%
%ADD27RoundRect,0.225000X-0.250000X0.225000X-0.250000X-0.225000X0.250000X-0.225000X0.250000X0.225000X0*%
%ADD28R,1.250000X1.000000*%
%ADD29R,1.700000X1.050000*%
%ADD30R,0.900000X2.000000*%
%ADD31R,2.000000X0.900000*%
%ADD32R,0.900000X0.900000*%
%ADD33R,3.250000X1.000000*%
%ADD34R,4.000000X1.500000*%
%ADD35R,1.000000X3.150000*%
%ADD36RoundRect,0.225000X0.250000X-0.225000X0.250000X0.225000X-0.250000X0.225000X-0.250000X-0.225000X0*%
G04 APERTURE END LIST*
D10*
%TO.C,SW3*%
X1647500Y-20965000D03*
X1647500Y-23965000D03*
D11*
X3897500Y-20215000D03*
X3897500Y-23215000D03*
X3897500Y-24715000D03*
D12*
X497500Y-26065000D03*
X2797500Y-26065000D03*
X2797500Y-18865000D03*
X497500Y-18865000D03*
%TD*%
D13*
%TO.C,USBC1*%
X6562500Y-15200000D03*
X6562500Y-9400000D03*
D14*
X7062500Y-7970000D03*
X7062500Y-16630000D03*
D15*
X2882500Y-16630000D03*
X2882500Y-7970000D03*
D16*
X7822500Y-8950000D03*
X7822500Y-9750000D03*
X7822500Y-11050000D03*
X7822500Y-12050000D03*
X7822500Y-12550000D03*
X7822500Y-13550000D03*
X7822500Y-14850000D03*
X7822500Y-15650000D03*
X7822500Y-15350000D03*
X7822500Y-14550000D03*
X7822500Y-14050000D03*
X7822500Y-13050000D03*
X7822500Y-11550000D03*
X7822500Y-10550000D03*
X7822500Y-10050000D03*
X7822500Y-9250000D03*
%TD*%
D17*
%TO.C,R9*%
X26000000Y-24850000D03*
X26000000Y-26500000D03*
%TD*%
D18*
%TO.C,H1*%
X3200000Y-3200000D03*
%TD*%
%TO.C,H4*%
X3200000Y-41800000D03*
%TD*%
D19*
%TO.C,U3*%
X29481000Y-6567500D03*
X29481000Y-5567500D03*
X27641000Y-5567500D03*
X27641000Y-6567500D03*
D20*
X28561000Y-6067500D03*
%TD*%
D18*
%TO.C,H2*%
X51800000Y-3200000D03*
%TD*%
D21*
%TO.C,Q1*%
X20750000Y-26145000D03*
X21250000Y-26145000D03*
X21750000Y-26145000D03*
X21750000Y-24705000D03*
X21250000Y-24705000D03*
X20750000Y-24705000D03*
%TD*%
D17*
%TO.C,R4*%
X40020000Y-8700000D03*
X40020000Y-10350000D03*
%TD*%
D22*
%TO.C,R1*%
X11217500Y-10272500D03*
X12867500Y-10272500D03*
%TD*%
D23*
%TO.C,R3*%
X18750000Y-26575000D03*
X18750000Y-24925000D03*
%TD*%
D24*
%TO.C,LDO1*%
X20900000Y-16500000D03*
X20900000Y-17450000D03*
X20900000Y-18400000D03*
X23500000Y-18400000D03*
X23500000Y-16500000D03*
%TD*%
D22*
%TO.C,R10*%
X20425000Y-23175000D03*
X22075000Y-23175000D03*
%TD*%
D18*
%TO.C,H3*%
X51800000Y-41800000D03*
%TD*%
D25*
%TO.C,C5*%
X30975000Y-21000000D03*
X32525000Y-21000000D03*
%TD*%
%TO.C,C3*%
X23495580Y-7985000D03*
X25045580Y-7985000D03*
%TD*%
D26*
%TO.C,SW1*%
X45835000Y-8550000D03*
X52435000Y-8550000D03*
X45835000Y-12250000D03*
X52435000Y-12250000D03*
%TD*%
D22*
%TO.C,R8*%
X8042500Y-5955000D03*
X9692500Y-5955000D03*
%TD*%
%TO.C,R6*%
X23428838Y-4685000D03*
X25078838Y-4685000D03*
%TD*%
D26*
%TO.C,RESET1*%
X40450000Y-35400000D03*
X47050000Y-35400000D03*
X40450000Y-39100000D03*
X47050000Y-39100000D03*
%TD*%
D22*
%TO.C,R2*%
X11217500Y-14492500D03*
X12867500Y-14492500D03*
%TD*%
D27*
%TO.C,C1*%
X18390000Y-16675000D03*
X18390000Y-18225000D03*
%TD*%
D23*
%TO.C,R7*%
X24000000Y-26500000D03*
X24000000Y-24850000D03*
%TD*%
D28*
%TO.C,LED1*%
X42820000Y-11450000D03*
X42820000Y-9250000D03*
%TD*%
D22*
%TO.C,R5*%
X23445580Y-6336000D03*
X25095580Y-6336000D03*
%TD*%
D29*
%TO.C,X2*%
X31750000Y-16730000D03*
X31750000Y-19270000D03*
%TD*%
D30*
%TO.C,U1*%
X50770000Y-15330000D03*
X49500000Y-15330000D03*
X48260000Y-15330000D03*
X46960000Y-15330000D03*
X45690000Y-15330000D03*
X44420000Y-15330000D03*
X43150000Y-15330000D03*
X41880000Y-15330000D03*
X40610000Y-15330000D03*
X39340000Y-15330000D03*
D31*
X36750000Y-17380000D03*
D32*
X38850000Y-18020000D03*
D31*
X36750000Y-18660000D03*
D32*
X38850000Y-19290000D03*
D31*
X36750000Y-19930000D03*
D32*
X38850000Y-20560000D03*
D31*
X36750000Y-21200000D03*
D32*
X38850000Y-21830000D03*
D31*
X36750000Y-22460000D03*
D32*
X38850000Y-23100000D03*
D31*
X36750000Y-23730000D03*
D32*
X38850000Y-24370000D03*
D31*
X36750000Y-25000000D03*
D32*
X38850000Y-25640000D03*
D31*
X36750000Y-26280000D03*
D30*
X39340000Y-28330000D03*
X40610000Y-28330000D03*
D32*
X41250000Y-26240000D03*
D30*
X41880000Y-28330000D03*
D32*
X42520000Y-26240000D03*
D30*
X43150000Y-28330000D03*
D32*
X43790000Y-26240000D03*
D30*
X44420000Y-28330000D03*
D32*
X45060000Y-26240000D03*
D30*
X45690000Y-28330000D03*
D32*
X46330000Y-26240000D03*
D30*
X46960000Y-28330000D03*
D32*
X47600000Y-26240000D03*
D30*
X48230000Y-28330000D03*
D32*
X48870000Y-26240000D03*
D30*
X49500000Y-28330000D03*
D32*
X50140000Y-26230000D03*
D30*
X50770000Y-28330000D03*
%TD*%
D33*
%TO.C,X1*%
X7940000Y-33625000D03*
X7940000Y-31625000D03*
D34*
X2060000Y-29215000D03*
X2060000Y-36035000D03*
%TD*%
D35*
%TO.C,J2*%
X21920000Y-39025000D03*
X21920000Y-33975000D03*
X24460000Y-39025000D03*
X24460000Y-33975000D03*
X27000000Y-39025000D03*
X27000000Y-33975000D03*
X29540000Y-39025000D03*
X29540000Y-33975000D03*
X32080000Y-39025000D03*
X32080000Y-33975000D03*
%TD*%
D25*
%TO.C,C4*%
X30950000Y-14750000D03*
X32500000Y-14750000D03*
%TD*%
D36*
%TO.C,C2*%
X26117500Y-18145000D03*
X26117500Y-16595000D03*
%TD*%
M02*
