M48
; DRILL file {KiCad 6.0.11-2627ca5db0~126~ubuntu22.04.1} date So 27 Aug 2023 22:06:58
; FORMAT={-:-/ absolute / inch / decimal}
; #@! TF.CreationDate,2023-08-27T22:06:58+02:00
; #@! TF.GenerationSoftware,Kicad,Pcbnew,6.0.11-2627ca5db0~126~ubuntu22.04.1
; #@! TF.FileFunction,Plated,1,2,PTH
FMAT,2
INCH
; #@! TA.AperFunction,Plated,PTH,ViaDrill
T1C0.0157
; #@! TA.AperFunction,Plated,PTH,ComponentDrill
T2C0.0315
%
G90
G05
T1
X0.0591Y-0.7382
X0.0591Y-1.0236
X0.1476Y-0.7382
X0.1476Y-1.0236
X0.2441Y-0.4331
X0.252Y-0.5019
X0.298Y-0.7959
X0.3051Y-1.2008
X0.3456Y-0.6299
X0.3493Y-0.3445
X0.4281Y-0.2362
X0.556Y-0.4035
X0.556Y-0.5709
X0.689Y-0.9744
X0.76Y-0.7474
X0.7802Y-1.0341
X0.8661Y-1.4469
X0.8683Y-0.6884
X0.925Y-0.375
X0.925Y-0.5413
X0.9646Y-1.4469
X1.0236Y-0.3346
X1.0531Y-0.2559
X1.063Y-1.0433
X1.063Y-1.4469
X1.0728Y-0.6496
X1.15Y-0.2965
X1.1703Y-0.5807
X1.1713Y-0.8268
X1.1909Y-0.8858
X1.2697Y-1.4469
X1.3681Y-0.4636
X1.3681Y-0.5049
X1.3878Y-0.8858
X1.3878Y-0.935
X1.4665Y-1.2598
X1.5018Y-1.2313
X1.5256Y-1.0433
X1.575Y-0.45
X1.5937Y-1.2
X1.6526Y-1.1991
X1.6732Y-0.3051
X1.6939Y-1.1991
X1.75Y-1.1988
X1.8012Y-0.6693
X1.8406Y-1.2008
X1.8996Y-1.2008
X1.9094Y-1.3878
X2.0669Y-0.3839
T2
G00X0.1253Y-0.3138
M15
G01X0.1017Y-0.3138
M16
G05
G00X0.1253Y-0.6547
M15
G01X0.1017Y-0.6547
M16
G05
G00X0.2938Y-0.3138
M15
G01X0.2623Y-0.3138
M16
G05
G00X0.2938Y-0.6547
M15
G01X0.2623Y-0.6547
M16
G05
T0
M30
