%TF.GenerationSoftware,KiCad,Pcbnew,9.0.9*%
%TF.CreationDate,2026-05-03T18:56:32+02:00*%
%TF.ProjectId,flash_adapter,666c6173-685f-4616-9461-707465722e6b,rev?*%
%TF.SameCoordinates,PXb71b00PY206cc80*%
%TF.FileFunction,Copper,L2,Bot*%
%TF.FilePolarity,Positive*%
%FSLAX46Y46*%
G04 Gerber Fmt 4.6, Leading zero omitted, Abs format (unit mm)*
G04 Created by KiCad (PCBNEW 9.0.9) date 2026-05-03 18:56:32*
%MOMM*%
%LPD*%
G01*
G04 APERTURE LIST*
%TA.AperFunction,ViaPad*%
%ADD10C,0.600000*%
%TD*%
%TA.AperFunction,Conductor*%
%ADD11C,0.200000*%
%TD*%
G04 APERTURE END LIST*
D10*
%TO.N,GND*%
X4500000Y4500000D03*
X7000000Y4500000D03*
X5500000Y17500000D03*
X11000000Y4500000D03*
X6500000Y17500000D03*
X9000000Y17500000D03*
%TO.N,SWC*%
X4500000Y17500000D03*
X4506006Y13469302D03*
%TD*%
D11*
%TO.N,SWC*%
X4500000Y17500000D02*
X4500000Y13475308D01*
X4500000Y13475308D02*
X4506006Y13469302D01*
%TD*%
%TA.AperFunction,Conductor*%
%TO.N,GND*%
G36*
X12442539Y21479815D02*
G01*
X12488294Y21427011D01*
X12499500Y21375500D01*
X12499500Y624500D01*
X12479815Y557461D01*
X12427011Y511706D01*
X12375500Y500500D01*
X624500Y500500D01*
X557461Y520185D01*
X511706Y572989D01*
X500500Y624500D01*
X500500Y17578847D01*
X3699500Y17578847D01*
X3699500Y17421154D01*
X3730261Y17266511D01*
X3730264Y17266499D01*
X3790602Y17120828D01*
X3790609Y17120815D01*
X3878602Y16989126D01*
X3899480Y16922449D01*
X3899500Y16920235D01*
X3899500Y14040080D01*
X3879815Y13973041D01*
X3878602Y13971189D01*
X3796615Y13848488D01*
X3796608Y13848475D01*
X3736270Y13702804D01*
X3736267Y13702792D01*
X3705506Y13548149D01*
X3705506Y13390456D01*
X3736267Y13235813D01*
X3736270Y13235801D01*
X3796608Y13090130D01*
X3796615Y13090117D01*
X3884216Y12959014D01*
X3884219Y12959010D01*
X3995713Y12847516D01*
X3995717Y12847513D01*
X4126820Y12759912D01*
X4126833Y12759905D01*
X4272504Y12699567D01*
X4272509Y12699565D01*
X4427159Y12668803D01*
X4427162Y12668802D01*
X4427164Y12668802D01*
X4584850Y12668802D01*
X4584851Y12668803D01*
X4739503Y12699565D01*
X4885185Y12759908D01*
X5016295Y12847513D01*
X5127795Y12959013D01*
X5215400Y13090123D01*
X5275743Y13235805D01*
X5306506Y13390460D01*
X5306506Y13548144D01*
X5306506Y13548147D01*
X5306505Y13548149D01*
X5275744Y13702792D01*
X5275743Y13702799D01*
X5275741Y13702804D01*
X5215403Y13848475D01*
X5215396Y13848488D01*
X5124411Y13984656D01*
X5125689Y13985511D01*
X5101332Y14042875D01*
X5100500Y14057219D01*
X5100500Y16920235D01*
X5120185Y16987274D01*
X5121398Y16989126D01*
X5209390Y17120815D01*
X5209390Y17120816D01*
X5209394Y17120821D01*
X5269737Y17266503D01*
X5300500Y17421158D01*
X5300500Y17578842D01*
X5300500Y17578845D01*
X5300499Y17578847D01*
X5269738Y17733490D01*
X5269737Y17733497D01*
X5269735Y17733502D01*
X5209397Y17879173D01*
X5209390Y17879186D01*
X5121789Y18010289D01*
X5121786Y18010293D01*
X5010292Y18121787D01*
X5010288Y18121790D01*
X4879185Y18209391D01*
X4879172Y18209398D01*
X4733501Y18269736D01*
X4733489Y18269739D01*
X4578845Y18300500D01*
X4578842Y18300500D01*
X4421158Y18300500D01*
X4421155Y18300500D01*
X4266510Y18269739D01*
X4266498Y18269736D01*
X4120827Y18209398D01*
X4120814Y18209391D01*
X3989711Y18121790D01*
X3989707Y18121787D01*
X3878213Y18010293D01*
X3878210Y18010289D01*
X3790609Y17879186D01*
X3790602Y17879173D01*
X3730264Y17733502D01*
X3730261Y17733490D01*
X3699500Y17578847D01*
X500500Y17578847D01*
X500500Y21375500D01*
X520185Y21442539D01*
X572989Y21488294D01*
X624500Y21499500D01*
X12375500Y21499500D01*
X12442539Y21479815D01*
G37*
%TD.AperFunction*%
%TD*%
M02*
