%TF.GenerationSoftware,KiCad,Pcbnew,9.0.9*%
%TF.CreationDate,2026-05-03T16:10:12+02:00*%
%TF.ProjectId,flash_adapter,666c6173-685f-4616-9461-707465722e6b,rev?*%
%TF.SameCoordinates,PXb71b00PY206cc80*%
%TF.FileFunction,Legend,Bot*%
%TF.FilePolarity,Positive*%
%FSLAX46Y46*%
G04 Gerber Fmt 4.6, Leading zero omitted, Abs format (unit mm)*
G04 Created by KiCad (PCBNEW 9.0.9) date 2026-05-03 16:10:12*
%MOMM*%
%LPD*%
G01*
G04 APERTURE LIST*
%ADD10C,0.120000*%
G04 APERTURE END LIST*
D10*
X10709523Y20555193D02*
X10976189Y20555193D01*
X10976189Y20136145D02*
X10976189Y20936145D01*
X10976189Y20936145D02*
X10595237Y20936145D01*
X9909523Y20136145D02*
X10290475Y20136145D01*
X10290475Y20136145D02*
X10290475Y20936145D01*
X9680952Y20364717D02*
X9299999Y20364717D01*
X9757142Y20136145D02*
X9490475Y20936145D01*
X9490475Y20936145D02*
X9223809Y20136145D01*
X8995238Y20174240D02*
X8880952Y20136145D01*
X8880952Y20136145D02*
X8690476Y20136145D01*
X8690476Y20136145D02*
X8614285Y20174240D01*
X8614285Y20174240D02*
X8576190Y20212336D01*
X8576190Y20212336D02*
X8538095Y20288526D01*
X8538095Y20288526D02*
X8538095Y20364717D01*
X8538095Y20364717D02*
X8576190Y20440907D01*
X8576190Y20440907D02*
X8614285Y20479002D01*
X8614285Y20479002D02*
X8690476Y20517098D01*
X8690476Y20517098D02*
X8842857Y20555193D01*
X8842857Y20555193D02*
X8919047Y20593288D01*
X8919047Y20593288D02*
X8957142Y20631383D01*
X8957142Y20631383D02*
X8995238Y20707574D01*
X8995238Y20707574D02*
X8995238Y20783764D01*
X8995238Y20783764D02*
X8957142Y20859955D01*
X8957142Y20859955D02*
X8919047Y20898050D01*
X8919047Y20898050D02*
X8842857Y20936145D01*
X8842857Y20936145D02*
X8652380Y20936145D01*
X8652380Y20936145D02*
X8538095Y20898050D01*
X8195237Y20136145D02*
X8195237Y20936145D01*
X8195237Y20555193D02*
X7738094Y20555193D01*
X7738094Y20136145D02*
X7738094Y20936145D01*
X6785714Y20364717D02*
X6404761Y20364717D01*
X6861904Y20136145D02*
X6595237Y20936145D01*
X6595237Y20936145D02*
X6328571Y20136145D01*
X6061904Y20136145D02*
X6061904Y20936145D01*
X6061904Y20936145D02*
X5871428Y20936145D01*
X5871428Y20936145D02*
X5757142Y20898050D01*
X5757142Y20898050D02*
X5680952Y20821860D01*
X5680952Y20821860D02*
X5642857Y20745669D01*
X5642857Y20745669D02*
X5604761Y20593288D01*
X5604761Y20593288D02*
X5604761Y20479002D01*
X5604761Y20479002D02*
X5642857Y20326621D01*
X5642857Y20326621D02*
X5680952Y20250431D01*
X5680952Y20250431D02*
X5757142Y20174240D01*
X5757142Y20174240D02*
X5871428Y20136145D01*
X5871428Y20136145D02*
X6061904Y20136145D01*
X5300000Y20364717D02*
X4919047Y20364717D01*
X5376190Y20136145D02*
X5109523Y20936145D01*
X5109523Y20936145D02*
X4842857Y20136145D01*
X4576190Y20136145D02*
X4576190Y20936145D01*
X4576190Y20936145D02*
X4271428Y20936145D01*
X4271428Y20936145D02*
X4195238Y20898050D01*
X4195238Y20898050D02*
X4157143Y20859955D01*
X4157143Y20859955D02*
X4119047Y20783764D01*
X4119047Y20783764D02*
X4119047Y20669479D01*
X4119047Y20669479D02*
X4157143Y20593288D01*
X4157143Y20593288D02*
X4195238Y20555193D01*
X4195238Y20555193D02*
X4271428Y20517098D01*
X4271428Y20517098D02*
X4576190Y20517098D01*
X3890476Y20936145D02*
X3433333Y20936145D01*
X3661905Y20136145D02*
X3661905Y20936145D01*
X3166666Y20555193D02*
X2900000Y20555193D01*
X2785714Y20136145D02*
X3166666Y20136145D01*
X3166666Y20136145D02*
X3166666Y20936145D01*
X3166666Y20936145D02*
X2785714Y20936145D01*
X1985713Y20136145D02*
X2252380Y20517098D01*
X2442856Y20136145D02*
X2442856Y20936145D01*
X2442856Y20936145D02*
X2138094Y20936145D01*
X2138094Y20936145D02*
X2061904Y20898050D01*
X2061904Y20898050D02*
X2023809Y20859955D01*
X2023809Y20859955D02*
X1985713Y20783764D01*
X1985713Y20783764D02*
X1985713Y20669479D01*
X1985713Y20669479D02*
X2023809Y20593288D01*
X2023809Y20593288D02*
X2061904Y20555193D01*
X2061904Y20555193D02*
X2138094Y20517098D01*
X2138094Y20517098D02*
X2442856Y20517098D01*
M02*
