%TF.GenerationSoftware,KiCad,Pcbnew,7.0.11-7.0.11~ubuntu22.04.1*%
%TF.CreationDate,2024-06-09T19:30:32+02:00*%
%TF.ProjectId,E73-2G4M08S1C-52840,4537332d-3247-4344-9d30-385331432d35,rev?*%
%TF.SameCoordinates,Original*%
%TF.FileFunction,Legend,Bot*%
%TF.FilePolarity,Positive*%
%FSLAX46Y46*%
G04 Gerber Fmt 4.6, Leading zero omitted, Abs format (unit mm)*
G04 Created by KiCad (PCBNEW 7.0.11-7.0.11~ubuntu22.04.1) date 2024-06-09 19:30:32*
%MOMM*%
%LPD*%
G01*
G04 APERTURE LIST*
%ADD10C,0.150000*%
%ADD11C,2.200000*%
G04 APERTURE END LIST*
D10*
X7998683Y-24878152D02*
X7760588Y-25544819D01*
X7760588Y-25544819D02*
X7522493Y-24878152D01*
X6617731Y-25544819D02*
X7189159Y-25544819D01*
X6903445Y-25544819D02*
X6903445Y-24544819D01*
X6903445Y-24544819D02*
X6998683Y-24687676D01*
X6998683Y-24687676D02*
X7093921Y-24782914D01*
X7093921Y-24782914D02*
X7189159Y-24830533D01*
X6189159Y-25449580D02*
X6141540Y-25497200D01*
X6141540Y-25497200D02*
X6189159Y-25544819D01*
X6189159Y-25544819D02*
X6236778Y-25497200D01*
X6236778Y-25497200D02*
X6189159Y-25449580D01*
X6189159Y-25449580D02*
X6189159Y-25544819D01*
X5189160Y-25544819D02*
X5760588Y-25544819D01*
X5474874Y-25544819D02*
X5474874Y-24544819D01*
X5474874Y-24544819D02*
X5570112Y-24687676D01*
X5570112Y-24687676D02*
X5665350Y-24782914D01*
X5665350Y-24782914D02*
X5760588Y-24830533D01*
X11332017Y-26154819D02*
X11236779Y-26154819D01*
X11236779Y-26154819D02*
X11141541Y-26202438D01*
X11141541Y-26202438D02*
X11093922Y-26250057D01*
X11093922Y-26250057D02*
X11046303Y-26345295D01*
X11046303Y-26345295D02*
X10998684Y-26535771D01*
X10998684Y-26535771D02*
X10998684Y-26773866D01*
X10998684Y-26773866D02*
X11046303Y-26964342D01*
X11046303Y-26964342D02*
X11093922Y-27059580D01*
X11093922Y-27059580D02*
X11141541Y-27107200D01*
X11141541Y-27107200D02*
X11236779Y-27154819D01*
X11236779Y-27154819D02*
X11332017Y-27154819D01*
X11332017Y-27154819D02*
X11427255Y-27107200D01*
X11427255Y-27107200D02*
X11474874Y-27059580D01*
X11474874Y-27059580D02*
X11522493Y-26964342D01*
X11522493Y-26964342D02*
X11570112Y-26773866D01*
X11570112Y-26773866D02*
X11570112Y-26535771D01*
X11570112Y-26535771D02*
X11522493Y-26345295D01*
X11522493Y-26345295D02*
X11474874Y-26250057D01*
X11474874Y-26250057D02*
X11427255Y-26202438D01*
X11427255Y-26202438D02*
X11332017Y-26154819D01*
X10141541Y-26154819D02*
X10332017Y-26154819D01*
X10332017Y-26154819D02*
X10427255Y-26202438D01*
X10427255Y-26202438D02*
X10474874Y-26250057D01*
X10474874Y-26250057D02*
X10570112Y-26392914D01*
X10570112Y-26392914D02*
X10617731Y-26583390D01*
X10617731Y-26583390D02*
X10617731Y-26964342D01*
X10617731Y-26964342D02*
X10570112Y-27059580D01*
X10570112Y-27059580D02*
X10522493Y-27107200D01*
X10522493Y-27107200D02*
X10427255Y-27154819D01*
X10427255Y-27154819D02*
X10236779Y-27154819D01*
X10236779Y-27154819D02*
X10141541Y-27107200D01*
X10141541Y-27107200D02*
X10093922Y-27059580D01*
X10093922Y-27059580D02*
X10046303Y-26964342D01*
X10046303Y-26964342D02*
X10046303Y-26726247D01*
X10046303Y-26726247D02*
X10093922Y-26631009D01*
X10093922Y-26631009D02*
X10141541Y-26583390D01*
X10141541Y-26583390D02*
X10236779Y-26535771D01*
X10236779Y-26535771D02*
X10427255Y-26535771D01*
X10427255Y-26535771D02*
X10522493Y-26583390D01*
X10522493Y-26583390D02*
X10570112Y-26631009D01*
X10570112Y-26631009D02*
X10617731Y-26726247D01*
X8903446Y-26107200D02*
X9760588Y-27392914D01*
X8617731Y-26250057D02*
X8570112Y-26202438D01*
X8570112Y-26202438D02*
X8474874Y-26154819D01*
X8474874Y-26154819D02*
X8236779Y-26154819D01*
X8236779Y-26154819D02*
X8141541Y-26202438D01*
X8141541Y-26202438D02*
X8093922Y-26250057D01*
X8093922Y-26250057D02*
X8046303Y-26345295D01*
X8046303Y-26345295D02*
X8046303Y-26440533D01*
X8046303Y-26440533D02*
X8093922Y-26583390D01*
X8093922Y-26583390D02*
X8665350Y-27154819D01*
X8665350Y-27154819D02*
X8046303Y-27154819D01*
X7427255Y-26154819D02*
X7332017Y-26154819D01*
X7332017Y-26154819D02*
X7236779Y-26202438D01*
X7236779Y-26202438D02*
X7189160Y-26250057D01*
X7189160Y-26250057D02*
X7141541Y-26345295D01*
X7141541Y-26345295D02*
X7093922Y-26535771D01*
X7093922Y-26535771D02*
X7093922Y-26773866D01*
X7093922Y-26773866D02*
X7141541Y-26964342D01*
X7141541Y-26964342D02*
X7189160Y-27059580D01*
X7189160Y-27059580D02*
X7236779Y-27107200D01*
X7236779Y-27107200D02*
X7332017Y-27154819D01*
X7332017Y-27154819D02*
X7427255Y-27154819D01*
X7427255Y-27154819D02*
X7522493Y-27107200D01*
X7522493Y-27107200D02*
X7570112Y-27059580D01*
X7570112Y-27059580D02*
X7617731Y-26964342D01*
X7617731Y-26964342D02*
X7665350Y-26773866D01*
X7665350Y-26773866D02*
X7665350Y-26535771D01*
X7665350Y-26535771D02*
X7617731Y-26345295D01*
X7617731Y-26345295D02*
X7570112Y-26250057D01*
X7570112Y-26250057D02*
X7522493Y-26202438D01*
X7522493Y-26202438D02*
X7427255Y-26154819D01*
X6712969Y-26250057D02*
X6665350Y-26202438D01*
X6665350Y-26202438D02*
X6570112Y-26154819D01*
X6570112Y-26154819D02*
X6332017Y-26154819D01*
X6332017Y-26154819D02*
X6236779Y-26202438D01*
X6236779Y-26202438D02*
X6189160Y-26250057D01*
X6189160Y-26250057D02*
X6141541Y-26345295D01*
X6141541Y-26345295D02*
X6141541Y-26440533D01*
X6141541Y-26440533D02*
X6189160Y-26583390D01*
X6189160Y-26583390D02*
X6760588Y-27154819D01*
X6760588Y-27154819D02*
X6141541Y-27154819D01*
X5284398Y-26488152D02*
X5284398Y-27154819D01*
X5522493Y-26107200D02*
X5760588Y-26821485D01*
X5760588Y-26821485D02*
X5141541Y-26821485D01*
X16379637Y-28764819D02*
X16379637Y-27764819D01*
X16379637Y-27764819D02*
X16046304Y-28479104D01*
X16046304Y-28479104D02*
X15712971Y-27764819D01*
X15712971Y-27764819D02*
X15712971Y-28764819D01*
X15236780Y-28764819D02*
X15236780Y-28098152D01*
X15236780Y-27764819D02*
X15284399Y-27812438D01*
X15284399Y-27812438D02*
X15236780Y-27860057D01*
X15236780Y-27860057D02*
X15189161Y-27812438D01*
X15189161Y-27812438D02*
X15236780Y-27764819D01*
X15236780Y-27764819D02*
X15236780Y-27860057D01*
X14332019Y-28717200D02*
X14427257Y-28764819D01*
X14427257Y-28764819D02*
X14617733Y-28764819D01*
X14617733Y-28764819D02*
X14712971Y-28717200D01*
X14712971Y-28717200D02*
X14760590Y-28669580D01*
X14760590Y-28669580D02*
X14808209Y-28574342D01*
X14808209Y-28574342D02*
X14808209Y-28288628D01*
X14808209Y-28288628D02*
X14760590Y-28193390D01*
X14760590Y-28193390D02*
X14712971Y-28145771D01*
X14712971Y-28145771D02*
X14617733Y-28098152D01*
X14617733Y-28098152D02*
X14427257Y-28098152D01*
X14427257Y-28098152D02*
X14332019Y-28145771D01*
X13903447Y-28764819D02*
X13903447Y-27764819D01*
X13474876Y-28764819D02*
X13474876Y-28241009D01*
X13474876Y-28241009D02*
X13522495Y-28145771D01*
X13522495Y-28145771D02*
X13617733Y-28098152D01*
X13617733Y-28098152D02*
X13760590Y-28098152D01*
X13760590Y-28098152D02*
X13855828Y-28145771D01*
X13855828Y-28145771D02*
X13903447Y-28193390D01*
X12570114Y-28764819D02*
X12570114Y-28241009D01*
X12570114Y-28241009D02*
X12617733Y-28145771D01*
X12617733Y-28145771D02*
X12712971Y-28098152D01*
X12712971Y-28098152D02*
X12903447Y-28098152D01*
X12903447Y-28098152D02*
X12998685Y-28145771D01*
X12570114Y-28717200D02*
X12665352Y-28764819D01*
X12665352Y-28764819D02*
X12903447Y-28764819D01*
X12903447Y-28764819D02*
X12998685Y-28717200D01*
X12998685Y-28717200D02*
X13046304Y-28621961D01*
X13046304Y-28621961D02*
X13046304Y-28526723D01*
X13046304Y-28526723D02*
X12998685Y-28431485D01*
X12998685Y-28431485D02*
X12903447Y-28383866D01*
X12903447Y-28383866D02*
X12665352Y-28383866D01*
X12665352Y-28383866D02*
X12570114Y-28336247D01*
X11712971Y-28717200D02*
X11808209Y-28764819D01*
X11808209Y-28764819D02*
X11998685Y-28764819D01*
X11998685Y-28764819D02*
X12093923Y-28717200D01*
X12093923Y-28717200D02*
X12141542Y-28621961D01*
X12141542Y-28621961D02*
X12141542Y-28241009D01*
X12141542Y-28241009D02*
X12093923Y-28145771D01*
X12093923Y-28145771D02*
X11998685Y-28098152D01*
X11998685Y-28098152D02*
X11808209Y-28098152D01*
X11808209Y-28098152D02*
X11712971Y-28145771D01*
X11712971Y-28145771D02*
X11665352Y-28241009D01*
X11665352Y-28241009D02*
X11665352Y-28336247D01*
X11665352Y-28336247D02*
X12141542Y-28431485D01*
X11093923Y-28764819D02*
X11189161Y-28717200D01*
X11189161Y-28717200D02*
X11236780Y-28621961D01*
X11236780Y-28621961D02*
X11236780Y-27764819D01*
X9379637Y-28764819D02*
X9712970Y-28288628D01*
X9951065Y-28764819D02*
X9951065Y-27764819D01*
X9951065Y-27764819D02*
X9570113Y-27764819D01*
X9570113Y-27764819D02*
X9474875Y-27812438D01*
X9474875Y-27812438D02*
X9427256Y-27860057D01*
X9427256Y-27860057D02*
X9379637Y-27955295D01*
X9379637Y-27955295D02*
X9379637Y-28098152D01*
X9379637Y-28098152D02*
X9427256Y-28193390D01*
X9427256Y-28193390D02*
X9474875Y-28241009D01*
X9474875Y-28241009D02*
X9570113Y-28288628D01*
X9570113Y-28288628D02*
X9951065Y-28288628D01*
X8808208Y-28764819D02*
X8903446Y-28717200D01*
X8903446Y-28717200D02*
X8951065Y-28669580D01*
X8951065Y-28669580D02*
X8998684Y-28574342D01*
X8998684Y-28574342D02*
X8998684Y-28288628D01*
X8998684Y-28288628D02*
X8951065Y-28193390D01*
X8951065Y-28193390D02*
X8903446Y-28145771D01*
X8903446Y-28145771D02*
X8808208Y-28098152D01*
X8808208Y-28098152D02*
X8665351Y-28098152D01*
X8665351Y-28098152D02*
X8570113Y-28145771D01*
X8570113Y-28145771D02*
X8522494Y-28193390D01*
X8522494Y-28193390D02*
X8474875Y-28288628D01*
X8474875Y-28288628D02*
X8474875Y-28574342D01*
X8474875Y-28574342D02*
X8522494Y-28669580D01*
X8522494Y-28669580D02*
X8570113Y-28717200D01*
X8570113Y-28717200D02*
X8665351Y-28764819D01*
X8665351Y-28764819D02*
X8808208Y-28764819D01*
X7617732Y-28098152D02*
X7617732Y-28907676D01*
X7617732Y-28907676D02*
X7665351Y-29002914D01*
X7665351Y-29002914D02*
X7712970Y-29050533D01*
X7712970Y-29050533D02*
X7808208Y-29098152D01*
X7808208Y-29098152D02*
X7951065Y-29098152D01*
X7951065Y-29098152D02*
X8046303Y-29050533D01*
X7617732Y-28717200D02*
X7712970Y-28764819D01*
X7712970Y-28764819D02*
X7903446Y-28764819D01*
X7903446Y-28764819D02*
X7998684Y-28717200D01*
X7998684Y-28717200D02*
X8046303Y-28669580D01*
X8046303Y-28669580D02*
X8093922Y-28574342D01*
X8093922Y-28574342D02*
X8093922Y-28288628D01*
X8093922Y-28288628D02*
X8046303Y-28193390D01*
X8046303Y-28193390D02*
X7998684Y-28145771D01*
X7998684Y-28145771D02*
X7903446Y-28098152D01*
X7903446Y-28098152D02*
X7712970Y-28098152D01*
X7712970Y-28098152D02*
X7617732Y-28145771D01*
X6712970Y-28098152D02*
X6712970Y-28907676D01*
X6712970Y-28907676D02*
X6760589Y-29002914D01*
X6760589Y-29002914D02*
X6808208Y-29050533D01*
X6808208Y-29050533D02*
X6903446Y-29098152D01*
X6903446Y-29098152D02*
X7046303Y-29098152D01*
X7046303Y-29098152D02*
X7141541Y-29050533D01*
X6712970Y-28717200D02*
X6808208Y-28764819D01*
X6808208Y-28764819D02*
X6998684Y-28764819D01*
X6998684Y-28764819D02*
X7093922Y-28717200D01*
X7093922Y-28717200D02*
X7141541Y-28669580D01*
X7141541Y-28669580D02*
X7189160Y-28574342D01*
X7189160Y-28574342D02*
X7189160Y-28288628D01*
X7189160Y-28288628D02*
X7141541Y-28193390D01*
X7141541Y-28193390D02*
X7093922Y-28145771D01*
X7093922Y-28145771D02*
X6998684Y-28098152D01*
X6998684Y-28098152D02*
X6808208Y-28098152D01*
X6808208Y-28098152D02*
X6712970Y-28145771D01*
X5855827Y-28717200D02*
X5951065Y-28764819D01*
X5951065Y-28764819D02*
X6141541Y-28764819D01*
X6141541Y-28764819D02*
X6236779Y-28717200D01*
X6236779Y-28717200D02*
X6284398Y-28621961D01*
X6284398Y-28621961D02*
X6284398Y-28241009D01*
X6284398Y-28241009D02*
X6236779Y-28145771D01*
X6236779Y-28145771D02*
X6141541Y-28098152D01*
X6141541Y-28098152D02*
X5951065Y-28098152D01*
X5951065Y-28098152D02*
X5855827Y-28145771D01*
X5855827Y-28145771D02*
X5808208Y-28241009D01*
X5808208Y-28241009D02*
X5808208Y-28336247D01*
X5808208Y-28336247D02*
X6284398Y-28431485D01*
X5379636Y-28764819D02*
X5379636Y-28098152D01*
X5379636Y-28288628D02*
X5332017Y-28193390D01*
X5332017Y-28193390D02*
X5284398Y-28145771D01*
X5284398Y-28145771D02*
X5189160Y-28098152D01*
X5189160Y-28098152D02*
X5093922Y-28098152D01*
%TO.C,G\u002A\u002A\u002A*%
G36*
X23853055Y-24456374D02*
G01*
X23861777Y-24581038D01*
X23862405Y-24733384D01*
X23862103Y-24752497D01*
X23861095Y-24855362D01*
X23862853Y-24932274D01*
X23868989Y-24994578D01*
X23881118Y-25053618D01*
X23900854Y-25120739D01*
X23929809Y-25207286D01*
X23990518Y-25372948D01*
X24109268Y-25637367D01*
X24249391Y-25879159D01*
X24416454Y-26107447D01*
X24616028Y-26331350D01*
X24769554Y-26481201D01*
X25039872Y-26708439D01*
X25335617Y-26914368D01*
X25658474Y-27099833D01*
X26010131Y-27265680D01*
X26392273Y-27412753D01*
X26806585Y-27541897D01*
X27254755Y-27653958D01*
X27271662Y-27657735D01*
X27400447Y-27687033D01*
X27523540Y-27715883D01*
X27632818Y-27742325D01*
X27720157Y-27764397D01*
X27777432Y-27780138D01*
X27778100Y-27780339D01*
X27825711Y-27794449D01*
X27905684Y-27817883D01*
X28012949Y-27849164D01*
X28142437Y-27886820D01*
X28289077Y-27929376D01*
X28447801Y-27975358D01*
X28613539Y-28023291D01*
X28669693Y-28039530D01*
X28882404Y-28101343D01*
X29063076Y-28154476D01*
X29216237Y-28200369D01*
X29346415Y-28240463D01*
X29458136Y-28276199D01*
X29555928Y-28309018D01*
X29644319Y-28340361D01*
X29727836Y-28371668D01*
X29811006Y-28404380D01*
X29843868Y-28417738D01*
X29973536Y-28474005D01*
X30090265Y-28530177D01*
X30189313Y-28583564D01*
X30265934Y-28631479D01*
X30315385Y-28671234D01*
X30332923Y-28700140D01*
X30332277Y-28703799D01*
X30306299Y-28724089D01*
X30244174Y-28744555D01*
X30148378Y-28764940D01*
X30021388Y-28784987D01*
X29865679Y-28804438D01*
X29683728Y-28823035D01*
X29478011Y-28840521D01*
X29251003Y-28856638D01*
X29005182Y-28871130D01*
X28743022Y-28883738D01*
X28467000Y-28894205D01*
X28400193Y-28896138D01*
X28256157Y-28899177D01*
X28083887Y-28901720D01*
X27890288Y-28903714D01*
X27682263Y-28905105D01*
X27466719Y-28905841D01*
X27250561Y-28905870D01*
X27040693Y-28905138D01*
X26813844Y-28903676D01*
X26604234Y-28901611D01*
X26424880Y-28898655D01*
X26271219Y-28894424D01*
X26138688Y-28888531D01*
X26022723Y-28880594D01*
X25918760Y-28870226D01*
X25822237Y-28857045D01*
X25728589Y-28840664D01*
X25633255Y-28820700D01*
X25531670Y-28796768D01*
X25419271Y-28768483D01*
X25133453Y-28683575D01*
X24787406Y-28547278D01*
X24461186Y-28380323D01*
X24156977Y-28184315D01*
X23876964Y-27960858D01*
X23623331Y-27711556D01*
X23398262Y-27438012D01*
X23203942Y-27141830D01*
X23191417Y-27120100D01*
X23113237Y-26975153D01*
X23047358Y-26832923D01*
X22990865Y-26685062D01*
X22940844Y-26523227D01*
X22894380Y-26339072D01*
X22848559Y-26124251D01*
X22830273Y-26035080D01*
X22803257Y-25917154D01*
X22778157Y-25830728D01*
X22752874Y-25771316D01*
X22725310Y-25734432D01*
X22693368Y-25715591D01*
X22654948Y-25710307D01*
X22597721Y-25704091D01*
X22505728Y-25681355D01*
X22401224Y-25645764D01*
X22295809Y-25601357D01*
X22201081Y-25552177D01*
X22123232Y-25502349D01*
X21968468Y-25374148D01*
X21840185Y-25225394D01*
X21740383Y-25060645D01*
X21671062Y-24884457D01*
X21634223Y-24701390D01*
X21631865Y-24516000D01*
X21644508Y-24448143D01*
X22346448Y-24448143D01*
X22376242Y-24561623D01*
X22390282Y-24589256D01*
X22445848Y-24663858D01*
X22515183Y-24724181D01*
X22585923Y-24758608D01*
X22598374Y-24761733D01*
X22728215Y-24776833D01*
X22842829Y-24756620D01*
X22940806Y-24701568D01*
X23020738Y-24612151D01*
X23059123Y-24532151D01*
X23078017Y-24421847D01*
X23065186Y-24310369D01*
X23020632Y-24209690D01*
X22975021Y-24154064D01*
X22887047Y-24090387D01*
X22785961Y-24055640D01*
X22679598Y-24049861D01*
X22575792Y-24073088D01*
X22482376Y-24125359D01*
X22407185Y-24206712D01*
X22396893Y-24223156D01*
X22353574Y-24332538D01*
X22346448Y-24448143D01*
X21644508Y-24448143D01*
X21665989Y-24332846D01*
X21718349Y-24192290D01*
X21811996Y-24021959D01*
X21930640Y-23866975D01*
X22068179Y-23735056D01*
X22218512Y-23633919D01*
X22231579Y-23627174D01*
X22313544Y-23592262D01*
X22412683Y-23558590D01*
X22515812Y-23529903D01*
X22609752Y-23509946D01*
X22681319Y-23502461D01*
X22682938Y-23502461D01*
X22722143Y-23501259D01*
X22725898Y-23493301D01*
X22697732Y-23472046D01*
X22695859Y-23470714D01*
X22670338Y-23445212D01*
X22658087Y-23410461D01*
X22659207Y-23359623D01*
X22673797Y-23285856D01*
X22701956Y-23182322D01*
X22729078Y-23079735D01*
X22766158Y-22888671D01*
X22784043Y-22708630D01*
X22781391Y-22550290D01*
X22768266Y-22408965D01*
X22670748Y-22355889D01*
X22629346Y-22330600D01*
X22545273Y-22251721D01*
X22495118Y-22153499D01*
X22478535Y-22035360D01*
X22483133Y-21977005D01*
X22516272Y-21875109D01*
X22576108Y-21792382D01*
X22656366Y-21731732D01*
X22750768Y-21696063D01*
X22853039Y-21688281D01*
X22956902Y-21711291D01*
X23056080Y-21767999D01*
X23079852Y-21790215D01*
X23130764Y-21863438D01*
X23167114Y-21951406D01*
X23180988Y-22037077D01*
X23177948Y-22074606D01*
X23153458Y-22162037D01*
X23110864Y-22244377D01*
X23057961Y-22304675D01*
X23048192Y-22312462D01*
X23028668Y-22331472D01*
X23017436Y-22354828D01*
X23013047Y-22391193D01*
X23014051Y-22449229D01*
X23018999Y-22537601D01*
X23021614Y-22648592D01*
X23015388Y-22790890D01*
X23000205Y-22935940D01*
X22977436Y-23076770D01*
X22948452Y-23206412D01*
X22914622Y-23317894D01*
X22877319Y-23404247D01*
X22837911Y-23458500D01*
X22788898Y-23502461D01*
X22832701Y-23502461D01*
X22877170Y-23506116D01*
X22966383Y-23524339D01*
X23069800Y-23554507D01*
X23175051Y-23592852D01*
X23269770Y-23635605D01*
X23322126Y-23665128D01*
X23447425Y-23755606D01*
X23566215Y-23866631D01*
X23668124Y-23987830D01*
X23742784Y-24108828D01*
X23757381Y-24139163D01*
X23802950Y-24246368D01*
X23834144Y-24348461D01*
X23847004Y-24421847D01*
X23853055Y-24456374D01*
G37*
G36*
X27314169Y-22967994D02*
G01*
X27437392Y-22972217D01*
X27540881Y-22980303D01*
X27635837Y-22993210D01*
X27733461Y-23011897D01*
X27980135Y-23075876D01*
X28283913Y-23189020D01*
X28568372Y-23335567D01*
X28832053Y-23514741D01*
X29073495Y-23725763D01*
X29174612Y-23830063D01*
X29368300Y-24063465D01*
X29527574Y-24309010D01*
X29655418Y-24571650D01*
X29754818Y-24856337D01*
X29805051Y-25072234D01*
X29834729Y-25344905D01*
X29828382Y-25615177D01*
X29787638Y-25879923D01*
X29714127Y-26136012D01*
X29609476Y-26380317D01*
X29475314Y-26609707D01*
X29313269Y-26821055D01*
X29124970Y-27011231D01*
X28912045Y-27177106D01*
X28676122Y-27315551D01*
X28418831Y-27423438D01*
X28377104Y-27437062D01*
X28271821Y-27467081D01*
X28168183Y-27491603D01*
X28083590Y-27506326D01*
X27963712Y-27515624D01*
X27732194Y-27507593D01*
X27495273Y-27467963D01*
X27262455Y-27397988D01*
X27050606Y-27298797D01*
X26853693Y-27166195D01*
X26675841Y-27004357D01*
X26520955Y-26817379D01*
X26392941Y-26609356D01*
X26295705Y-26384384D01*
X26288785Y-26364214D01*
X26267751Y-26296697D01*
X26253929Y-26235192D01*
X26245807Y-26168433D01*
X26241872Y-26085151D01*
X26240609Y-25974077D01*
X26240592Y-25904629D01*
X26242282Y-25814440D01*
X26247486Y-25745288D01*
X26257782Y-25685938D01*
X26274751Y-25625153D01*
X26299970Y-25551699D01*
X26332041Y-25470123D01*
X26431852Y-25279759D01*
X26556552Y-25111115D01*
X26702349Y-24966667D01*
X26865448Y-24848889D01*
X27042057Y-24760254D01*
X27228380Y-24703237D01*
X27420626Y-24680314D01*
X27615000Y-24693957D01*
X27740070Y-24724257D01*
X27905734Y-24793905D01*
X28057238Y-24891239D01*
X28190428Y-25011635D01*
X28301151Y-25150469D01*
X28385256Y-25303120D01*
X28438590Y-25464962D01*
X28456999Y-25631374D01*
X28454142Y-25691881D01*
X28421328Y-25851616D01*
X28355160Y-26003382D01*
X28259791Y-26140707D01*
X28139378Y-26257119D01*
X27998077Y-26346145D01*
X27943480Y-26370964D01*
X27881172Y-26391238D01*
X27813839Y-26400826D01*
X27724539Y-26403268D01*
X27636265Y-26399531D01*
X27515716Y-26375829D01*
X27409564Y-26326255D01*
X27305437Y-26246172D01*
X27262335Y-26203137D01*
X27183044Y-26091703D01*
X27134706Y-25970584D01*
X27117712Y-25845930D01*
X27132453Y-25723892D01*
X27179323Y-25610622D01*
X27258711Y-25512269D01*
X27268590Y-25503327D01*
X27372991Y-25432252D01*
X27482346Y-25395236D01*
X27590907Y-25391670D01*
X27692928Y-25420942D01*
X27782661Y-25482441D01*
X27854359Y-25575558D01*
X27881640Y-25620627D01*
X27924443Y-25670203D01*
X27968110Y-25688662D01*
X28019331Y-25680249D01*
X28051990Y-25664445D01*
X28084851Y-25623981D01*
X28086712Y-25564651D01*
X28058216Y-25483198D01*
X28046633Y-25460400D01*
X27979389Y-25365480D01*
X27889463Y-25277334D01*
X27789206Y-25208567D01*
X27758754Y-25195617D01*
X27673924Y-25177261D01*
X27571023Y-25170444D01*
X27463007Y-25174949D01*
X27362830Y-25190558D01*
X27283447Y-25217054D01*
X27273419Y-25222090D01*
X27137905Y-25311835D01*
X27030090Y-25425401D01*
X26951672Y-25557678D01*
X26904352Y-25703555D01*
X26889829Y-25857921D01*
X26909802Y-26015666D01*
X26965972Y-26171678D01*
X26988620Y-26214588D01*
X27087860Y-26352138D01*
X27212966Y-26466419D01*
X27357904Y-26554318D01*
X27516640Y-26612720D01*
X27683138Y-26638511D01*
X27851365Y-26628577D01*
X27894399Y-26620047D01*
X28070075Y-26561664D01*
X28232400Y-26470456D01*
X28376674Y-26350885D01*
X28498195Y-26207413D01*
X28592261Y-26044503D01*
X28654172Y-25866615D01*
X28663440Y-25823947D01*
X28681467Y-25633669D01*
X28663727Y-25444678D01*
X28612787Y-25260906D01*
X28531217Y-25086288D01*
X28421587Y-24924757D01*
X28286466Y-24780246D01*
X28128422Y-24656690D01*
X27950026Y-24558022D01*
X27753846Y-24488176D01*
X27680411Y-24472849D01*
X27550938Y-24458357D01*
X27411874Y-24454212D01*
X27278899Y-24460685D01*
X27167693Y-24478047D01*
X27065812Y-24506909D01*
X26859033Y-24591815D01*
X26663842Y-24706476D01*
X26488554Y-24845601D01*
X26341480Y-25003899D01*
X26303512Y-25054193D01*
X26173367Y-25264440D01*
X26079737Y-25484820D01*
X26022499Y-25712630D01*
X26001530Y-25945171D01*
X26016707Y-26179740D01*
X26067907Y-26413637D01*
X26155005Y-26644159D01*
X26277880Y-26868606D01*
X26436407Y-27084276D01*
X26561196Y-27233177D01*
X26419944Y-27182288D01*
X26382112Y-27168496D01*
X25999201Y-27009789D01*
X25639610Y-26825151D01*
X25306708Y-26616479D01*
X25003861Y-26385667D01*
X24938319Y-26329661D01*
X24872508Y-26267862D01*
X24826079Y-26211565D01*
X24794648Y-26151868D01*
X24773827Y-26079875D01*
X24759233Y-25986685D01*
X24746480Y-25863400D01*
X24741142Y-25793503D01*
X24741939Y-25518329D01*
X24775100Y-25230572D01*
X24839489Y-24935783D01*
X24933966Y-24639514D01*
X25057391Y-24347319D01*
X25169939Y-24131833D01*
X25336816Y-23871918D01*
X25522243Y-23643466D01*
X25725044Y-23447578D01*
X25944043Y-23285354D01*
X26178064Y-23157894D01*
X26425931Y-23066299D01*
X26478627Y-23051442D01*
X26619461Y-23016122D01*
X26750555Y-22991545D01*
X26884045Y-22976164D01*
X27032071Y-22968433D01*
X27206770Y-22966806D01*
X27314169Y-22967994D01*
G37*
G36*
X21674351Y-21947596D02*
G01*
X21770598Y-21982120D01*
X21855848Y-22045650D01*
X21923360Y-22138683D01*
X21942891Y-22200895D01*
X21949846Y-22288147D01*
X21941805Y-22378385D01*
X21919007Y-22454373D01*
X21908953Y-22475975D01*
X21897815Y-22512455D01*
X21906170Y-22543407D01*
X21936391Y-22586921D01*
X22013382Y-22703828D01*
X22101112Y-22895284D01*
X22155066Y-23103892D01*
X22174269Y-23326615D01*
X22174394Y-23364718D01*
X22172378Y-23472256D01*
X22165554Y-23548798D01*
X22152575Y-23600508D01*
X22132096Y-23633548D01*
X22102771Y-23654080D01*
X22072355Y-23664389D01*
X22007538Y-23660399D01*
X21954011Y-23622604D01*
X21942161Y-23599196D01*
X21934935Y-23545094D01*
X21938095Y-23459993D01*
X21939572Y-23302584D01*
X21910025Y-23101598D01*
X21846780Y-22910776D01*
X21751784Y-22737674D01*
X21721379Y-22694884D01*
X21689033Y-22660558D01*
X21655608Y-22645747D01*
X21609000Y-22642378D01*
X21585917Y-22641490D01*
X21479257Y-22616881D01*
X21387515Y-22563315D01*
X21315502Y-22487173D01*
X21268026Y-22394838D01*
X21249896Y-22292691D01*
X21265923Y-22187114D01*
X21314230Y-22089637D01*
X21387048Y-22013100D01*
X21475835Y-21963583D01*
X21573850Y-21941583D01*
X21674351Y-21947596D01*
G37*
G36*
X22713824Y-24264475D02*
G01*
X22752660Y-24276708D01*
X22798212Y-24304956D01*
X22827401Y-24335543D01*
X22850896Y-24397491D01*
X22841166Y-24461815D01*
X22798212Y-24517043D01*
X22796855Y-24518101D01*
X22751187Y-24545990D01*
X22712923Y-24557538D01*
X22688255Y-24554128D01*
X22633616Y-24523761D01*
X22592430Y-24471959D01*
X22576154Y-24411000D01*
X22579337Y-24384570D01*
X22607680Y-24326028D01*
X22656028Y-24281899D01*
X22712923Y-24264461D01*
X22713824Y-24264475D01*
G37*
%TD*%
%LPC*%
D11*
%TO.C,H1*%
X2200000Y-2200000D03*
%TD*%
%TO.C,H4*%
X2200000Y-27800000D03*
%TD*%
%TO.C,H2*%
X32800000Y-2200000D03*
%TD*%
%TO.C,H3*%
X32800000Y-27800000D03*
%TD*%
%LPD*%
M02*
