%TF.GenerationSoftware,KiCad,Pcbnew,7.0.11-7.0.11~ubuntu22.04.1*%
%TF.CreationDate,2024-06-09T19:30:32+02:00*%
%TF.ProjectId,E73-2G4M08S1C-52840,4537332d-3247-4344-9d30-385331432d35,rev?*%
%TF.SameCoordinates,Original*%
%TF.FileFunction,Copper,L2,Bot*%
%TF.FilePolarity,Positive*%
%FSLAX46Y46*%
G04 Gerber Fmt 4.6, Leading zero omitted, Abs format (unit mm)*
G04 Created by KiCad (PCBNEW 7.0.11-7.0.11~ubuntu22.04.1) date 2024-06-09 19:30:32*
%MOMM*%
%LPD*%
G01*
G04 APERTURE LIST*
%TA.AperFunction,ViaPad*%
%ADD10C,0.800000*%
%TD*%
%TA.AperFunction,Conductor*%
%ADD11C,0.250000*%
%TD*%
G04 APERTURE END LIST*
D10*
%TO.N,GND*%
X15750000Y-19000000D03*
X29250000Y-9250000D03*
X12200000Y-5400000D03*
X21600000Y-28000000D03*
X13750000Y-25500000D03*
X14000000Y-6750000D03*
X23311904Y-17534989D03*
X10467751Y-7225104D03*
X11400000Y-1400000D03*
X13000000Y-13750000D03*
X8300000Y-1500000D03*
X7200000Y-7200000D03*
X16833979Y-6436860D03*
X8000000Y-12900000D03*
X9750000Y-11250000D03*
X29000000Y-2500000D03*
X18724500Y-16487701D03*
X15750000Y-17000000D03*
X21600000Y-25200000D03*
X17000000Y-21250000D03*
%TO.N,nRF_VDD*%
X18750000Y-6750000D03*
X18660545Y-10476267D03*
X18750000Y-21000000D03*
X21500000Y-23224500D03*
X18750000Y-14750000D03*
X14750000Y-5750000D03*
%TD*%
D11*
%TO.N,nRF_VDD*%
X18750000Y-10386812D02*
X18660545Y-10476267D01*
X18750000Y-6750000D02*
X18338140Y-7161860D01*
X18750000Y-10565722D02*
X18750000Y-14750000D01*
X18338140Y-7161860D02*
X16161860Y-7161860D01*
X18750000Y-6750000D02*
X18750000Y-10386812D01*
X18750000Y-21000000D02*
X20974500Y-23224500D01*
X18660545Y-10476267D02*
X18750000Y-10565722D01*
X16161860Y-7161860D02*
X14750000Y-5750000D01*
X20974500Y-23224500D02*
X21500000Y-23224500D01*
%TD*%
%TA.AperFunction,Conductor*%
%TO.N,GND*%
G36*
X34005474Y-979D02*
G01*
X34013300Y-1663D01*
X34044887Y-4427D01*
X34046124Y-4542D01*
X34171603Y-16901D01*
X34191847Y-20584D01*
X34256419Y-37886D01*
X34260252Y-38981D01*
X34351432Y-66640D01*
X34368092Y-73014D01*
X34404035Y-89775D01*
X34433794Y-103652D01*
X34439939Y-106724D01*
X34518940Y-148951D01*
X34531815Y-156860D01*
X34592829Y-199583D01*
X34600491Y-205396D01*
X34668383Y-261113D01*
X34677545Y-269418D01*
X34730580Y-322453D01*
X34738885Y-331615D01*
X34794602Y-399507D01*
X34800415Y-407169D01*
X34843138Y-468183D01*
X34851047Y-481058D01*
X34893274Y-560059D01*
X34896346Y-566204D01*
X34926982Y-631902D01*
X34933362Y-648577D01*
X34960996Y-739674D01*
X34962129Y-743640D01*
X34979412Y-808144D01*
X34983098Y-828404D01*
X34995456Y-953874D01*
X34995583Y-955239D01*
X34999020Y-994513D01*
X34999500Y-1005498D01*
X34999500Y-28994499D01*
X34999020Y-29005484D01*
X34995582Y-29044767D01*
X34995455Y-29046132D01*
X34983098Y-29171594D01*
X34979412Y-29191854D01*
X34962129Y-29256358D01*
X34960996Y-29260324D01*
X34933362Y-29351421D01*
X34926982Y-29368096D01*
X34896346Y-29433794D01*
X34893274Y-29439939D01*
X34851047Y-29518940D01*
X34843138Y-29531815D01*
X34800415Y-29592829D01*
X34794602Y-29600491D01*
X34738885Y-29668383D01*
X34730580Y-29677545D01*
X34677545Y-29730580D01*
X34668383Y-29738885D01*
X34600491Y-29794602D01*
X34592829Y-29800415D01*
X34531815Y-29843138D01*
X34518940Y-29851047D01*
X34439939Y-29893274D01*
X34433794Y-29896346D01*
X34368096Y-29926982D01*
X34351421Y-29933362D01*
X34260324Y-29960996D01*
X34256358Y-29962129D01*
X34191854Y-29979412D01*
X34171594Y-29983098D01*
X34046132Y-29995455D01*
X34044768Y-29995582D01*
X34005486Y-29999020D01*
X33994500Y-29999500D01*
X1005499Y-29999500D01*
X994515Y-29999020D01*
X955240Y-29995583D01*
X953874Y-29995456D01*
X828404Y-29983098D01*
X808144Y-29979412D01*
X743640Y-29962129D01*
X739674Y-29960996D01*
X648577Y-29933362D01*
X631902Y-29926982D01*
X566204Y-29896346D01*
X560059Y-29893274D01*
X481058Y-29851047D01*
X468183Y-29843138D01*
X407169Y-29800415D01*
X399507Y-29794602D01*
X331615Y-29738885D01*
X322453Y-29730580D01*
X269418Y-29677545D01*
X261113Y-29668383D01*
X205396Y-29600491D01*
X199583Y-29592829D01*
X156860Y-29531815D01*
X148951Y-29518940D01*
X106724Y-29439939D01*
X103652Y-29433794D01*
X73016Y-29368096D01*
X66640Y-29351432D01*
X38981Y-29260252D01*
X37886Y-29256419D01*
X20584Y-29191847D01*
X16901Y-29171603D01*
X4543Y-29046125D01*
X4422Y-29044830D01*
X4416Y-29044767D01*
X979Y-29005472D01*
X500Y-28994492D01*
X500Y-27800000D01*
X844341Y-27800000D01*
X864937Y-28035411D01*
X926096Y-28263661D01*
X926098Y-28263665D01*
X1025966Y-28477832D01*
X1161498Y-28671392D01*
X1161502Y-28671397D01*
X1161505Y-28671401D01*
X1328599Y-28838495D01*
X1328603Y-28838498D01*
X1328607Y-28838501D01*
X1522167Y-28974033D01*
X1522166Y-28974033D01*
X1566041Y-28994492D01*
X1736337Y-29073903D01*
X1964592Y-29135063D01*
X2141034Y-29150500D01*
X2141041Y-29150500D01*
X2258959Y-29150500D01*
X2258966Y-29150500D01*
X2435408Y-29135063D01*
X2663663Y-29073903D01*
X2877829Y-28974035D01*
X3071401Y-28838495D01*
X3238495Y-28671401D01*
X3374035Y-28477830D01*
X3473903Y-28263663D01*
X3535063Y-28035408D01*
X3555659Y-27800000D01*
X31444341Y-27800000D01*
X31464937Y-28035411D01*
X31526096Y-28263661D01*
X31526098Y-28263665D01*
X31625966Y-28477832D01*
X31761498Y-28671392D01*
X31761502Y-28671397D01*
X31761505Y-28671401D01*
X31928599Y-28838495D01*
X31928603Y-28838498D01*
X31928607Y-28838501D01*
X32122167Y-28974033D01*
X32122166Y-28974033D01*
X32166041Y-28994492D01*
X32336337Y-29073903D01*
X32564592Y-29135063D01*
X32741034Y-29150500D01*
X32741041Y-29150500D01*
X32858959Y-29150500D01*
X32858966Y-29150500D01*
X33035408Y-29135063D01*
X33263663Y-29073903D01*
X33477829Y-28974035D01*
X33671401Y-28838495D01*
X33838495Y-28671401D01*
X33974035Y-28477830D01*
X34073903Y-28263663D01*
X34135063Y-28035408D01*
X34155659Y-27800000D01*
X34135063Y-27564592D01*
X34073903Y-27336337D01*
X33974035Y-27122171D01*
X33974034Y-27122169D01*
X33974033Y-27122167D01*
X33838501Y-26928607D01*
X33838497Y-26928602D01*
X33838495Y-26928599D01*
X33671401Y-26761505D01*
X33671397Y-26761502D01*
X33671392Y-26761498D01*
X33477832Y-26625966D01*
X33477833Y-26625966D01*
X33263665Y-26526098D01*
X33263661Y-26526096D01*
X33035411Y-26464937D01*
X32982475Y-26460305D01*
X32858966Y-26449500D01*
X32741034Y-26449500D01*
X32628752Y-26459323D01*
X32564588Y-26464937D01*
X32336338Y-26526096D01*
X32336334Y-26526098D01*
X32122167Y-26625966D01*
X31928607Y-26761498D01*
X31928596Y-26761507D01*
X31761507Y-26928596D01*
X31761502Y-26928602D01*
X31625965Y-27122169D01*
X31526098Y-27336334D01*
X31526096Y-27336338D01*
X31464937Y-27564588D01*
X31444341Y-27800000D01*
X3555659Y-27800000D01*
X3535063Y-27564592D01*
X3473903Y-27336337D01*
X3374035Y-27122171D01*
X3374034Y-27122169D01*
X3374033Y-27122167D01*
X3238501Y-26928607D01*
X3238497Y-26928602D01*
X3238495Y-26928599D01*
X3071401Y-26761505D01*
X3071397Y-26761502D01*
X3071392Y-26761498D01*
X2877832Y-26625966D01*
X2877833Y-26625966D01*
X2663665Y-26526098D01*
X2663661Y-26526096D01*
X2435411Y-26464937D01*
X2382475Y-26460305D01*
X2258966Y-26449500D01*
X2141034Y-26449500D01*
X2028752Y-26459323D01*
X1964588Y-26464937D01*
X1736338Y-26526096D01*
X1736334Y-26526098D01*
X1522167Y-26625966D01*
X1328607Y-26761498D01*
X1328596Y-26761507D01*
X1161507Y-26928596D01*
X1161502Y-26928602D01*
X1025965Y-27122169D01*
X926098Y-27336334D01*
X926096Y-27336338D01*
X864937Y-27564588D01*
X844341Y-27800000D01*
X500Y-27800000D01*
X500Y-21000000D01*
X17836496Y-21000000D01*
X17856457Y-21189927D01*
X17886526Y-21282470D01*
X17915473Y-21371556D01*
X17915476Y-21371561D01*
X18010958Y-21536941D01*
X18010965Y-21536951D01*
X18138744Y-21678864D01*
X18138747Y-21678866D01*
X18293248Y-21791118D01*
X18467712Y-21868794D01*
X18654513Y-21908500D01*
X18710406Y-21908500D01*
X18778527Y-21928502D01*
X18799501Y-21945405D01*
X20467255Y-23613160D01*
X20477223Y-23625602D01*
X20477451Y-23625414D01*
X20482498Y-23631515D01*
X20482500Y-23631518D01*
X20482502Y-23631520D01*
X20482503Y-23631521D01*
X20532133Y-23678125D01*
X20534979Y-23680884D01*
X20554724Y-23700630D01*
X20554728Y-23700633D01*
X20554730Y-23700635D01*
X20557935Y-23703121D01*
X20566942Y-23710814D01*
X20599179Y-23741086D01*
X20616928Y-23750843D01*
X20633453Y-23761698D01*
X20649459Y-23774114D01*
X20690042Y-23791675D01*
X20700693Y-23796893D01*
X20739440Y-23818195D01*
X20759060Y-23823232D01*
X20777759Y-23829633D01*
X20796355Y-23837681D01*
X20796359Y-23837681D01*
X20796360Y-23837682D01*
X20803970Y-23839894D01*
X20803186Y-23842591D01*
X20855212Y-23867251D01*
X20864988Y-23876981D01*
X20888743Y-23903363D01*
X20888746Y-23903365D01*
X20888747Y-23903366D01*
X21043248Y-24015618D01*
X21217712Y-24093294D01*
X21404513Y-24133000D01*
X21595487Y-24133000D01*
X21782288Y-24093294D01*
X21956752Y-24015618D01*
X22111253Y-23903366D01*
X22165975Y-23842591D01*
X22239034Y-23761451D01*
X22239035Y-23761449D01*
X22239040Y-23761444D01*
X22334527Y-23596056D01*
X22393542Y-23414428D01*
X22413504Y-23224500D01*
X22393542Y-23034572D01*
X22334527Y-22852944D01*
X22239040Y-22687556D01*
X22239038Y-22687554D01*
X22239034Y-22687548D01*
X22111255Y-22545635D01*
X21956752Y-22433382D01*
X21782288Y-22355706D01*
X21595487Y-22316000D01*
X21404513Y-22316000D01*
X21217707Y-22355706D01*
X21147292Y-22387057D01*
X21076925Y-22396491D01*
X21012629Y-22366384D01*
X21006950Y-22361045D01*
X19697121Y-21051216D01*
X19663095Y-20988904D01*
X19660908Y-20975306D01*
X19643542Y-20810072D01*
X19584527Y-20628444D01*
X19489040Y-20463056D01*
X19489038Y-20463054D01*
X19489034Y-20463048D01*
X19361255Y-20321135D01*
X19206752Y-20208882D01*
X19032288Y-20131206D01*
X18845487Y-20091500D01*
X18654513Y-20091500D01*
X18467711Y-20131206D01*
X18293247Y-20208882D01*
X18138744Y-20321135D01*
X18010965Y-20463048D01*
X18010958Y-20463058D01*
X17915476Y-20628438D01*
X17915473Y-20628445D01*
X17856457Y-20810072D01*
X17836496Y-21000000D01*
X500Y-21000000D01*
X500Y-5750000D01*
X13836496Y-5750000D01*
X13856457Y-5939927D01*
X13886526Y-6032470D01*
X13915473Y-6121556D01*
X13915476Y-6121561D01*
X14010958Y-6286941D01*
X14010965Y-6286951D01*
X14138744Y-6428864D01*
X14138747Y-6428866D01*
X14293248Y-6541118D01*
X14467712Y-6618794D01*
X14654513Y-6658500D01*
X14710406Y-6658500D01*
X14778527Y-6678502D01*
X14799501Y-6695405D01*
X15654613Y-7550517D01*
X15664580Y-7562957D01*
X15664807Y-7562770D01*
X15669859Y-7568877D01*
X15719526Y-7615517D01*
X15722370Y-7618274D01*
X15742090Y-7637994D01*
X15745276Y-7640465D01*
X15754307Y-7648178D01*
X15786538Y-7678445D01*
X15786542Y-7678448D01*
X15804290Y-7688205D01*
X15820817Y-7699061D01*
X15836820Y-7711474D01*
X15877399Y-7729034D01*
X15888047Y-7734251D01*
X15926794Y-7755552D01*
X15926796Y-7755553D01*
X15926800Y-7755555D01*
X15946422Y-7760593D01*
X15965123Y-7766995D01*
X15977674Y-7772427D01*
X15983712Y-7775040D01*
X15983713Y-7775040D01*
X15983715Y-7775041D01*
X16027390Y-7781958D01*
X16039001Y-7784362D01*
X16081830Y-7795360D01*
X16102084Y-7795360D01*
X16121794Y-7796911D01*
X16124001Y-7797260D01*
X16141803Y-7800080D01*
X16185821Y-7795918D01*
X16197679Y-7795360D01*
X17990500Y-7795360D01*
X18058621Y-7815362D01*
X18105114Y-7869018D01*
X18116500Y-7921360D01*
X18116500Y-9684371D01*
X18096498Y-9752492D01*
X18064563Y-9786306D01*
X18049287Y-9797404D01*
X17921510Y-9939315D01*
X17921503Y-9939325D01*
X17826021Y-10104705D01*
X17826018Y-10104712D01*
X17767002Y-10286339D01*
X17747041Y-10476267D01*
X17767002Y-10666194D01*
X17797071Y-10758737D01*
X17826018Y-10847823D01*
X17826021Y-10847828D01*
X17921503Y-11013208D01*
X17921510Y-11013218D01*
X18049289Y-11155131D01*
X18064558Y-11166224D01*
X18107914Y-11222445D01*
X18116500Y-11268162D01*
X18116500Y-14047474D01*
X18096498Y-14115595D01*
X18084137Y-14131784D01*
X18010957Y-14213059D01*
X17915476Y-14378438D01*
X17915473Y-14378445D01*
X17856457Y-14560072D01*
X17836496Y-14750000D01*
X17856457Y-14939927D01*
X17886526Y-15032470D01*
X17915473Y-15121556D01*
X17915476Y-15121561D01*
X18010958Y-15286941D01*
X18010965Y-15286951D01*
X18138744Y-15428864D01*
X18138747Y-15428866D01*
X18293248Y-15541118D01*
X18467712Y-15618794D01*
X18654513Y-15658500D01*
X18845487Y-15658500D01*
X19032288Y-15618794D01*
X19206752Y-15541118D01*
X19361253Y-15428866D01*
X19489040Y-15286944D01*
X19584527Y-15121556D01*
X19643542Y-14939928D01*
X19663504Y-14750000D01*
X19643542Y-14560072D01*
X19584527Y-14378444D01*
X19489040Y-14213056D01*
X19415863Y-14131784D01*
X19385146Y-14067776D01*
X19383500Y-14047474D01*
X19383500Y-11074832D01*
X19400381Y-11011832D01*
X19495072Y-10847823D01*
X19554087Y-10666195D01*
X19574049Y-10476267D01*
X19554087Y-10286339D01*
X19495072Y-10104711D01*
X19400381Y-9940701D01*
X19383500Y-9877701D01*
X19383500Y-7452524D01*
X19403502Y-7384403D01*
X19415858Y-7368220D01*
X19489040Y-7286944D01*
X19584527Y-7121556D01*
X19643542Y-6939928D01*
X19663504Y-6750000D01*
X19643542Y-6560072D01*
X19584527Y-6378444D01*
X19489040Y-6213056D01*
X19489038Y-6213054D01*
X19489034Y-6213048D01*
X19361255Y-6071135D01*
X19206752Y-5958882D01*
X19032288Y-5881206D01*
X18845487Y-5841500D01*
X18654513Y-5841500D01*
X18467711Y-5881206D01*
X18293247Y-5958882D01*
X18138744Y-6071135D01*
X18010965Y-6213048D01*
X18010958Y-6213058D01*
X17915476Y-6378438D01*
X17915473Y-6378444D01*
X17899090Y-6428866D01*
X17895051Y-6441297D01*
X17854977Y-6499902D01*
X17789580Y-6527539D01*
X17775218Y-6528360D01*
X16476455Y-6528360D01*
X16408334Y-6508358D01*
X16387359Y-6491455D01*
X15697120Y-5801215D01*
X15663095Y-5738903D01*
X15660908Y-5725306D01*
X15643542Y-5560072D01*
X15584527Y-5378444D01*
X15489040Y-5213056D01*
X15489038Y-5213054D01*
X15489034Y-5213048D01*
X15361255Y-5071135D01*
X15206752Y-4958882D01*
X15032288Y-4881206D01*
X14845487Y-4841500D01*
X14654513Y-4841500D01*
X14467711Y-4881206D01*
X14293247Y-4958882D01*
X14138744Y-5071135D01*
X14010965Y-5213048D01*
X14010958Y-5213058D01*
X13915476Y-5378438D01*
X13915473Y-5378445D01*
X13856457Y-5560072D01*
X13836496Y-5750000D01*
X500Y-5750000D01*
X500Y-2200000D01*
X844341Y-2200000D01*
X864937Y-2435411D01*
X926096Y-2663661D01*
X926098Y-2663665D01*
X1025966Y-2877832D01*
X1161498Y-3071392D01*
X1161502Y-3071397D01*
X1161505Y-3071401D01*
X1328599Y-3238495D01*
X1328603Y-3238498D01*
X1328607Y-3238501D01*
X1522167Y-3374033D01*
X1522166Y-3374033D01*
X1598304Y-3409537D01*
X1736337Y-3473903D01*
X1964592Y-3535063D01*
X2141034Y-3550500D01*
X2141041Y-3550500D01*
X2258959Y-3550500D01*
X2258966Y-3550500D01*
X2435408Y-3535063D01*
X2663663Y-3473903D01*
X2877829Y-3374035D01*
X3071401Y-3238495D01*
X3238495Y-3071401D01*
X3374035Y-2877830D01*
X3473903Y-2663663D01*
X3535063Y-2435408D01*
X3555659Y-2200000D01*
X31444341Y-2200000D01*
X31464937Y-2435411D01*
X31526096Y-2663661D01*
X31526098Y-2663665D01*
X31625966Y-2877832D01*
X31761498Y-3071392D01*
X31761502Y-3071397D01*
X31761505Y-3071401D01*
X31928599Y-3238495D01*
X31928603Y-3238498D01*
X31928607Y-3238501D01*
X32122167Y-3374033D01*
X32122166Y-3374033D01*
X32198304Y-3409537D01*
X32336337Y-3473903D01*
X32564592Y-3535063D01*
X32741034Y-3550500D01*
X32741041Y-3550500D01*
X32858959Y-3550500D01*
X32858966Y-3550500D01*
X33035408Y-3535063D01*
X33263663Y-3473903D01*
X33477829Y-3374035D01*
X33671401Y-3238495D01*
X33838495Y-3071401D01*
X33974035Y-2877830D01*
X34073903Y-2663663D01*
X34135063Y-2435408D01*
X34155659Y-2200000D01*
X34135063Y-1964592D01*
X34073903Y-1736337D01*
X33974035Y-1522171D01*
X33974034Y-1522169D01*
X33974033Y-1522167D01*
X33838501Y-1328607D01*
X33838497Y-1328602D01*
X33838495Y-1328599D01*
X33671401Y-1161505D01*
X33671397Y-1161502D01*
X33671392Y-1161498D01*
X33477832Y-1025966D01*
X33477833Y-1025966D01*
X33263665Y-926098D01*
X33263661Y-926096D01*
X33035411Y-864937D01*
X32982475Y-860305D01*
X32858966Y-849500D01*
X32741034Y-849500D01*
X32628752Y-859323D01*
X32564588Y-864937D01*
X32336338Y-926096D01*
X32336334Y-926098D01*
X32122167Y-1025966D01*
X31928607Y-1161498D01*
X31928596Y-1161507D01*
X31761507Y-1328596D01*
X31761502Y-1328602D01*
X31625965Y-1522169D01*
X31526098Y-1736334D01*
X31526096Y-1736338D01*
X31464937Y-1964588D01*
X31444341Y-2200000D01*
X3555659Y-2200000D01*
X3535063Y-1964592D01*
X3473903Y-1736337D01*
X3374035Y-1522171D01*
X3374034Y-1522169D01*
X3374033Y-1522167D01*
X3238501Y-1328607D01*
X3238497Y-1328602D01*
X3238495Y-1328599D01*
X3071401Y-1161505D01*
X3071397Y-1161502D01*
X3071392Y-1161498D01*
X2877832Y-1025966D01*
X2877833Y-1025966D01*
X2663665Y-926098D01*
X2663661Y-926096D01*
X2435411Y-864937D01*
X2382475Y-860305D01*
X2258966Y-849500D01*
X2141034Y-849500D01*
X2028752Y-859323D01*
X1964588Y-864937D01*
X1736338Y-926096D01*
X1736334Y-926098D01*
X1522167Y-1025966D01*
X1328607Y-1161498D01*
X1328596Y-1161507D01*
X1161507Y-1328596D01*
X1161502Y-1328602D01*
X1025965Y-1522169D01*
X926098Y-1736334D01*
X926096Y-1736338D01*
X864937Y-1964588D01*
X844341Y-2200000D01*
X500Y-2200000D01*
X500Y-1005506D01*
X979Y-994526D01*
X4422Y-955167D01*
X4543Y-953874D01*
X16902Y-828391D01*
X20583Y-808156D01*
X37895Y-743548D01*
X38971Y-739780D01*
X66643Y-648558D01*
X73010Y-631916D01*
X103665Y-566176D01*
X106709Y-560088D01*
X148958Y-481046D01*
X156848Y-468201D01*
X199597Y-407149D01*
X205380Y-399527D01*
X261131Y-331594D01*
X269398Y-322474D01*
X322474Y-269398D01*
X331594Y-261131D01*
X399527Y-205380D01*
X407149Y-199597D01*
X468201Y-156848D01*
X481046Y-148958D01*
X560088Y-106709D01*
X566176Y-103665D01*
X631916Y-73010D01*
X648558Y-66643D01*
X739780Y-38971D01*
X743548Y-37895D01*
X808156Y-20583D01*
X828391Y-16902D01*
X953929Y-4537D01*
X955078Y-4430D01*
X984529Y-1853D01*
X994527Y-979D01*
X1005507Y-500D01*
X33994493Y-500D01*
X34005474Y-979D01*
G37*
%TD.AperFunction*%
%TD*%
M02*
