%TF.GenerationSoftware,KiCad,Pcbnew,7.0.11-7.0.11~ubuntu22.04.1*%
%TF.CreationDate,2024-06-09T19:30:32+02:00*%
%TF.ProjectId,E73-2G4M08S1C-52840,4537332d-3247-4344-9d30-385331432d35,rev?*%
%TF.SameCoordinates,Original*%
%TF.FileFunction,Copper,L1,Top*%
%TF.FilePolarity,Positive*%
%FSLAX46Y46*%
G04 Gerber Fmt 4.6, Leading zero omitted, Abs format (unit mm)*
G04 Created by KiCad (PCBNEW 7.0.11-7.0.11~ubuntu22.04.1) date 2024-06-09 19:30:32*
%MOMM*%
%LPD*%
G01*
G04 APERTURE LIST*
G04 Aperture macros list*
%AMRoundRect*
0 Rectangle with rounded corners*
0 $1 Rounding radius*
0 $2 $3 $4 $5 $6 $7 $8 $9 X,Y pos of 4 corners*
0 Add a 4 corners polygon primitive as box body*
4,1,4,$2,$3,$4,$5,$6,$7,$8,$9,$2,$3,0*
0 Add four circle primitives for the rounded corners*
1,1,$1+$1,$2,$3*
1,1,$1+$1,$4,$5*
1,1,$1+$1,$6,$7*
1,1,$1+$1,$8,$9*
0 Add four rect primitives between the rounded corners*
20,1,$1+$1,$2,$3,$4,$5,0*
20,1,$1+$1,$4,$5,$6,$7,0*
20,1,$1+$1,$6,$7,$8,$9,0*
20,1,$1+$1,$8,$9,$2,$3,0*%
G04 Aperture macros list end*
%TA.AperFunction,NonConductor*%
%ADD10C,0.200000*%
%TD*%
%TA.AperFunction,SMDPad,CuDef*%
%ADD11R,1.250000X1.000000*%
%TD*%
%TA.AperFunction,SMDPad,CuDef*%
%ADD12R,1.700000X1.000000*%
%TD*%
%TA.AperFunction,SMDPad,CuDef*%
%ADD13RoundRect,0.200000X-0.275000X0.200000X-0.275000X-0.200000X0.275000X-0.200000X0.275000X0.200000X0*%
%TD*%
%TA.AperFunction,SMDPad,CuDef*%
%ADD14R,0.700000X1.600000*%
%TD*%
%TA.AperFunction,SMDPad,CuDef*%
%ADD15R,0.550000X0.350000*%
%TD*%
%TA.AperFunction,SMDPad,CuDef*%
%ADD16R,0.280000X0.550000*%
%TD*%
%TA.AperFunction,SMDPad,CuDef*%
%ADD17RoundRect,0.200000X0.275000X-0.200000X0.275000X0.200000X-0.275000X0.200000X-0.275000X-0.200000X0*%
%TD*%
%TA.AperFunction,SMDPad,CuDef*%
%ADD18R,1.000000X0.600000*%
%TD*%
%TA.AperFunction,SMDPad,CuDef*%
%ADD19RoundRect,0.200000X0.200000X0.275000X-0.200000X0.275000X-0.200000X-0.275000X0.200000X-0.275000X0*%
%TD*%
%TA.AperFunction,SMDPad,CuDef*%
%ADD20RoundRect,0.225000X-0.225000X-0.250000X0.225000X-0.250000X0.225000X0.250000X-0.225000X0.250000X0*%
%TD*%
%TA.AperFunction,SMDPad,CuDef*%
%ADD21RoundRect,0.225000X0.225000X0.250000X-0.225000X0.250000X-0.225000X-0.250000X0.225000X-0.250000X0*%
%TD*%
%TA.AperFunction,SMDPad,CuDef*%
%ADD22R,1.200000X1.800000*%
%TD*%
%TA.AperFunction,SMDPad,CuDef*%
%ADD23R,0.600000X1.550000*%
%TD*%
%TA.AperFunction,SMDPad,CuDef*%
%ADD24R,1.700000X1.050000*%
%TD*%
%TA.AperFunction,SMDPad,CuDef*%
%ADD25R,0.900000X2.000000*%
%TD*%
%TA.AperFunction,SMDPad,CuDef*%
%ADD26R,0.900000X0.900000*%
%TD*%
%TA.AperFunction,SMDPad,CuDef*%
%ADD27R,2.000000X0.900000*%
%TD*%
%TA.AperFunction,SMDPad,CuDef*%
%ADD28R,4.000000X1.500000*%
%TD*%
%TA.AperFunction,SMDPad,CuDef*%
%ADD29R,3.250000X1.000000*%
%TD*%
%TA.AperFunction,SMDPad,CuDef*%
%ADD30R,3.000000X0.900000*%
%TD*%
%TA.AperFunction,ViaPad*%
%ADD31C,0.800000*%
%TD*%
%TA.AperFunction,Conductor*%
%ADD32C,0.250000*%
%TD*%
G04 APERTURE END LIST*
D10*
X-500000Y-15000000D02*
X-3600000Y-15000000D01*
D11*
%TO.P,LED1,2,A*%
%TO.N,nRF_VDD*%
X19500000Y-25400000D03*
%TO.P,LED1,1,K*%
%TO.N,Net-(LED1-K)*%
X19500000Y-27600000D03*
%TD*%
D12*
%TO.P,RESET1,1,A*%
%TO.N,unconnected-(RESET1-A-Pad1)*%
X6800000Y-24250000D03*
%TO.P,RESET1,2,B*%
%TO.N,GND*%
X13400000Y-24250000D03*
%TO.P,RESET1,3,C*%
%TO.N,unconnected-(RESET1-C-Pad3)*%
X6800000Y-27950000D03*
%TO.P,RESET1,4,D*%
%TO.N,RESET*%
X13400000Y-27950000D03*
%TD*%
%TO.P,SW1,1,A*%
%TO.N,unconnected-(SW1-A-Pad1)*%
X22400000Y-1550000D03*
%TO.P,SW1,2,B*%
%TO.N,GND*%
X29000000Y-1550000D03*
%TO.P,SW1,3,C*%
%TO.N,unconnected-(SW1-C-Pad3)*%
X22400000Y-5250000D03*
%TO.P,SW1,4,D*%
%TO.N,BTN1*%
X29000000Y-5250000D03*
%TD*%
D13*
%TO.P,R9,2*%
%TO.N,GND*%
X14750000Y-17000000D03*
%TO.P,R9,1*%
%TO.N,BAT_READ*%
X14750000Y-15350000D03*
%TD*%
D14*
%TO.P,U3,5,EP*%
%TO.N,unconnected-(U3-EP-Pad5)*%
X17500000Y-3250000D03*
D15*
%TO.P,U3,4,VSS*%
%TO.N,GND*%
X16580000Y-3750000D03*
%TO.P,U3,3,SDA*%
%TO.N,SDA*%
X16580000Y-2750000D03*
%TO.P,U3,2,SCL*%
%TO.N,SCL*%
X18420000Y-2750000D03*
%TO.P,U3,1,VDD*%
%TO.N,nRF_VDD*%
X18420000Y-3750000D03*
%TD*%
D16*
%TO.P,Q1,6,D1*%
%TO.N,Net-(Q1-D1)*%
X15000000Y-20220000D03*
%TO.P,Q1,5,G2*%
X14500000Y-20220000D03*
%TO.P,Q1,4,S2*%
%TO.N,VBAT*%
X14000000Y-20220000D03*
%TO.P,Q1,3,D2*%
%TO.N,Net-(Q1-D2)*%
X14000000Y-18780000D03*
%TO.P,Q1,2,G1*%
%TO.N,BAT_MON_EN*%
X14500000Y-18780000D03*
%TO.P,Q1,1,S1*%
%TO.N,GND*%
X15000000Y-18780000D03*
%TD*%
D17*
%TO.P,R4,2*%
%TO.N,LED1*%
X17250000Y-25675000D03*
%TO.P,R4,1*%
%TO.N,Net-(LED1-K)*%
X17250000Y-27325000D03*
%TD*%
D13*
%TO.P,R3,2*%
%TO.N,GND*%
X17000000Y-20325000D03*
%TO.P,R3,1*%
%TO.N,BAT_MON_EN*%
X17000000Y-18675000D03*
%TD*%
D18*
%TO.P,LDO1,5,OUT*%
%TO.N,nRF_VDD*%
X13300000Y-10300000D03*
%TO.P,LDO1,4,NC*%
%TO.N,unconnected-(LDO1-NC-Pad4)*%
X13300000Y-12200000D03*
%TO.P,LDO1,3,EN*%
%TO.N,VBAT*%
X10700000Y-12200000D03*
%TO.P,LDO1,2,GND*%
%TO.N,GND*%
X10700000Y-11250000D03*
%TO.P,LDO1,1,IN*%
%TO.N,VBAT*%
X10700000Y-10300000D03*
%TD*%
D19*
%TO.P,R10,2*%
%TO.N,VBAT*%
X13675000Y-22000000D03*
%TO.P,R10,1*%
%TO.N,Net-(Q1-D1)*%
X15325000Y-22000000D03*
%TD*%
D20*
%TO.P,C5,2*%
%TO.N,XL2*%
X15525000Y-13750000D03*
%TO.P,C5,1*%
%TO.N,GND*%
X13975000Y-13750000D03*
%TD*%
D21*
%TO.P,C3,2*%
%TO.N,GND*%
X16725000Y-5250000D03*
%TO.P,C3,1*%
%TO.N,nRF_VDD*%
X18275000Y-5250000D03*
%TD*%
D17*
%TO.P,R6,2*%
%TO.N,SCL*%
X20000000Y-2925000D03*
%TO.P,R6,1*%
%TO.N,nRF_VDD*%
X20000000Y-4575000D03*
%TD*%
D22*
%TO.P,CN2,6,6*%
%TO.N,GND*%
X12600000Y-1160000D03*
%TO.P,CN2,5,5*%
X7000000Y-1160000D03*
D23*
%TO.P,CN2,4,4*%
%TO.N,SCL*%
X8300000Y-5040000D03*
%TO.P,CN2,3,3*%
%TO.N,SDA*%
X9300000Y-5040000D03*
%TO.P,CN2,2,2*%
%TO.N,nRF_VDD*%
X10300000Y-5040000D03*
%TO.P,CN2,1,1*%
%TO.N,GND*%
X11300000Y-5040000D03*
%TD*%
D21*
%TO.P,C1,2*%
%TO.N,GND*%
X7325000Y-8400000D03*
%TO.P,C1,1*%
%TO.N,VBAT*%
X8875000Y-8400000D03*
%TD*%
D17*
%TO.P,R7,2*%
%TO.N,BAT_READ*%
X13000000Y-15425000D03*
%TO.P,R7,1*%
%TO.N,Net-(Q1-D2)*%
X13000000Y-17075000D03*
%TD*%
%TO.P,R5,2*%
%TO.N,SDA*%
X14750000Y-2925000D03*
%TO.P,R5,1*%
%TO.N,nRF_VDD*%
X14750000Y-4575000D03*
%TD*%
D24*
%TO.P,X2,2,2*%
%TO.N,XL2*%
X15250000Y-12020000D03*
%TO.P,X2,1,1*%
%TO.N,XL1*%
X15250000Y-9480000D03*
%TD*%
D25*
%TO.P,U1,43,NF2*%
%TO.N,unconnected-(U1-NF2-Pad43)*%
X34260000Y-20750000D03*
D26*
%TO.P,U1,42,P1.06*%
%TO.N,unconnected-(U1-P1.06-Pad42)*%
X33630000Y-18650000D03*
D25*
%TO.P,U1,41,NF1*%
%TO.N,unconnected-(U1-NF1-Pad41)*%
X32990000Y-20750000D03*
D26*
%TO.P,U1,40,P1.04*%
%TO.N,unconnected-(U1-P1.04-Pad40)*%
X32360000Y-18660000D03*
D25*
%TO.P,U1,39,SWC/SWDCLK*%
%TO.N,SWC*%
X31720000Y-20750000D03*
D26*
%TO.P,U1,38,P1.02*%
%TO.N,unconnected-(U1-P1.02-Pad38)*%
X31090000Y-18660000D03*
D25*
%TO.P,U1,37,SWD/SWDIO*%
%TO.N,SWD*%
X30450000Y-20750000D03*
D26*
%TO.P,U1,36,P1.00*%
%TO.N,unconnected-(U1-P1.00-Pad36)*%
X29820000Y-18660000D03*
D25*
%TO.P,U1,35,P0.24*%
%TO.N,unconnected-(U1-P0.24-Pad35)*%
X29180000Y-20750000D03*
D26*
%TO.P,U1,34,P0.22*%
%TO.N,unconnected-(U1-P0.22-Pad34)*%
X28550000Y-18660000D03*
D25*
%TO.P,U1,33,P0.13*%
%TO.N,LED1*%
X27910000Y-20750000D03*
D26*
%TO.P,U1,32,P0.20*%
%TO.N,unconnected-(U1-P0.20-Pad32)*%
X27280000Y-18660000D03*
D25*
%TO.P,U1,31,D+*%
%TO.N,DATA+*%
X26640000Y-20750000D03*
D26*
%TO.P,U1,30,P17*%
%TO.N,unconnected-(U1-P17-Pad30)*%
X26010000Y-18660000D03*
D25*
%TO.P,U1,29,D-*%
%TO.N,DATA-*%
X25370000Y-20750000D03*
D26*
%TO.P,U1,28,P15*%
%TO.N,unconnected-(U1-P15-Pad28)*%
X24740000Y-18660000D03*
D25*
%TO.P,U1,27,VBS*%
%TO.N,unconnected-(U1-VBS-Pad27)*%
X24100000Y-20750000D03*
%TO.P,U1,26,RST*%
%TO.N,RESET*%
X22830000Y-20750000D03*
D27*
%TO.P,U1,25,DCH*%
%TO.N,unconnected-(U1-DCH-Pad25)*%
X20240000Y-18700000D03*
D26*
%TO.P,U1,24,GND*%
%TO.N,GND*%
X22340000Y-18060000D03*
D27*
%TO.P,U1,23,VDH*%
%TO.N,nRF_VDD*%
X20240000Y-17420000D03*
D26*
%TO.P,U1,22,P0.07*%
%TO.N,unconnected-(U1-P0.07-Pad22)*%
X22340000Y-16790000D03*
D27*
%TO.P,U1,21,GND*%
%TO.N,GND*%
X20240000Y-16150000D03*
D26*
%TO.P,U1,20,P12*%
%TO.N,unconnected-(U1-P12-Pad20)*%
X22340000Y-15520000D03*
D27*
%TO.P,U1,19,VCC*%
%TO.N,nRF_VDD*%
X20240000Y-14880000D03*
D26*
%TO.P,U1,18,AI2*%
%TO.N,unconnected-(U1-AI2-Pad18)*%
X22340000Y-14250000D03*
D27*
%TO.P,U1,17,P1.09*%
%TO.N,BAT_MON_EN*%
X20240000Y-13620000D03*
D26*
%TO.P,U1,16,P0.08*%
%TO.N,unconnected-(U1-P0.08-Pad16)*%
X22340000Y-12980000D03*
D27*
%TO.P,U1,15,AI3_P0.05/AIN3*%
%TO.N,BAT_READ*%
X20240000Y-12350000D03*
D26*
%TO.P,U1,14,P0.06*%
%TO.N,unconnected-(U1-P0.06-Pad14)*%
X22340000Y-11710000D03*
D27*
%TO.P,U1,13,XL2*%
%TO.N,XL2*%
X20240000Y-11080000D03*
D26*
%TO.P,U1,12,P0.26*%
%TO.N,unconnected-(U1-P0.26-Pad12)*%
X22340000Y-10440000D03*
D27*
%TO.P,U1,11,XL1*%
%TO.N,XL1*%
X20240000Y-9800000D03*
D25*
%TO.P,U1,10,AI6_P0.30/AIN6*%
%TO.N,SDA*%
X22830000Y-7750000D03*
%TO.P,U1,9,AI7_P0.31/AIN7*%
%TO.N,SCL*%
X24100000Y-7750000D03*
%TO.P,U1,8,AI5_P0.29/AIN5*%
%TO.N,unconnected-(U1-AI5_P0.29{slash}AIN5-Pad8)*%
X25370000Y-7750000D03*
%TO.P,U1,7,AI0_P0.02/AIN0*%
%TO.N,unconnected-(U1-AI0_P0.02{slash}AIN0-Pad7)*%
X26640000Y-7750000D03*
%TO.P,U1,6,P1.13*%
%TO.N,unconnected-(U1-P1.13-Pad6)*%
X27910000Y-7750000D03*
%TO.P,U1,5,GND*%
%TO.N,GND*%
X29180000Y-7750000D03*
%TO.P,U1,4,AI4*%
%TO.N,unconnected-(U1-AI4-Pad4)*%
X30450000Y-7750000D03*
%TO.P,U1,3,P0.03_P0.03/AIN1*%
%TO.N,unconnected-(U1-P0.03_P0.03{slash}AIN1-Pad3)*%
X31750000Y-7750000D03*
%TO.P,U1,2,P1.10*%
%TO.N,unconnected-(U1-P1.10-Pad2)*%
X32990000Y-7750000D03*
%TO.P,U1,1,P1.11*%
%TO.N,BTN1*%
X34260000Y-7750000D03*
%TD*%
D28*
%TO.P,X1,4,4*%
%TO.N,unconnected-(X1-Pad4)*%
X2147500Y-18410000D03*
%TO.P,X1,3,3*%
%TO.N,unconnected-(X1-Pad3)*%
X2147500Y-11590000D03*
D29*
%TO.P,X1,2,P-*%
%TO.N,GND*%
X8027500Y-14000000D03*
%TO.P,X1,1,P+*%
%TO.N,VBAT*%
X8027500Y-16000000D03*
%TD*%
D20*
%TO.P,C4,2*%
%TO.N,XL1*%
X15525000Y-7750000D03*
%TO.P,C4,1*%
%TO.N,GND*%
X13975000Y-7750000D03*
%TD*%
D30*
%TO.P,CN1,10,10*%
%TO.N,RESET*%
X27830000Y-28240000D03*
%TO.P,CN1,9,9*%
%TO.N,GND*%
X23760000Y-28240000D03*
%TO.P,CN1,8,8*%
%TO.N,unconnected-(CN1-Pad8)*%
X27830000Y-26970000D03*
%TO.P,CN1,7,7*%
%TO.N,unconnected-(CN1-Pad7)*%
X23760000Y-26970000D03*
%TO.P,CN1,6,6*%
%TO.N,unconnected-(CN1-Pad6)*%
X27830000Y-25700000D03*
%TO.P,CN1,5,5*%
%TO.N,GND*%
X23760000Y-25700000D03*
%TO.P,CN1,4,4*%
%TO.N,SWC*%
X27830000Y-24430000D03*
%TO.P,CN1,3,3*%
%TO.N,GND*%
X23760000Y-24430000D03*
%TO.P,CN1,2,2*%
%TO.N,SWD*%
X27830000Y-23160000D03*
%TO.P,CN1,1,1*%
%TO.N,nRF_VDD*%
X23760000Y-23160000D03*
%TD*%
D21*
%TO.P,C2,2*%
%TO.N,GND*%
X10825000Y-8400000D03*
%TO.P,C2,1*%
%TO.N,nRF_VDD*%
X12375000Y-8400000D03*
%TD*%
D31*
%TO.N,GND*%
X15750000Y-19000000D03*
X29250000Y-9250000D03*
X12200000Y-5400000D03*
X21600000Y-28000000D03*
X13750000Y-25500000D03*
X14000000Y-6750000D03*
X23311904Y-17534989D03*
X10467751Y-7225104D03*
X11400000Y-1400000D03*
X13000000Y-13750000D03*
X8300000Y-1500000D03*
X7200000Y-7200000D03*
X16833979Y-6436860D03*
X8000000Y-12900000D03*
X9750000Y-11250000D03*
X29000000Y-2500000D03*
X18724500Y-16487701D03*
X15750000Y-17000000D03*
X21600000Y-25200000D03*
X17000000Y-21250000D03*
%TO.N,nRF_VDD*%
X18750000Y-6750000D03*
X18660545Y-10476267D03*
X18750000Y-21000000D03*
X21500000Y-23224500D03*
X18750000Y-14750000D03*
X14750000Y-5750000D03*
%TD*%
D32*
%TO.N,Net-(LED1-K)*%
X17525000Y-27600000D02*
X17250000Y-27325000D01*
X19550000Y-27600000D02*
X17525000Y-27600000D01*
X17525000Y-27350000D02*
X17250000Y-27075000D01*
%TO.N,Net-(Q1-D2)*%
X14000000Y-18075000D02*
X13000000Y-17075000D01*
X14000000Y-18780000D02*
X14000000Y-18075000D01*
%TO.N,GND*%
X29180000Y-9180000D02*
X29250000Y-9250000D01*
X16725000Y-5250000D02*
X16725000Y-3895000D01*
X7960000Y-1160000D02*
X8300000Y-1500000D01*
X12600000Y-1160000D02*
X11640000Y-1160000D01*
X13550000Y-24400000D02*
X13550000Y-25300000D01*
X23760000Y-25700000D02*
X22100000Y-25700000D01*
X14000000Y-7725000D02*
X13975000Y-7750000D01*
X7325000Y-8400000D02*
X7325000Y-7325000D01*
X18724500Y-16487701D02*
X19902299Y-16487701D01*
X22100000Y-25700000D02*
X21600000Y-25200000D01*
X7000000Y-1160000D02*
X7960000Y-1160000D01*
X23760000Y-24430000D02*
X22370000Y-24430000D01*
X13550000Y-25300000D02*
X13750000Y-25500000D01*
X17000000Y-20325000D02*
X17000000Y-21250000D01*
X7325000Y-7325000D02*
X7200000Y-7200000D01*
X29180000Y-7750000D02*
X29180000Y-9180000D01*
X22786893Y-18060000D02*
X23311904Y-17534989D01*
X16725000Y-3895000D02*
X16580000Y-3750000D01*
X19902299Y-16487701D02*
X20240000Y-16150000D01*
X11300000Y-5040000D02*
X11840000Y-5040000D01*
X15000000Y-18780000D02*
X15530000Y-18780000D01*
X10825000Y-7582353D02*
X10825000Y-8400000D01*
X16725000Y-6327881D02*
X16725000Y-5500000D01*
X16833979Y-6436860D02*
X16725000Y-6327881D01*
X16725000Y-5500000D02*
X16580000Y-5355000D01*
X23760000Y-28240000D02*
X21840000Y-28240000D01*
X14000000Y-6750000D02*
X14000000Y-7725000D01*
X22370000Y-24430000D02*
X21600000Y-25200000D01*
X10467751Y-7225104D02*
X10825000Y-7582353D01*
X11840000Y-5040000D02*
X12200000Y-5400000D01*
X8027500Y-12927500D02*
X8000000Y-12900000D01*
X29000000Y-2500000D02*
X29050000Y-2450000D01*
X10700000Y-11250000D02*
X9750000Y-11250000D01*
X29050000Y-2450000D02*
X29050000Y-1400000D01*
X8027500Y-14000000D02*
X8027500Y-12927500D01*
X11640000Y-1160000D02*
X11400000Y-1400000D01*
X21840000Y-28240000D02*
X21600000Y-28000000D01*
X14750000Y-17000000D02*
X15750000Y-17000000D01*
X13975000Y-13750000D02*
X13000000Y-13750000D01*
X15530000Y-18780000D02*
X15750000Y-19000000D01*
X22340000Y-18060000D02*
X22786893Y-18060000D01*
%TO.N,Net-(Q1-D1)*%
X15000000Y-20220000D02*
X14500000Y-20220000D01*
X15000000Y-20220000D02*
X15000000Y-21675000D01*
X15000000Y-21675000D02*
X15325000Y-22000000D01*
%TO.N,XL1*%
X19920000Y-9480000D02*
X20240000Y-9800000D01*
X15250000Y-9480000D02*
X19920000Y-9480000D01*
X15525000Y-9205000D02*
X15250000Y-9480000D01*
X15525000Y-7750000D02*
X15525000Y-9205000D01*
%TO.N,XL2*%
X20240000Y-11080000D02*
X19420000Y-11080000D01*
X18480000Y-12020000D02*
X15250000Y-12020000D01*
X15250000Y-12020000D02*
X15250000Y-13475000D01*
X15250000Y-13475000D02*
X15525000Y-13750000D01*
X19420000Y-11080000D02*
X18480000Y-12020000D01*
%TO.N,RESET*%
X14800000Y-27950000D02*
X16250000Y-26500000D01*
X16250000Y-26500000D02*
X16250000Y-23450000D01*
X16250000Y-23450000D02*
X17900000Y-21800000D01*
X27055000Y-29015000D02*
X15865000Y-29015000D01*
X13700000Y-27950000D02*
X14800000Y-27950000D01*
X27830000Y-28240000D02*
X27055000Y-29015000D01*
X17900000Y-21800000D02*
X21780000Y-21800000D01*
X15865000Y-29015000D02*
X14800000Y-27950000D01*
X21780000Y-21800000D02*
X22830000Y-20750000D01*
%TO.N,LED1*%
X18450000Y-22250000D02*
X17250000Y-23450000D01*
X27910000Y-21790000D02*
X27450000Y-22250000D01*
X27910000Y-21415000D02*
X27910000Y-21790000D01*
X17250000Y-23450000D02*
X17250000Y-25425000D01*
X27450000Y-22250000D02*
X18450000Y-22250000D01*
%TO.N,BAT_MON_EN*%
X18516396Y-13620000D02*
X17000000Y-15136396D01*
X14500000Y-18215000D02*
X14715000Y-18000000D01*
X14500000Y-18780000D02*
X14500000Y-18215000D01*
X16750000Y-18000000D02*
X17000000Y-18250000D01*
X20240000Y-13620000D02*
X18516396Y-13620000D01*
X14715000Y-18000000D02*
X16750000Y-18000000D01*
X17000000Y-18250000D02*
X17000000Y-18675000D01*
X17000000Y-15136396D02*
X17000000Y-18250000D01*
%TO.N,SCL*%
X24100000Y-7750000D02*
X24100000Y-6500000D01*
X21000000Y-3250000D02*
X20675000Y-2925000D01*
X9115000Y-3200000D02*
X13300000Y-3200000D01*
X13900000Y-1900000D02*
X19700000Y-1900000D01*
X24100000Y-6500000D02*
X23850000Y-6250000D01*
X20000000Y-2200000D02*
X20000000Y-2925000D01*
X13600000Y-2200000D02*
X13900000Y-1900000D01*
X21500000Y-6250000D02*
X21000000Y-5750000D01*
X8300000Y-4015000D02*
X9115000Y-3200000D01*
X23850000Y-6250000D02*
X21500000Y-6250000D01*
X20675000Y-2925000D02*
X20000000Y-2925000D01*
X18420000Y-2750000D02*
X19825000Y-2750000D01*
X19825000Y-2750000D02*
X20000000Y-2925000D01*
X13300000Y-3200000D02*
X13600000Y-2900000D01*
X21000000Y-5750000D02*
X21000000Y-3250000D01*
X19700000Y-1900000D02*
X20000000Y-2200000D01*
X8300000Y-5040000D02*
X8300000Y-4015000D01*
X13600000Y-2900000D02*
X13600000Y-2200000D01*
%TO.N,SDA*%
X9615000Y-3700000D02*
X9300000Y-4015000D01*
X22830000Y-7750000D02*
X17121814Y-7750000D01*
X14375000Y-3700000D02*
X9615000Y-3700000D01*
X16580000Y-2750000D02*
X16250000Y-2750000D01*
X14925000Y-2750000D02*
X14750000Y-2925000D01*
X15750000Y-6378186D02*
X15750000Y-3250000D01*
X14750000Y-2925000D02*
X14750000Y-3325000D01*
X15425000Y-2925000D02*
X14750000Y-2925000D01*
X17121814Y-7750000D02*
X15750000Y-6378186D01*
X15750000Y-3250000D02*
X15425000Y-2925000D01*
X14750000Y-3325000D02*
X14375000Y-3700000D01*
X9300000Y-4015000D02*
X9300000Y-5040000D01*
X15750000Y-3250000D02*
X16250000Y-2750000D01*
%TO.N,SWD*%
X30450000Y-22000000D02*
X29290000Y-23160000D01*
X30450000Y-20750000D02*
X30450000Y-22000000D01*
X29290000Y-23160000D02*
X27830000Y-23160000D01*
%TO.N,SWC*%
X29290000Y-24430000D02*
X27830000Y-24430000D01*
X31720000Y-20750000D02*
X31720000Y-22000000D01*
X31720000Y-22000000D02*
X29290000Y-24430000D01*
%TO.N,nRF_VDD*%
X12100000Y-6600000D02*
X12375000Y-6875000D01*
X10300000Y-6065000D02*
X10835000Y-6600000D01*
X19550000Y-25400000D02*
X20350000Y-25400000D01*
X18750000Y-17750000D02*
X19080000Y-17420000D01*
X18750000Y-21000000D02*
X18750000Y-17750000D01*
X12375000Y-6875000D02*
X12375000Y-8400000D01*
X13500000Y-10500000D02*
X13300000Y-10300000D01*
X13250000Y-10250000D02*
X13300000Y-10300000D01*
X21564500Y-23160000D02*
X21500000Y-23224500D01*
X19080000Y-17420000D02*
X20240000Y-17420000D01*
X18275000Y-5500000D02*
X18420000Y-5355000D01*
X18000000Y-15500000D02*
X18750000Y-14750000D01*
X18420000Y-3750000D02*
X18420000Y-5105000D01*
X18750000Y-14750000D02*
X18880000Y-14880000D01*
X12375000Y-8400000D02*
X13250000Y-9275000D01*
X18750000Y-6750000D02*
X18275000Y-6275000D01*
X20350000Y-25400000D02*
X21500000Y-24250000D01*
X13250000Y-9275000D02*
X13250000Y-10250000D01*
X21500000Y-24250000D02*
X21500000Y-23224500D01*
X18750000Y-17750000D02*
X18000000Y-17000000D01*
X23760000Y-23160000D02*
X21564500Y-23160000D01*
X10835000Y-6600000D02*
X12100000Y-6600000D01*
X10300000Y-5040000D02*
X10300000Y-6065000D01*
X18660545Y-10476267D02*
X18636812Y-10500000D01*
X20000000Y-4575000D02*
X18950000Y-4575000D01*
X18275000Y-6275000D02*
X18275000Y-5500000D01*
X18950000Y-4575000D02*
X18275000Y-5250000D01*
X18880000Y-14880000D02*
X20240000Y-14880000D01*
X14750000Y-5750000D02*
X14750000Y-4575000D01*
X18000000Y-17000000D02*
X18000000Y-15500000D01*
X18636812Y-10500000D02*
X13500000Y-10500000D01*
X18420000Y-5105000D02*
X18275000Y-5250000D01*
%TO.N,BTN1*%
X34260000Y-6920000D02*
X32690000Y-5350000D01*
X32690000Y-5350000D02*
X29050000Y-5350000D01*
%TO.N,VBAT*%
X10700000Y-10300000D02*
X9600000Y-10300000D01*
X10700000Y-10300000D02*
X11450000Y-10300000D01*
X14000000Y-20220000D02*
X14000000Y-21675000D01*
X11400000Y-18700000D02*
X12920000Y-20220000D01*
X10700000Y-12200000D02*
X10700000Y-15300000D01*
X11750000Y-10600000D02*
X11750000Y-11900000D01*
X9600000Y-10300000D02*
X8875000Y-9575000D01*
X8027500Y-16000000D02*
X11000000Y-16000000D01*
X12920000Y-20220000D02*
X14000000Y-20220000D01*
X11450000Y-10300000D02*
X11750000Y-10600000D01*
X11400000Y-16400000D02*
X11400000Y-18700000D01*
X8875000Y-9575000D02*
X8875000Y-8400000D01*
X10000000Y-16000000D02*
X8027500Y-16000000D01*
X10700000Y-15300000D02*
X10000000Y-16000000D01*
X11000000Y-16000000D02*
X11400000Y-16400000D01*
X11450000Y-12200000D02*
X10700000Y-12200000D01*
X11750000Y-11900000D02*
X11450000Y-12200000D01*
X14000000Y-21675000D02*
X13675000Y-22000000D01*
%TO.N,BAT_READ*%
X13000000Y-15425000D02*
X14675000Y-15425000D01*
X14675000Y-15425000D02*
X14750000Y-15350000D01*
X14925000Y-15175000D02*
X14750000Y-15350000D01*
X16325000Y-15175000D02*
X14925000Y-15175000D01*
X19150000Y-12350000D02*
X16325000Y-15175000D01*
X20240000Y-12350000D02*
X19150000Y-12350000D01*
%TD*%
M02*
