%TF.GenerationSoftware,KiCad,Pcbnew,7.0.11-7.0.11~ubuntu22.04.1*%
%TF.CreationDate,2024-06-09T19:30:32+02:00*%
%TF.ProjectId,E73-2G4M08S1C-52840,4537332d-3247-4344-9d30-385331432d35,rev?*%
%TF.SameCoordinates,Original*%
%TF.FileFunction,Soldermask,Top*%
%TF.FilePolarity,Negative*%
%FSLAX46Y46*%
G04 Gerber Fmt 4.6, Leading zero omitted, Abs format (unit mm)*
G04 Created by KiCad (PCBNEW 7.0.11-7.0.11~ubuntu22.04.1) date 2024-06-09 19:30:32*
%MOMM*%
%LPD*%
G01*
G04 APERTURE LIST*
G04 Aperture macros list*
%AMRoundRect*
0 Rectangle with rounded corners*
0 $1 Rounding radius*
0 $2 $3 $4 $5 $6 $7 $8 $9 X,Y pos of 4 corners*
0 Add a 4 corners polygon primitive as box body*
4,1,4,$2,$3,$4,$5,$6,$7,$8,$9,$2,$3,0*
0 Add four circle primitives for the rounded corners*
1,1,$1+$1,$2,$3*
1,1,$1+$1,$4,$5*
1,1,$1+$1,$6,$7*
1,1,$1+$1,$8,$9*
0 Add four rect primitives between the rounded corners*
20,1,$1+$1,$2,$3,$4,$5,0*
20,1,$1+$1,$4,$5,$6,$7,0*
20,1,$1+$1,$6,$7,$8,$9,0*
20,1,$1+$1,$8,$9,$2,$3,0*%
G04 Aperture macros list end*
%ADD10R,1.250000X1.000000*%
%ADD11R,1.700000X1.000000*%
%ADD12RoundRect,0.200000X-0.275000X0.200000X-0.275000X-0.200000X0.275000X-0.200000X0.275000X0.200000X0*%
%ADD13C,2.200000*%
%ADD14R,0.700000X1.600000*%
%ADD15R,0.550000X0.350000*%
%ADD16R,0.280000X0.550000*%
%ADD17RoundRect,0.200000X0.275000X-0.200000X0.275000X0.200000X-0.275000X0.200000X-0.275000X-0.200000X0*%
%ADD18R,1.000000X0.600000*%
%ADD19RoundRect,0.200000X0.200000X0.275000X-0.200000X0.275000X-0.200000X-0.275000X0.200000X-0.275000X0*%
%ADD20RoundRect,0.225000X-0.225000X-0.250000X0.225000X-0.250000X0.225000X0.250000X-0.225000X0.250000X0*%
%ADD21RoundRect,0.225000X0.225000X0.250000X-0.225000X0.250000X-0.225000X-0.250000X0.225000X-0.250000X0*%
%ADD22R,1.200000X1.800000*%
%ADD23R,0.600000X1.550000*%
%ADD24R,1.700000X1.050000*%
%ADD25R,0.900000X2.000000*%
%ADD26R,0.900000X0.900000*%
%ADD27R,2.000000X0.900000*%
%ADD28R,4.000000X1.500000*%
%ADD29R,3.250000X1.000000*%
%ADD30R,3.000000X0.900000*%
G04 APERTURE END LIST*
D10*
%TO.C,LED1*%
X19500000Y-25400000D03*
X19500000Y-27600000D03*
%TD*%
D11*
%TO.C,RESET1*%
X6800000Y-24250000D03*
X13400000Y-24250000D03*
X6800000Y-27950000D03*
X13400000Y-27950000D03*
%TD*%
%TO.C,SW1*%
X22400000Y-1550000D03*
X29000000Y-1550000D03*
X22400000Y-5250000D03*
X29000000Y-5250000D03*
%TD*%
D12*
%TO.C,R9*%
X14750000Y-17000000D03*
X14750000Y-15350000D03*
%TD*%
D13*
%TO.C,H1*%
X2200000Y-2200000D03*
%TD*%
%TO.C,H4*%
X2200000Y-27800000D03*
%TD*%
D14*
%TO.C,U3*%
X17500000Y-3250000D03*
D15*
X16580000Y-3750000D03*
X16580000Y-2750000D03*
X18420000Y-2750000D03*
X18420000Y-3750000D03*
%TD*%
D13*
%TO.C,H2*%
X32800000Y-2200000D03*
%TD*%
D16*
%TO.C,Q1*%
X15000000Y-20220000D03*
X14500000Y-20220000D03*
X14000000Y-20220000D03*
X14000000Y-18780000D03*
X14500000Y-18780000D03*
X15000000Y-18780000D03*
%TD*%
D17*
%TO.C,R4*%
X17250000Y-25675000D03*
X17250000Y-27325000D03*
%TD*%
D12*
%TO.C,R3*%
X17000000Y-20325000D03*
X17000000Y-18675000D03*
%TD*%
D18*
%TO.C,LDO1*%
X13300000Y-10300000D03*
X13300000Y-12200000D03*
X10700000Y-12200000D03*
X10700000Y-11250000D03*
X10700000Y-10300000D03*
%TD*%
D19*
%TO.C,R10*%
X13675000Y-22000000D03*
X15325000Y-22000000D03*
%TD*%
D13*
%TO.C,H3*%
X32800000Y-27800000D03*
%TD*%
D20*
%TO.C,C5*%
X15525000Y-13750000D03*
X13975000Y-13750000D03*
%TD*%
D21*
%TO.C,C3*%
X16725000Y-5250000D03*
X18275000Y-5250000D03*
%TD*%
D17*
%TO.C,R6*%
X20000000Y-2925000D03*
X20000000Y-4575000D03*
%TD*%
D22*
%TO.C,CN2*%
X12600000Y-1160000D03*
X7000000Y-1160000D03*
D23*
X8300000Y-5040000D03*
X9300000Y-5040000D03*
X10300000Y-5040000D03*
X11300000Y-5040000D03*
%TD*%
D21*
%TO.C,C1*%
X7325000Y-8400000D03*
X8875000Y-8400000D03*
%TD*%
D17*
%TO.C,R7*%
X13000000Y-15425000D03*
X13000000Y-17075000D03*
%TD*%
%TO.C,R5*%
X14750000Y-2925000D03*
X14750000Y-4575000D03*
%TD*%
D24*
%TO.C,X2*%
X15250000Y-12020000D03*
X15250000Y-9480000D03*
%TD*%
D25*
%TO.C,U1*%
X34260000Y-20750000D03*
D26*
X33630000Y-18650000D03*
D25*
X32990000Y-20750000D03*
D26*
X32360000Y-18660000D03*
D25*
X31720000Y-20750000D03*
D26*
X31090000Y-18660000D03*
D25*
X30450000Y-20750000D03*
D26*
X29820000Y-18660000D03*
D25*
X29180000Y-20750000D03*
D26*
X28550000Y-18660000D03*
D25*
X27910000Y-20750000D03*
D26*
X27280000Y-18660000D03*
D25*
X26640000Y-20750000D03*
D26*
X26010000Y-18660000D03*
D25*
X25370000Y-20750000D03*
D26*
X24740000Y-18660000D03*
D25*
X24100000Y-20750000D03*
X22830000Y-20750000D03*
D27*
X20240000Y-18700000D03*
D26*
X22340000Y-18060000D03*
D27*
X20240000Y-17420000D03*
D26*
X22340000Y-16790000D03*
D27*
X20240000Y-16150000D03*
D26*
X22340000Y-15520000D03*
D27*
X20240000Y-14880000D03*
D26*
X22340000Y-14250000D03*
D27*
X20240000Y-13620000D03*
D26*
X22340000Y-12980000D03*
D27*
X20240000Y-12350000D03*
D26*
X22340000Y-11710000D03*
D27*
X20240000Y-11080000D03*
D26*
X22340000Y-10440000D03*
D27*
X20240000Y-9800000D03*
D25*
X22830000Y-7750000D03*
X24100000Y-7750000D03*
X25370000Y-7750000D03*
X26640000Y-7750000D03*
X27910000Y-7750000D03*
X29180000Y-7750000D03*
X30450000Y-7750000D03*
X31750000Y-7750000D03*
X32990000Y-7750000D03*
X34260000Y-7750000D03*
%TD*%
D28*
%TO.C,X1*%
X2147500Y-18410000D03*
X2147500Y-11590000D03*
D29*
X8027500Y-14000000D03*
X8027500Y-16000000D03*
%TD*%
D20*
%TO.C,C4*%
X15525000Y-7750000D03*
X13975000Y-7750000D03*
%TD*%
D30*
%TO.C,CN1*%
X27830000Y-28240000D03*
X23760000Y-28240000D03*
X27830000Y-26970000D03*
X23760000Y-26970000D03*
X27830000Y-25700000D03*
X23760000Y-25700000D03*
X27830000Y-24430000D03*
X23760000Y-24430000D03*
X27830000Y-23160000D03*
X23760000Y-23160000D03*
%TD*%
D21*
%TO.C,C2*%
X10825000Y-8400000D03*
X12375000Y-8400000D03*
%TD*%
M02*
