M48
; DRILL file {KiCad 7.0.11-7.0.11~ubuntu22.04.1} date So 09 Jun 2024 19:30:32
; FORMAT={-:-/ absolute / inch / decimal}
; #@! TF.CreationDate,2024-06-09T19:30:32+02:00
; #@! TF.GenerationSoftware,Kicad,Pcbnew,7.0.11-7.0.11~ubuntu22.04.1
; #@! TF.FileFunction,Plated,1,2,PTH
FMAT,2
INCH
; #@! TA.AperFunction,Plated,PTH,ViaDrill
T1C0.0157
%
G90
G05
T1
X0.2835Y-0.2835
X0.315Y-0.5079
X0.3268Y-0.0591
X0.3839Y-0.4429
X0.4121Y-0.2845
X0.4488Y-0.0551
X0.4803Y-0.2126
X0.5118Y-0.5413
X0.5413Y-1.0039
X0.5512Y-0.2657
X0.5807Y-0.2264
X0.6201Y-0.6693
X0.6201Y-0.748
X0.6628Y-0.2534
X0.6693Y-0.8366
X0.7347Y-0.4125
X0.7372Y-0.6491
X0.7382Y-0.2657
X0.7382Y-0.5807
X0.7382Y-0.8268
X0.8465Y-0.9144
X0.8504Y-0.9921
X0.8504Y-1.1024
X0.9178Y-0.6904
X1.1417Y-0.0984
X1.1516Y-0.3642
M30
